<svg xmlns="http://www.w3.org/2000/svg" xmlns:xlink="http://www.w3.org/1999/xlink" width="500" zoomAndPan="magnify" viewBox="0 0 375 374.999991" height="500" preserveAspectRatio="xMidYMid meet" version="1.0"><defs><clipPath id="659d670635"><path d="M 37.5 37.5 L 337.5 37.5 L 337.5 337.5 L 37.5 337.5 Z M 37.5 37.5 " clip-rule="nonzero"/></clipPath><clipPath id="60eb29d67b"><path d="M 337.5 187.5 C 337.5 189.953125 337.441406 192.410156 337.320312 194.859375 C 337.199219 197.3125 337.019531 199.757812 336.777344 202.203125 C 336.535156 204.644531 336.238281 207.082031 335.875 209.507812 C 335.515625 211.9375 335.097656 214.355469 334.617188 216.761719 C 334.140625 219.171875 333.601562 221.566406 333.003906 223.945312 C 332.40625 226.328125 331.753906 228.695312 331.039062 231.042969 C 330.328125 233.390625 329.558594 235.722656 328.730469 238.035156 C 327.90625 240.34375 327.019531 242.632812 326.082031 244.902344 C 325.140625 247.171875 324.148438 249.414062 323.097656 251.632812 C 322.046875 253.851562 320.945312 256.042969 319.789062 258.210938 C 318.632812 260.375 317.421875 262.511719 316.160156 264.617188 C 314.898438 266.722656 313.585938 268.792969 312.21875 270.835938 C 310.855469 272.875 309.445312 274.882812 307.980469 276.855469 C 306.519531 278.828125 305.007812 280.761719 303.453125 282.660156 C 301.894531 284.554688 300.292969 286.414062 298.644531 288.234375 C 296.992188 290.050781 295.300781 291.832031 293.566406 293.566406 C 291.832031 295.300781 290.050781 296.992188 288.234375 298.644531 C 286.414062 300.292969 284.554688 301.894531 282.660156 303.453125 C 280.761719 305.007812 278.828125 306.519531 276.855469 307.980469 C 274.882812 309.445312 272.875 310.855469 270.835938 312.21875 C 268.792969 313.585938 266.722656 314.898438 264.617188 316.160156 C 262.511719 317.421875 260.375 318.632812 258.210938 319.789062 C 256.042969 320.945312 253.851562 322.046875 251.632812 323.097656 C 249.414062 324.148438 247.171875 325.140625 244.902344 326.082031 C 242.632812 327.019531 240.34375 327.90625 238.035156 328.730469 C 235.722656 329.558594 233.390625 330.328125 231.042969 331.039062 C 228.695312 331.753906 226.328125 332.40625 223.945312 333.003906 C 221.566406 333.601562 219.171875 334.140625 216.761719 334.617188 C 214.355469 335.097656 211.9375 335.515625 209.507812 335.875 C 207.082031 336.238281 204.644531 336.535156 202.203125 336.777344 C 199.757812 337.019531 197.3125 337.199219 194.859375 337.320312 C 192.410156 337.441406 189.953125 337.5 187.5 337.5 C 185.046875 337.5 182.589844 337.441406 180.140625 337.320312 C 177.6875 337.199219 175.242188 337.019531 172.796875 336.777344 C 170.355469 336.535156 167.917969 336.238281 165.492188 335.875 C 163.0625 335.515625 160.644531 335.097656 158.238281 334.617188 C 155.828125 334.140625 153.433594 333.601562 151.054688 333.003906 C 148.671875 332.40625 146.304688 331.753906 143.957031 331.039062 C 141.609375 330.328125 139.277344 329.558594 136.964844 328.730469 C 134.65625 327.90625 132.367188 327.019531 130.097656 326.082031 C 127.828125 325.140625 125.585938 324.148438 123.367188 323.097656 C 121.148438 322.046875 118.957031 320.945312 116.789062 319.789062 C 114.625 318.632812 112.488281 317.421875 110.382812 316.160156 C 108.277344 314.898438 106.207031 313.585938 104.164062 312.21875 C 102.125 310.855469 100.117188 309.445312 98.144531 307.980469 C 96.171875 306.519531 94.238281 305.007812 92.339844 303.453125 C 90.445312 301.894531 88.585938 300.292969 86.765625 298.644531 C 84.945312 296.992188 83.167969 295.300781 81.433594 293.566406 C 79.699219 291.832031 78.007812 290.050781 76.355469 288.234375 C 74.707031 286.414062 73.105469 284.554688 71.546875 282.660156 C 69.992188 280.761719 68.480469 278.828125 67.019531 276.855469 C 65.554688 274.882812 64.144531 272.875 62.78125 270.835938 C 61.414062 268.792969 60.101562 266.722656 58.839844 264.617188 C 57.578125 262.507812 56.367188 260.375 55.210938 258.210938 C 54.054688 256.042969 52.953125 253.851562 51.902344 251.632812 C 50.851562 249.414062 49.859375 247.171875 48.917969 244.902344 C 47.980469 242.632812 47.09375 240.34375 46.269531 238.035156 C 45.441406 235.722656 44.671875 233.390625 43.957031 231.042969 C 43.246094 228.695312 42.589844 226.328125 41.996094 223.945312 C 41.398438 221.566406 40.859375 219.171875 40.382812 216.761719 C 39.902344 214.355469 39.484375 211.9375 39.125 209.507812 C 38.761719 207.082031 38.464844 204.644531 38.222656 202.203125 C 37.980469 199.757812 37.800781 197.3125 37.679688 194.859375 C 37.558594 192.410156 37.5 189.953125 37.5 187.5 C 37.5 185.046875 37.558594 182.589844 37.679688 180.140625 C 37.800781 177.6875 37.980469 175.242188 38.222656 172.796875 C 38.464844 170.355469 38.761719 167.917969 39.125 165.492188 C 39.484375 163.0625 39.902344 160.644531 40.382812 158.238281 C 40.859375 155.828125 41.398438 153.433594 41.996094 151.054688 C 42.589844 148.671875 43.246094 146.304688 43.957031 143.957031 C 44.671875 141.609375 45.441406 139.277344 46.269531 136.964844 C 47.09375 134.65625 47.980469 132.367188 48.917969 130.097656 C 49.859375 127.828125 50.851562 125.585938 51.902344 123.367188 C 52.953125 121.148438 54.054688 118.957031 55.210938 116.789062 C 56.367188 114.625 57.578125 112.488281 58.839844 110.382812 C 60.101562 108.277344 61.414062 106.207031 62.78125 104.164062 C 64.144531 102.125 65.554688 100.117188 67.019531 98.144531 C 68.480469 96.171875 69.992188 94.238281 71.546875 92.339844 C 73.105469 90.445312 74.707031 88.585938 76.355469 86.765625 C 78.007812 84.945312 79.699219 83.167969 81.433594 81.433594 C 83.167969 79.699219 84.945312 78.007812 86.765625 76.355469 C 88.585938 74.707031 90.445312 73.105469 92.339844 71.546875 C 94.238281 69.992188 96.171875 68.480469 98.144531 67.019531 C 100.117188 65.554688 102.125 64.144531 104.164062 62.78125 C 106.207031 61.414062 108.277344 60.101562 110.382812 58.839844 C 112.488281 57.578125 114.625 56.367188 116.789062 55.210938 C 118.957031 54.054688 121.148438 52.953125 123.367188 51.902344 C 125.585938 50.851562 127.828125 49.859375 130.097656 48.917969 C 132.367188 47.980469 134.65625 47.09375 136.964844 46.269531 C 139.277344 45.441406 141.609375 44.671875 143.957031 43.957031 C 146.304688 43.246094 148.671875 42.589844 151.054688 41.996094 C 153.433594 41.398438 155.828125 40.859375 158.238281 40.382812 C 160.644531 39.902344 163.0625 39.484375 165.492188 39.125 C 167.917969 38.761719 170.355469 38.464844 172.796875 38.222656 C 175.242188 37.980469 177.6875 37.800781 180.140625 37.679688 C 182.589844 37.558594 185.046875 37.5 187.5 37.5 C 189.953125 37.5 192.410156 37.558594 194.859375 37.679688 C 197.3125 37.800781 199.757812 37.980469 202.203125 38.222656 C 204.644531 38.464844 207.082031 38.761719 209.507812 39.125 C 211.9375 39.484375 214.355469 39.902344 216.761719 40.382812 C 219.171875 40.859375 221.566406 41.398438 223.945312 41.996094 C 226.328125 42.589844 228.695312 43.246094 231.042969 43.957031 C 233.390625 44.671875 235.722656 45.441406 238.035156 46.269531 C 240.34375 47.09375 242.632812 47.980469 244.902344 48.917969 C 247.171875 49.859375 249.414062 50.851562 251.632812 51.902344 C 253.851562 52.953125 256.042969 54.054688 258.210938 55.210938 C 260.375 56.367188 262.511719 57.578125 264.617188 58.839844 C 266.722656 60.101562 268.792969 61.414062 270.835938 62.78125 C 272.875 64.144531 274.882812 65.554688 276.855469 67.019531 C 278.828125 68.480469 280.761719 69.992188 282.660156 71.546875 C 284.554688 73.105469 286.414062 74.707031 288.234375 76.355469 C 290.050781 78.007812 291.832031 79.699219 293.566406 81.433594 C 295.300781 83.167969 296.992188 84.945312 298.644531 86.765625 C 300.292969 88.585938 301.894531 90.445312 303.453125 92.339844 C 305.007812 94.238281 306.519531 96.171875 307.980469 98.144531 C 309.445312 100.117188 310.855469 102.125 312.21875 104.164062 C 313.585938 106.207031 314.898438 108.277344 316.160156 110.382812 C 317.421875 112.488281 318.632812 114.625 319.789062 116.789062 C 320.945312 118.957031 322.046875 121.148438 323.097656 123.367188 C 324.148438 125.585938 325.140625 127.828125 326.082031 130.097656 C 327.019531 132.367188 327.90625 134.65625 328.730469 136.964844 C 329.558594 139.277344 330.328125 141.609375 331.039062 143.957031 C 331.753906 146.304688 332.40625 148.671875 333.003906 151.054688 C 333.601562 153.433594 334.140625 155.828125 334.617188 158.238281 C 335.097656 160.644531 335.515625 163.0625 335.875 165.492188 C 336.238281 167.917969 336.535156 170.355469 336.777344 172.796875 C 337.019531 175.242188 337.199219 177.6875 337.320312 180.140625 C 337.441406 182.589844 337.5 185.046875 337.5 187.5 Z M 337.5 187.5 " clip-rule="nonzero"/></clipPath><radialGradient gradientTransform="matrix(1, 0, 0, 1, -1021.181851, -1002.522006)" gradientUnits="userSpaceOnUse" r="150.002392" cx="1185.736983" id="2b9ade3db9" cy="1158.060342" fx="1185.736983" fy="1158.060342"><stop stop-opacity="1" stop-color="rgb(18.270874%, 42.233276%, 68.470764%)" offset="0"/><stop stop-opacity="1" stop-color="rgb(18.014526%, 41.902161%, 68.214417%)" offset="0.0625"/><stop stop-opacity="1" stop-color="rgb(17.765808%, 41.581726%, 67.965698%)" offset="0.121094"/><stop stop-opacity="1" stop-color="rgb(17.533875%, 41.28418%, 67.735291%)" offset="0.175781"/><stop stop-opacity="1" stop-color="rgb(17.320251%, 41.007996%, 67.520142%)" offset="0.226562"/><stop stop-opacity="1" stop-color="rgb(17.123413%, 40.753174%, 67.323303%)" offset="0.273438"/><stop stop-opacity="1" stop-color="rgb(16.943359%, 40.52124%, 67.14325%)" offset="0.316406"/><stop stop-opacity="1" stop-color="rgb(16.772461%, 40.299988%, 66.972351%)" offset="0.355469"/><stop stop-opacity="1" stop-color="rgb(16.609192%, 40.089417%, 66.809082%)" offset="0.394531"/><stop stop-opacity="1" stop-color="rgb(16.455078%, 39.891052%, 66.654968%)" offset="0.429688"/><stop stop-opacity="1" stop-color="rgb(16.2323%, 39.604187%, 66.43219%)" offset="0.464844"/><stop stop-opacity="1" stop-color="rgb(15.959167%, 39.250183%, 66.159058%)" offset="0.53125"/><stop stop-opacity="1" stop-color="rgb(15.719604%, 38.94043%, 65.919495%)" offset="0.589844"/><stop stop-opacity="1" stop-color="rgb(15.513611%, 38.674927%, 65.713501%)" offset="0.640625"/><stop stop-opacity="1" stop-color="rgb(15.325928%, 38.430786%, 65.525818%)" offset="0.683594"/><stop stop-opacity="1" stop-color="rgb(15.1474%, 38.182068%, 65.34729%)" offset="0.722656"/><stop stop-opacity="1" stop-color="rgb(14.985657%, 37.948608%, 65.185547%)" offset="0.753906"/><stop stop-opacity="1" stop-color="rgb(14.834595%, 37.730408%, 65.034485%)" offset="0.78125"/><stop stop-opacity="1" stop-color="rgb(14.628601%, 37.435913%, 64.828491%)" offset="0.808594"/><stop stop-opacity="1" stop-color="rgb(14.401245%, 37.109375%, 64.601135%)" offset="0.855469"/><stop stop-opacity="1" stop-color="rgb(14.228821%, 36.860657%, 64.428711%)" offset="0.890625"/><stop stop-opacity="1" stop-color="rgb(14.045715%, 36.59668%, 64.245605%)" offset="0.917969"/><stop stop-opacity="1" stop-color="rgb(13.818359%, 36.270142%, 64.01825%)" offset="0.957031"/><stop stop-opacity="1" stop-color="rgb(13.699341%, 36.099243%, 63.899231%)" offset="1"/></radialGradient><clipPath id="3e44a67fa1"><path d="M 85 61 L 337.5 61 L 337.5 337.5 L 85 337.5 Z M 85 61 " clip-rule="nonzero"/></clipPath><clipPath id="fbd5262abf"><path d="M 74 61 L 197 61 L 197 179 L 74 179 Z M 74 61 " clip-rule="nonzero"/></clipPath><clipPath id="b82c3634eb"><path d="M 196.558594 119.945312 C 196.558594 121.863281 196.460938 123.773438 196.265625 125.679688 C 196.070312 127.585938 195.777344 129.476562 195.386719 131.355469 C 194.996094 133.234375 194.511719 135.089844 193.929688 136.921875 C 193.351562 138.753906 192.675781 140.554688 191.910156 142.324219 C 191.144531 144.09375 190.292969 145.824219 189.347656 147.515625 C 188.40625 149.203125 187.378906 150.84375 186.269531 152.4375 C 185.15625 154.03125 183.96875 155.566406 182.699219 157.046875 C 181.429688 158.527344 180.085938 159.945312 178.671875 161.300781 C 177.257812 162.652344 175.777344 163.9375 174.234375 165.152344 C 172.6875 166.367188 171.082031 167.507812 169.417969 168.570312 C 167.757812 169.636719 166.042969 170.621094 164.277344 171.523438 C 162.515625 172.425781 160.710938 173.242188 158.863281 173.976562 C 157.015625 174.710938 155.132812 175.355469 153.21875 175.910156 C 151.304688 176.464844 149.367188 176.929688 147.40625 177.304688 C 145.445312 177.679688 143.46875 177.957031 141.476562 178.144531 C 139.488281 178.335938 137.492188 178.429688 135.492188 178.429688 C 133.492188 178.429688 131.496094 178.335938 129.507812 178.144531 C 127.515625 177.957031 125.539062 177.679688 123.578125 177.304688 C 121.617188 176.929688 119.679688 176.464844 117.765625 175.910156 C 115.851562 175.355469 113.96875 174.710938 112.121094 173.976562 C 110.273438 173.242188 108.46875 172.425781 106.703125 171.523438 C 104.941406 170.621094 103.226562 169.636719 101.5625 168.570312 C 99.902344 167.507812 98.296875 166.367188 96.75 165.152344 C 95.203125 163.9375 93.726562 162.652344 92.308594 161.300781 C 90.894531 159.945312 89.554688 158.527344 88.285156 157.046875 C 87.015625 155.566406 85.828125 154.03125 84.714844 152.4375 C 83.605469 150.84375 82.578125 149.203125 81.636719 147.515625 C 80.691406 145.824219 79.839844 144.09375 79.074219 142.324219 C 78.308594 140.554688 77.632812 138.753906 77.054688 136.921875 C 76.472656 135.089844 75.988281 133.234375 75.597656 131.355469 C 75.207031 129.476562 74.914062 127.585938 74.71875 125.679688 C 74.523438 123.773438 74.425781 121.863281 74.425781 119.945312 C 74.425781 118.03125 74.523438 116.121094 74.71875 114.214844 C 74.914062 112.308594 75.207031 110.414062 75.597656 108.535156 C 75.988281 106.65625 76.472656 104.800781 77.054688 102.96875 C 77.632812 101.136719 78.308594 99.335938 79.074219 97.566406 C 79.839844 95.796875 80.691406 94.066406 81.636719 92.378906 C 82.578125 90.6875 83.605469 89.046875 84.714844 87.457031 C 85.828125 85.863281 87.015625 84.324219 88.285156 82.84375 C 89.554688 81.363281 90.894531 79.949219 92.308594 78.59375 C 93.726562 77.238281 95.203125 75.953125 96.75 74.738281 C 98.296875 73.523438 99.902344 72.382812 101.5625 71.320312 C 103.226562 70.257812 104.941406 69.273438 106.703125 68.371094 C 108.46875 67.464844 110.273438 66.648438 112.121094 65.914062 C 113.96875 65.183594 115.851562 64.539062 117.765625 63.980469 C 119.679688 63.425781 121.617188 62.960938 123.578125 62.585938 C 125.539062 62.214844 127.515625 61.933594 129.507812 61.746094 C 131.496094 61.558594 133.492188 61.464844 135.492188 61.464844 C 137.492188 61.464844 139.488281 61.558594 141.476562 61.746094 C 143.46875 61.933594 145.445312 62.214844 147.40625 62.585938 C 149.367188 62.960938 151.304688 63.425781 153.21875 63.980469 C 155.132812 64.539062 157.015625 65.183594 158.863281 65.914062 C 160.710938 66.648438 162.515625 67.464844 164.277344 68.371094 C 166.042969 69.273438 167.757812 70.257812 169.417969 71.320312 C 171.082031 72.382812 172.6875 73.523438 174.234375 74.738281 C 175.777344 75.953125 177.257812 77.238281 178.671875 78.59375 C 180.085938 79.949219 181.429688 81.363281 182.699219 82.84375 C 183.96875 84.324219 185.15625 85.863281 186.269531 87.457031 C 187.378906 89.046875 188.40625 90.6875 189.347656 92.378906 C 190.292969 94.066406 191.144531 95.796875 191.910156 97.566406 C 192.675781 99.335938 193.351562 101.136719 193.929688 102.96875 C 194.511719 104.800781 194.996094 106.65625 195.386719 108.535156 C 195.777344 110.414062 196.070312 112.308594 196.265625 114.214844 C 196.460938 116.121094 196.558594 118.03125 196.558594 119.945312 Z M 196.558594 119.945312 " clip-rule="nonzero"/></clipPath><linearGradient x1="61.540008" gradientTransform="matrix(0.6, 0, 0, 0.6, 37.500004, 37.499999)" y1="137.412003" x2="265.100014" gradientUnits="userSpaceOnUse" y2="137.412003" id="b56b93b444"><stop stop-opacity="1" stop-color="rgb(61.599731%, 72.898865%, 85.099792%)" offset="0"/><stop stop-opacity="1" stop-color="rgb(61.473083%, 72.810364%, 85.050964%)" offset="0.0078125"/><stop stop-opacity="1" stop-color="rgb(61.178589%, 72.601318%, 84.938049%)" offset="0.015625"/><stop stop-opacity="1" stop-color="rgb(60.839844%, 72.363281%, 84.80835%)" offset="0.0234375"/><stop stop-opacity="1" stop-color="rgb(60.501099%, 72.123718%, 84.680176%)" offset="0.03125"/><stop stop-opacity="1" stop-color="rgb(60.163879%, 71.885681%, 84.550476%)" offset="0.0390625"/><stop stop-opacity="1" stop-color="rgb(59.825134%, 71.646118%, 84.420776%)" offset="0.046875"/><stop stop-opacity="1" stop-color="rgb(59.486389%, 71.408081%, 84.292603%)" offset="0.0546875"/><stop stop-opacity="1" stop-color="rgb(59.14917%, 71.168518%, 84.162903%)" offset="0.0625"/><stop stop-opacity="1" stop-color="rgb(58.810425%, 70.930481%, 84.033203%)" offset="0.0703125"/><stop stop-opacity="1" stop-color="rgb(58.473206%, 70.690918%, 83.905029%)" offset="0.078125"/><stop stop-opacity="1" stop-color="rgb(58.13446%, 70.452881%, 83.77533%)" offset="0.0859375"/><stop stop-opacity="1" stop-color="rgb(57.795715%, 70.214844%, 83.64563%)" offset="0.09375"/><stop stop-opacity="1" stop-color="rgb(57.458496%, 69.975281%, 83.517456%)" offset="0.101562"/><stop stop-opacity="1" stop-color="rgb(57.119751%, 69.737244%, 83.387756%)" offset="0.109375"/><stop stop-opacity="1" stop-color="rgb(56.781006%, 69.497681%, 83.259583%)" offset="0.117188"/><stop stop-opacity="1" stop-color="rgb(56.443787%, 69.259644%, 83.129883%)" offset="0.125"/><stop stop-opacity="1" stop-color="rgb(56.105042%, 69.020081%, 83.000183%)" offset="0.132812"/><stop stop-opacity="1" stop-color="rgb(55.767822%, 68.782043%, 82.872009%)" offset="0.140625"/><stop stop-opacity="1" stop-color="rgb(55.429077%, 68.54248%, 82.74231%)" offset="0.148438"/><stop stop-opacity="1" stop-color="rgb(55.090332%, 68.304443%, 82.61261%)" offset="0.15625"/><stop stop-opacity="1" stop-color="rgb(54.753113%, 68.06488%, 82.484436%)" offset="0.164063"/><stop stop-opacity="1" stop-color="rgb(54.414368%, 67.826843%, 82.354736%)" offset="0.171875"/><stop stop-opacity="1" stop-color="rgb(54.077148%, 67.58728%, 82.225037%)" offset="0.179688"/><stop stop-opacity="1" stop-color="rgb(53.738403%, 67.349243%, 82.096863%)" offset="0.1875"/><stop stop-opacity="1" stop-color="rgb(53.399658%, 67.10968%, 81.967163%)" offset="0.195313"/><stop stop-opacity="1" stop-color="rgb(53.062439%, 66.871643%, 81.837463%)" offset="0.203125"/><stop stop-opacity="1" stop-color="rgb(52.723694%, 66.63208%, 81.70929%)" offset="0.210938"/><stop stop-opacity="1" stop-color="rgb(52.384949%, 66.394043%, 81.57959%)" offset="0.21875"/><stop stop-opacity="1" stop-color="rgb(52.047729%, 66.156006%, 81.44989%)" offset="0.226563"/><stop stop-opacity="1" stop-color="rgb(51.708984%, 65.916443%, 81.321716%)" offset="0.234375"/><stop stop-opacity="1" stop-color="rgb(51.371765%, 65.678406%, 81.192017%)" offset="0.242188"/><stop stop-opacity="1" stop-color="rgb(51.03302%, 65.438843%, 81.063843%)" offset="0.25"/><stop stop-opacity="1" stop-color="rgb(50.694275%, 65.200806%, 80.934143%)" offset="0.257813"/><stop stop-opacity="1" stop-color="rgb(50.357056%, 64.961243%, 80.804443%)" offset="0.265625"/><stop stop-opacity="1" stop-color="rgb(50.018311%, 64.723206%, 80.67627%)" offset="0.273438"/><stop stop-opacity="1" stop-color="rgb(49.679565%, 64.483643%, 80.54657%)" offset="0.28125"/><stop stop-opacity="1" stop-color="rgb(49.342346%, 64.245605%, 80.41687%)" offset="0.289063"/><stop stop-opacity="1" stop-color="rgb(49.003601%, 64.006042%, 80.288696%)" offset="0.296875"/><stop stop-opacity="1" stop-color="rgb(48.666382%, 63.768005%, 80.158997%)" offset="0.304688"/><stop stop-opacity="1" stop-color="rgb(48.327637%, 63.528442%, 80.029297%)" offset="0.3125"/><stop stop-opacity="1" stop-color="rgb(47.988892%, 63.290405%, 79.901123%)" offset="0.320313"/><stop stop-opacity="1" stop-color="rgb(47.651672%, 63.050842%, 79.771423%)" offset="0.328125"/><stop stop-opacity="1" stop-color="rgb(47.312927%, 62.812805%, 79.641724%)" offset="0.335938"/><stop stop-opacity="1" stop-color="rgb(46.975708%, 62.574768%, 79.51355%)" offset="0.34375"/><stop stop-opacity="1" stop-color="rgb(46.636963%, 62.335205%, 79.38385%)" offset="0.351562"/><stop stop-opacity="1" stop-color="rgb(46.298218%, 62.097168%, 79.25415%)" offset="0.359375"/><stop stop-opacity="1" stop-color="rgb(45.960999%, 61.857605%, 79.125977%)" offset="0.367188"/><stop stop-opacity="1" stop-color="rgb(45.622253%, 61.619568%, 78.996277%)" offset="0.375"/><stop stop-opacity="1" stop-color="rgb(45.283508%, 61.380005%, 78.868103%)" offset="0.382813"/><stop stop-opacity="1" stop-color="rgb(44.946289%, 61.141968%, 78.738403%)" offset="0.390625"/><stop stop-opacity="1" stop-color="rgb(44.607544%, 60.902405%, 78.608704%)" offset="0.398438"/><stop stop-opacity="1" stop-color="rgb(44.270325%, 60.664368%, 78.48053%)" offset="0.40625"/><stop stop-opacity="1" stop-color="rgb(43.93158%, 60.424805%, 78.35083%)" offset="0.414063"/><stop stop-opacity="1" stop-color="rgb(43.592834%, 60.186768%, 78.22113%)" offset="0.421875"/><stop stop-opacity="1" stop-color="rgb(43.255615%, 59.947205%, 78.092957%)" offset="0.429688"/><stop stop-opacity="1" stop-color="rgb(42.91687%, 59.709167%, 77.963257%)" offset="0.4375"/><stop stop-opacity="1" stop-color="rgb(42.578125%, 59.469604%, 77.833557%)" offset="0.445313"/><stop stop-opacity="1" stop-color="rgb(42.240906%, 59.231567%, 77.705383%)" offset="0.453125"/><stop stop-opacity="1" stop-color="rgb(41.902161%, 58.99353%, 77.575684%)" offset="0.460938"/><stop stop-opacity="1" stop-color="rgb(41.564941%, 58.753967%, 77.445984%)" offset="0.46875"/><stop stop-opacity="1" stop-color="rgb(41.226196%, 58.51593%, 77.31781%)" offset="0.476562"/><stop stop-opacity="1" stop-color="rgb(40.887451%, 58.276367%, 77.18811%)" offset="0.484375"/><stop stop-opacity="1" stop-color="rgb(40.550232%, 58.03833%, 77.059937%)" offset="0.492188"/><stop stop-opacity="1" stop-color="rgb(40.211487%, 57.798767%, 76.930237%)" offset="0.5"/><stop stop-opacity="1" stop-color="rgb(39.874268%, 57.56073%, 76.800537%)" offset="0.507812"/><stop stop-opacity="1" stop-color="rgb(39.535522%, 57.321167%, 76.672363%)" offset="0.515625"/><stop stop-opacity="1" stop-color="rgb(39.196777%, 57.08313%, 76.542664%)" offset="0.523438"/><stop stop-opacity="1" stop-color="rgb(38.859558%, 56.843567%, 76.412964%)" offset="0.53125"/><stop stop-opacity="1" stop-color="rgb(38.520813%, 56.60553%, 76.28479%)" offset="0.539062"/><stop stop-opacity="1" stop-color="rgb(38.182068%, 56.365967%, 76.15509%)" offset="0.546875"/><stop stop-opacity="1" stop-color="rgb(37.844849%, 56.12793%, 76.025391%)" offset="0.554688"/><stop stop-opacity="1" stop-color="rgb(37.506104%, 55.888367%, 75.897217%)" offset="0.5625"/><stop stop-opacity="1" stop-color="rgb(37.168884%, 55.65033%, 75.767517%)" offset="0.570312"/><stop stop-opacity="1" stop-color="rgb(36.830139%, 55.412292%, 75.637817%)" offset="0.578125"/><stop stop-opacity="1" stop-color="rgb(36.491394%, 55.172729%, 75.509644%)" offset="0.585938"/><stop stop-opacity="1" stop-color="rgb(36.154175%, 54.934692%, 75.379944%)" offset="0.59375"/><stop stop-opacity="1" stop-color="rgb(35.81543%, 54.695129%, 75.250244%)" offset="0.601562"/><stop stop-opacity="1" stop-color="rgb(35.47821%, 54.457092%, 75.12207%)" offset="0.609375"/><stop stop-opacity="1" stop-color="rgb(35.139465%, 54.217529%, 74.992371%)" offset="0.617188"/><stop stop-opacity="1" stop-color="rgb(34.80072%, 53.979492%, 74.864197%)" offset="0.625"/><stop stop-opacity="1" stop-color="rgb(34.463501%, 53.739929%, 74.734497%)" offset="0.632812"/><stop stop-opacity="1" stop-color="rgb(34.124756%, 53.501892%, 74.604797%)" offset="0.640625"/><stop stop-opacity="1" stop-color="rgb(33.786011%, 53.262329%, 74.476624%)" offset="0.648437"/><stop stop-opacity="1" stop-color="rgb(33.448792%, 53.024292%, 74.346924%)" offset="0.65625"/><stop stop-opacity="1" stop-color="rgb(33.110046%, 52.784729%, 74.217224%)" offset="0.664062"/><stop stop-opacity="1" stop-color="rgb(32.772827%, 52.546692%, 74.08905%)" offset="0.671875"/><stop stop-opacity="1" stop-color="rgb(32.434082%, 52.307129%, 73.959351%)" offset="0.679687"/><stop stop-opacity="1" stop-color="rgb(32.095337%, 52.069092%, 73.829651%)" offset="0.6875"/><stop stop-opacity="1" stop-color="rgb(31.758118%, 51.831055%, 73.701477%)" offset="0.695312"/><stop stop-opacity="1" stop-color="rgb(31.419373%, 51.591492%, 73.571777%)" offset="0.703125"/><stop stop-opacity="1" stop-color="rgb(31.080627%, 51.353455%, 73.442078%)" offset="0.710937"/><stop stop-opacity="1" stop-color="rgb(30.743408%, 51.113892%, 73.313904%)" offset="0.71875"/><stop stop-opacity="1" stop-color="rgb(30.404663%, 50.875854%, 73.184204%)" offset="0.726562"/><stop stop-opacity="1" stop-color="rgb(30.067444%, 50.636292%, 73.054504%)" offset="0.734375"/><stop stop-opacity="1" stop-color="rgb(29.728699%, 50.398254%, 72.926331%)" offset="0.742188"/><stop stop-opacity="1" stop-color="rgb(29.389954%, 50.158691%, 72.796631%)" offset="0.75"/><stop stop-opacity="1" stop-color="rgb(29.052734%, 49.920654%, 72.668457%)" offset="0.757812"/><stop stop-opacity="1" stop-color="rgb(28.713989%, 49.681091%, 72.538757%)" offset="0.765625"/><stop stop-opacity="1" stop-color="rgb(28.37677%, 49.443054%, 72.409058%)" offset="0.773438"/><stop stop-opacity="1" stop-color="rgb(28.038025%, 49.203491%, 72.280884%)" offset="0.78125"/><stop stop-opacity="1" stop-color="rgb(27.69928%, 48.965454%, 72.151184%)" offset="0.789062"/><stop stop-opacity="1" stop-color="rgb(27.362061%, 48.725891%, 72.021484%)" offset="0.796875"/><stop stop-opacity="1" stop-color="rgb(27.023315%, 48.487854%, 71.893311%)" offset="0.804688"/><stop stop-opacity="1" stop-color="rgb(26.68457%, 48.249817%, 71.763611%)" offset="0.8125"/><stop stop-opacity="1" stop-color="rgb(26.347351%, 48.010254%, 71.633911%)" offset="0.820312"/><stop stop-opacity="1" stop-color="rgb(26.008606%, 47.772217%, 71.505737%)" offset="0.828125"/><stop stop-opacity="1" stop-color="rgb(25.671387%, 47.532654%, 71.376038%)" offset="0.835938"/><stop stop-opacity="1" stop-color="rgb(25.332642%, 47.294617%, 71.246338%)" offset="0.84375"/><stop stop-opacity="1" stop-color="rgb(24.993896%, 47.055054%, 71.118164%)" offset="0.851562"/><stop stop-opacity="1" stop-color="rgb(24.656677%, 46.817017%, 70.988464%)" offset="0.859375"/><stop stop-opacity="1" stop-color="rgb(24.317932%, 46.577454%, 70.858765%)" offset="0.867188"/><stop stop-opacity="1" stop-color="rgb(23.979187%, 46.339417%, 70.730591%)" offset="0.875"/><stop stop-opacity="1" stop-color="rgb(23.641968%, 46.099854%, 70.600891%)" offset="0.882812"/><stop stop-opacity="1" stop-color="rgb(23.303223%, 45.861816%, 70.472717%)" offset="0.890625"/><stop stop-opacity="1" stop-color="rgb(22.966003%, 45.622253%, 70.343018%)" offset="0.898438"/><stop stop-opacity="1" stop-color="rgb(22.627258%, 45.384216%, 70.213318%)" offset="0.90625"/><stop stop-opacity="1" stop-color="rgb(22.288513%, 45.144653%, 70.085144%)" offset="0.914062"/><stop stop-opacity="1" stop-color="rgb(21.951294%, 44.906616%, 69.955444%)" offset="0.921875"/><stop stop-opacity="1" stop-color="rgb(21.612549%, 44.668579%, 69.825745%)" offset="0.929687"/><stop stop-opacity="1" stop-color="rgb(21.27533%, 44.429016%, 69.697571%)" offset="0.9375"/><stop stop-opacity="1" stop-color="rgb(20.936584%, 44.190979%, 69.567871%)" offset="0.945312"/><stop stop-opacity="1" stop-color="rgb(20.597839%, 43.951416%, 69.438171%)" offset="0.953125"/><stop stop-opacity="1" stop-color="rgb(20.26062%, 43.713379%, 69.309998%)" offset="0.960937"/><stop stop-opacity="1" stop-color="rgb(19.921875%, 43.473816%, 69.180298%)" offset="0.96875"/><stop stop-opacity="1" stop-color="rgb(19.58313%, 43.235779%, 69.050598%)" offset="0.976562"/><stop stop-opacity="1" stop-color="rgb(19.245911%, 42.996216%, 68.922424%)" offset="0.984375"/><stop stop-opacity="1" stop-color="rgb(18.907166%, 42.758179%, 68.792725%)" offset="0.992188"/><stop stop-opacity="1" stop-color="rgb(18.569946%, 42.518616%, 68.664551%)" offset="1"/></linearGradient></defs><g clip-path="url(#659d670635)"><g clip-path="url(#60eb29d67b)"><path fill="url(#2b9ade3db9)" d="M 37.5 37.5 L 37.5 337.5 L 337.5 337.5 L 337.5 37.5 Z M 37.5 37.5 " fill-rule="nonzero"/></g></g><g clip-path="url(#3e44a67fa1)"><path fill="#083476" d="M 268.789062 61.464844 C 298.246094 88.855469 316.691406 127.921875 316.691406 171.316406 C 316.691406 254.160156 249.535156 321.316406 166.691406 321.316406 C 136.722656 321.316406 108.828125 312.492188 85.402344 297.355469 C 112.183594 322.246094 148.050781 337.5 187.5 337.5 C 270.34375 337.5 337.5 270.34375 337.5 187.5 C 337.5 134.628906 310.121094 88.175781 268.789062 61.464844 Z M 268.789062 61.464844 " fill-opacity="1" fill-rule="nonzero"/></g><g clip-path="url(#fbd5262abf)"><g clip-path="url(#b82c3634eb)"><path fill="url(#b56b93b444)" d="M 74.425781 61.464844 L 74.425781 178.429688 L 196.558594 178.429688 L 196.558594 61.464844 Z M 74.425781 61.464844 " fill-rule="nonzero"/></g></g><path fill="#083476" d="M 194.921875 85.015625 C 189.316406 78.054688 172.679688 82.144531 157.765625 94.152344 C 154.648438 96.660156 151.878906 99.3125 149.460938 102.007812 C 148.300781 99.863281 147 97.710938 145.542969 95.578125 C 134.742188 79.769531 120 71.035156 112.621094 76.074219 C 105.238281 81.113281 108.019531 98.023438 118.816406 113.832031 C 120.808594 116.746094 122.933594 119.417969 125.125 121.804688 C 121.699219 123.683594 118.210938 125.988281 114.808594 128.722656 C 99.894531 140.730469 92.339844 156.109375 97.945312 163.074219 C 103.246094 169.667969 118.445312 166.339844 132.707031 155.773438 C 132.535156 159.929688 132.769531 164.417969 133.46875 169.0625 C 136.324219 187.996094 145.804688 202.265625 154.636719 200.933594 C 163.476562 199.601562 168.324219 183.167969 165.46875 164.230469 C 164.453125 157.511719 162.59375 151.398438 160.242188 146.347656 C 164.09375 150.378906 169.109375 154.332031 175.003906 157.722656 C 191.605469 167.269531 208.675781 168.726562 213.125 160.980469 C 217.585938 153.234375 207.730469 139.210938 191.136719 129.664062 C 185.179688 126.238281 179.171875 123.875 173.699219 122.585938 C 175.15625 121.578125 176.617188 120.515625 178.050781 119.359375 C 192.972656 107.351562 200.527344 91.972656 194.921875 85.015625 Z M 152.023438 133.097656 C 152.082031 133.050781 152.136719 132.996094 152.195312 132.949219 C 152.382812 133.890625 152.683594 134.863281 153.078125 135.851562 C 152.527344 135.34375 151.972656 134.878906 151.410156 134.472656 C 151.632812 134.011719 151.828125 133.546875 152.023438 133.097656 Z M 152.023438 133.097656 " fill-opacity="1" fill-rule="nonzero"/><path fill="#9dbad9" d="M 112.402344 81.574219 C 120.929688 75.757812 137.464844 85.132812 149.347656 102.523438 C 150.949219 104.867188 152.371094 107.238281 153.636719 109.601562 C 156.457031 106.53125 159.679688 103.492188 163.285156 100.609375 C 174.496094 91.648438 186.433594 86.429688 195.132812 85.9375 C 194.945312 85.621094 194.765625 85.296875 194.539062 85.007812 C 188.933594 78.046875 172.296875 82.140625 157.378906 94.144531 C 154.265625 96.652344 151.492188 99.304688 149.074219 102 C 147.917969 99.859375 146.617188 97.703125 145.15625 95.574219 C 134.359375 79.765625 119.617188 71.027344 112.234375 76.066406 C 109.117188 78.199219 107.832031 82.46875 108.179688 87.863281 C 108.960938 85.15625 110.351562 82.980469 112.402344 81.574219 Z M 112.402344 81.574219 " fill-opacity="1" fill-rule="nonzero"/><path fill="#132236" d="M 153.75 127.984375 C 153.75 128.3125 153.71875 128.632812 153.65625 128.953125 C 153.589844 129.273438 153.496094 129.582031 153.371094 129.882812 C 153.25 130.183594 153.09375 130.46875 152.914062 130.738281 C 152.734375 131.011719 152.527344 131.261719 152.296875 131.492188 C 152.066406 131.71875 151.816406 131.925781 151.546875 132.105469 C 151.277344 132.289062 150.992188 132.441406 150.691406 132.566406 C 150.390625 132.6875 150.078125 132.785156 149.761719 132.847656 C 149.441406 132.910156 149.121094 132.941406 148.792969 132.941406 C 148.46875 132.941406 148.144531 132.910156 147.828125 132.847656 C 147.507812 132.785156 147.199219 132.6875 146.898438 132.566406 C 146.597656 132.441406 146.3125 132.289062 146.039062 132.105469 C 145.769531 131.925781 145.519531 131.71875 145.289062 131.492188 C 145.058594 131.261719 144.855469 131.011719 144.671875 130.738281 C 144.492188 130.46875 144.339844 130.183594 144.214844 129.882812 C 144.089844 129.582031 143.996094 129.273438 143.933594 128.953125 C 143.871094 128.632812 143.839844 128.3125 143.839844 127.984375 C 143.839844 127.660156 143.871094 127.339844 143.933594 127.019531 C 143.996094 126.699219 144.089844 126.390625 144.214844 126.089844 C 144.339844 125.789062 144.492188 125.503906 144.671875 125.234375 C 144.855469 124.960938 145.058594 124.710938 145.289062 124.480469 C 145.519531 124.25 145.769531 124.046875 146.039062 123.863281 C 146.3125 123.683594 146.597656 123.53125 146.898438 123.40625 C 147.199219 123.28125 147.507812 123.1875 147.828125 123.125 C 148.144531 123.0625 148.46875 123.03125 148.792969 123.03125 C 149.121094 123.03125 149.441406 123.0625 149.761719 123.125 C 150.078125 123.1875 150.390625 123.28125 150.691406 123.40625 C 150.992188 123.53125 151.277344 123.683594 151.546875 123.863281 C 151.816406 124.046875 152.066406 124.25 152.296875 124.480469 C 152.527344 124.710938 152.734375 124.960938 152.914062 125.234375 C 153.09375 125.503906 153.25 125.789062 153.371094 126.089844 C 153.496094 126.390625 153.589844 126.699219 153.65625 127.019531 C 153.71875 127.339844 153.75 127.660156 153.75 127.984375 Z M 153.75 127.984375 " fill-opacity="1" fill-rule="nonzero"/><path fill="#9dbad9" d="M 141.636719 57.296875 C 141.78125 57.570312 141.867188 57.871094 141.894531 58.199219 C 141.925781 58.527344 141.894531 58.875 141.804688 59.246094 C 141.71875 59.617188 141.570312 60 141.371094 60.398438 C 141.167969 60.792969 140.914062 61.199219 140.605469 61.609375 C 140.296875 62.015625 139.941406 62.425781 139.542969 62.832031 C 139.140625 63.234375 138.699219 63.632812 138.21875 64.019531 C 137.738281 64.40625 137.226562 64.773438 136.6875 65.128906 C 136.148438 65.480469 135.589844 65.808594 135.007812 66.113281 C 134.429688 66.417969 133.839844 66.695312 133.246094 66.941406 C 132.648438 67.1875 132.054688 67.398438 131.464844 67.574219 C 130.875 67.75 130.296875 67.890625 129.734375 67.992188 C 129.175781 68.09375 128.636719 68.15625 128.125 68.175781 C 127.613281 68.199219 127.136719 68.179688 126.695312 68.121094 C 126.253906 68.0625 125.855469 67.964844 125.5 67.828125 C 125.144531 67.691406 124.839844 67.519531 124.585938 67.3125 C 124.332031 67.101562 124.132812 66.859375 123.988281 66.585938 C 123.84375 66.3125 123.757812 66.011719 123.730469 65.683594 C 123.699219 65.355469 123.730469 65.003906 123.820312 64.636719 C 123.90625 64.265625 124.054688 63.882812 124.253906 63.484375 C 124.457031 63.085938 124.710938 62.683594 125.019531 62.273438 C 125.328125 61.863281 125.683594 61.457031 126.082031 61.050781 C 126.484375 60.644531 126.925781 60.25 127.40625 59.863281 C 127.886719 59.476562 128.394531 59.105469 128.9375 58.753906 C 129.476562 58.402344 130.035156 58.074219 130.617188 57.769531 C 131.195312 57.460938 131.78125 57.1875 132.378906 56.941406 C 132.976562 56.695312 133.570312 56.484375 134.160156 56.308594 C 134.75 56.132812 135.328125 55.992188 135.886719 55.890625 C 136.449219 55.789062 136.988281 55.726562 137.5 55.707031 C 138.011719 55.683594 138.488281 55.703125 138.929688 55.761719 C 139.371094 55.820312 139.769531 55.917969 140.125 56.054688 C 140.480469 56.1875 140.785156 56.363281 141.039062 56.570312 C 141.292969 56.78125 141.492188 57.023438 141.636719 57.296875 Z M 141.636719 57.296875 " fill-opacity="0.2" fill-rule="nonzero"/><path fill="#9dbad9" d="M 90.496094 89.546875 C 90.640625 89.820312 90.726562 90.121094 90.753906 90.449219 C 90.78125 90.777344 90.753906 91.128906 90.664062 91.496094 C 90.574219 91.867188 90.429688 92.25 90.230469 92.648438 C 90.027344 93.042969 89.773438 93.449219 89.464844 93.859375 C 89.15625 94.265625 88.800781 94.675781 88.398438 95.082031 C 88 95.484375 87.558594 95.882812 87.078125 96.269531 C 86.597656 96.65625 86.085938 97.023438 85.546875 97.378906 C 85.007812 97.730469 84.449219 98.058594 83.867188 98.363281 C 83.289062 98.667969 82.699219 98.945312 82.105469 99.191406 C 81.507812 99.4375 80.914062 99.648438 80.324219 99.824219 C 79.734375 100 79.15625 100.140625 78.59375 100.242188 C 78.035156 100.34375 77.496094 100.40625 76.984375 100.425781 C 76.472656 100.449219 75.996094 100.429688 75.554688 100.371094 C 75.113281 100.3125 74.714844 100.214844 74.359375 100.078125 C 74.003906 99.941406 73.699219 99.769531 73.445312 99.5625 C 73.191406 99.351562 72.992188 99.109375 72.847656 98.835938 C 72.703125 98.5625 72.617188 98.261719 72.589844 97.933594 C 72.558594 97.605469 72.589844 97.253906 72.679688 96.886719 C 72.765625 96.515625 72.910156 96.132812 73.113281 95.734375 C 73.316406 95.335938 73.570312 94.933594 73.878906 94.523438 C 74.1875 94.113281 74.539062 93.707031 74.941406 93.300781 C 75.34375 92.894531 75.785156 92.5 76.265625 92.113281 C 76.746094 91.726562 77.253906 91.355469 77.796875 91.003906 C 78.335938 90.652344 78.894531 90.324219 79.476562 90.019531 C 80.054688 89.714844 80.640625 89.4375 81.238281 89.191406 C 81.835938 88.945312 82.429688 88.734375 83.019531 88.558594 C 83.609375 88.382812 84.183594 88.242188 84.746094 88.140625 C 85.308594 88.039062 85.847656 87.976562 86.359375 87.957031 C 86.871094 87.933594 87.347656 87.953125 87.789062 88.011719 C 88.230469 88.070312 88.628906 88.167969 88.984375 88.304688 C 89.339844 88.4375 89.644531 88.613281 89.898438 88.820312 C 90.152344 89.03125 90.351562 89.273438 90.496094 89.546875 Z M 90.496094 89.546875 " fill-opacity="0.2" fill-rule="nonzero"/></svg>