<svg xmlns="http://www.w3.org/2000/svg" xmlns:xlink="http://www.w3.org/1999/xlink" width="500" zoomAndPan="magnify" viewBox="0 0 375 374.999991" height="500" preserveAspectRatio="xMidYMid meet" version="1.0"><defs><clipPath id="f774b2d96c"><path d="M 38 100.6875 L 337 100.6875 L 337 274.6875 L 38 274.6875 Z M 38 100.6875 " clip-rule="nonzero"/></clipPath><clipPath id="26d6b664f3"><path d="M 32 53.304688 L 343 53.304688 L 343 321.804688 L 32 321.804688 Z M 32 53.304688 " clip-rule="nonzero"/></clipPath></defs><g clip-path="url(#f774b2d96c)"><path fill="#ffa1a1" d="M 187.441406 100.6875 C 164.03125 117.9375 148.449219 143.617188 144.695312 172.195312 C 144.660156 172.5625 144.601562 172.917969 144.558594 173.285156 C 144.464844 174.050781 144.386719 174.832031 144.316406 175.601562 C 144.191406 176.933594 144.074219 178.253906 143.996094 179.582031 C 143.984375 179.984375 143.960938 180.386719 143.949219 180.789062 C 143.867188 182.382812 143.824219 183.992188 143.824219 185.609375 C 143.824219 186.6875 143.847656 187.765625 143.878906 188.84375 C 143.902344 189.867188 143.960938 190.898438 144.019531 191.921875 C 145.933594 223.308594 162.117188 251.859375 187.441406 270.519531 C 212.757812 251.859375 228.9375 223.328125 230.878906 191.953125 C 230.878906 191.828125 230.878906 191.691406 230.890625 191.566406 C 230.949219 190.636719 230.992188 189.707031 231.015625 188.777344 C 231.050781 187.71875 231.0625 186.664062 231.0625 185.609375 C 231.0625 183.980469 231.015625 182.351562 230.9375 180.71875 C 230.925781 180.375 230.914062 180.019531 230.890625 179.664062 C 230.808594 178.242188 230.683594 176.828125 230.546875 175.40625 C 230.488281 174.785156 230.429688 174.167969 230.351562 173.546875 C 230.269531 172.777344 230.15625 172.019531 230.050781 171.265625 C 226.09375 143.054688 210.589844 117.753906 187.441406 100.6875 Z M 92.546875 161.1875 C 72.226562 161.464844 52.714844 170.035156 38.40625 190.507812 C 40.609375 190.496094 42.765625 189.890625 44.96875 190.234375 C 56.226562 191.964844 67.050781 199.644531 72.476562 211.957031 C 85.136719 240.625 98.171875 257.171875 114.9375 266.226562 C 126.128906 272.273438 141.195312 274.238281 158.648438 274.398438 C 138.199219 253.375 125.472656 225.738281 123.015625 196.144531 C 122.972656 195.605469 122.925781 195.066406 122.890625 194.527344 C 122.84375 193.941406 122.8125 193.355469 122.777344 192.769531 C 122.742188 192.035156 122.707031 191.3125 122.671875 190.578125 C 122.648438 190.140625 122.628906 189.71875 122.617188 189.292969 C 122.582031 188.066406 122.558594 186.835938 122.558594 185.609375 C 122.558594 179.675781 122.996094 173.8125 123.796875 168.027344 C 113.769531 163.769531 103.152344 161.039062 92.546875 161.1875 Z M 282.335938 161.1875 C 271.734375 161.039062 261.105469 163.757812 251.078125 168.027344 C 251.878906 173.8125 252.316406 179.675781 252.316406 185.597656 C 252.316406 186.835938 252.28125 188.066406 252.257812 189.292969 C 252.234375 189.71875 252.222656 190.140625 252.199219 190.578125 C 252.179688 191.3125 252.144531 192.035156 252.097656 192.769531 C 252.0625 193.355469 252.027344 193.941406 251.984375 194.515625 C 251.949219 195.066406 251.902344 195.605469 251.855469 196.144531 C 249.402344 225.738281 236.675781 253.363281 216.222656 274.386719 C 233.679688 274.226562 248.746094 272.273438 259.9375 266.226562 C 276.703125 257.171875 289.75 240.625 302.40625 211.957031 C 307.835938 199.644531 318.65625 191.964844 329.902344 190.234375 C 332.105469 189.890625 334.265625 190.496094 336.46875 190.507812 C 322.15625 170.035156 302.660156 161.464844 282.347656 161.1875 Z M 282.335938 161.1875 " fill-opacity="1" fill-rule="nonzero"/></g><g clip-path="url(#26d6b664f3)"><path fill="#bf9b30" d="M 187.625 53.304688 L 182.324219 56.832031 C 166.730469 67.199219 153.363281 80.105469 142.609375 94.820312 C 148.675781 97.28125 154.8125 100.167969 160.402344 103.941406 C 168.152344 94 177.28125 85.042969 187.625 77.371094 C 222.542969 103.242188 243.792969 143.71875 243.792969 187.464844 C 243.792969 219.898438 232.097656 250.53125 211.828125 274.75 C 223.363281 219.625 211.964844 180.246094 195.265625 154.195312 C 182.980469 135.007812 168.097656 122.730469 157.914062 116.46875 C 153.789062 113.921875 145.027344 109.945312 134.816406 106.511719 C 131.265625 112.417969 128.09375 118.558594 125.347656 124.875 C 104.777344 115.304688 82.324219 110.3125 59.542969 110.355469 C 55.59375 110.355469 51.628906 110.503906 47.695312 110.820312 L 42.089844 111.257812 L 40.328125 116.589844 C 23.875 166.0625 33.796875 220.144531 65.40625 261.605469 C 90.484375 294.535156 127.136719 314.773438 169.597656 320.105469 C 181.996094 321.664062 193.613281 321.527344 205.652344 320.105469 C 248.15625 315.089844 284.765625 294.535156 309.859375 261.605469 C 341.457031 220.144531 351.378906 166.0625 334.9375 116.589844 L 333.160156 111.257812 L 327.558594 110.820312 C 323.621094 110.503906 319.671875 110.355469 315.707031 110.355469 C 292.941406 110.3125 270.484375 115.304688 249.917969 124.875 C 238.027344 97.570312 218.457031 73.789062 192.929688 56.832031 Z M 59.570312 127.269531 C 80.328125 127.242188 100.679688 132.125 119.347656 141.054688 C 114.742188 155.902344 112.296875 171.519531 112.296875 187.464844 C 112.296875 231.238281 130.566406 272.585938 161.960938 301.972656 C 129.148438 295.699219 99.503906 277.769531 78.71875 251.1875 C 51.289062 216.070312 42.679688 170.070312 54.910156 127.460938 C 56.46875 127.394531 58.011719 127.269531 59.570312 127.269531 Z M 315.695312 127.269531 C 317.238281 127.269531 318.796875 127.40625 320.339844 127.460938 C 332.574219 170.070312 323.976562 216.070312 296.535156 251.1875 C 275.746094 277.785156 246.105469 295.699219 213.292969 301.972656 C 244.683594 272.585938 262.96875 231.238281 262.96875 187.464844 C 262.96875 171.519531 260.523438 155.890625 255.929688 141.054688 C 274.585938 132.125 294.933594 127.242188 315.695312 127.269531 Z M 145.148438 128.363281 C 152.925781 132.890625 168.398438 143.625 181.023438 163.328125 C 197.808594 189.503906 209.285156 231.976562 188.144531 297.761719 C 158.503906 282.5 131.894531 224.277344 131.46875 187.464844 C 131.222656 166.609375 136.308594 146.496094 145.148438 128.363281 Z M 145.148438 128.363281 " fill-opacity="1" fill-rule="nonzero"/></g></svg>