<svg xmlns="http://www.w3.org/2000/svg" xmlns:xlink="http://www.w3.org/1999/xlink" width="500" zoomAndPan="magnify" viewBox="0 0 375 374.999991" height="500" preserveAspectRatio="xMidYMid meet" version="1.0"><defs><clipPath id="6f7232a080"><path d="M 37.5 64.019531 L 337.5 64.019531 L 337.5 310.769531 L 37.5 310.769531 Z M 37.5 64.019531 " clip-rule="nonzero"/></clipPath><clipPath id="0e0567e0d3"><path d="M 175.785156 137.058594 L 277 137.058594 L 277 238 L 175.785156 238 Z M 175.785156 137.058594 " clip-rule="nonzero"/></clipPath><clipPath id="77a0a5b368"><path d="M 210 142 L 251 142 L 251 233 L 210 233 Z M 210 142 " clip-rule="nonzero"/></clipPath><clipPath id="d28b794213"><path d="M 182.027344 147.261719 L 270.6875 137.046875 L 281.246094 228.691406 L 192.582031 238.90625 Z M 182.027344 147.261719 " clip-rule="nonzero"/></clipPath><clipPath id="b3118a8edf"><path d="M 182.027344 147.261719 L 270.6875 137.046875 L 281.246094 228.691406 L 192.582031 238.90625 Z M 182.027344 147.261719 " clip-rule="nonzero"/></clipPath><clipPath id="a3bdcd3487"><path d="M 182.027344 147.261719 L 270.6875 137.046875 L 281.246094 228.691406 L 192.582031 238.90625 Z M 182.027344 147.261719 " clip-rule="nonzero"/></clipPath><clipPath id="83ca6a3098"><path d="M 230 157 L 257 157 L 257 210 L 230 210 Z M 230 157 " clip-rule="nonzero"/></clipPath><clipPath id="fa00facb53"><path d="M 182.027344 147.261719 L 270.6875 137.046875 L 281.246094 228.691406 L 192.582031 238.90625 Z M 182.027344 147.261719 " clip-rule="nonzero"/></clipPath><clipPath id="69f8415401"><path d="M 182.027344 147.261719 L 270.6875 137.046875 L 281.246094 228.691406 L 192.582031 238.90625 Z M 182.027344 147.261719 " clip-rule="nonzero"/></clipPath><clipPath id="dc0bc1504b"><path d="M 182.027344 147.261719 L 270.6875 137.046875 L 281.246094 228.691406 L 192.582031 238.90625 Z M 182.027344 147.261719 " clip-rule="nonzero"/></clipPath><clipPath id="34ba31bd9d"><path d="M 236 186 L 278 186 L 278 193 L 236 193 Z M 236 186 " clip-rule="nonzero"/></clipPath><clipPath id="b9593e7ef9"><path d="M 182.027344 147.261719 L 270.6875 137.046875 L 281.246094 228.691406 L 192.582031 238.90625 Z M 182.027344 147.261719 " clip-rule="nonzero"/></clipPath><clipPath id="dd97bf7b57"><path d="M 182.027344 147.261719 L 270.6875 137.046875 L 281.246094 228.691406 L 192.582031 238.90625 Z M 182.027344 147.261719 " clip-rule="nonzero"/></clipPath><clipPath id="0192c93ad3"><path d="M 182.027344 147.261719 L 270.6875 137.046875 L 281.246094 228.691406 L 192.582031 238.90625 Z M 182.027344 147.261719 " clip-rule="nonzero"/></clipPath><clipPath id="f6583eb67f"><path d="M 211 216 L 237 216 L 237 223 L 211 223 Z M 211 216 " clip-rule="nonzero"/></clipPath><clipPath id="f19c0a26f4"><path d="M 182.027344 147.261719 L 270.6875 137.046875 L 281.246094 228.691406 L 192.582031 238.90625 Z M 182.027344 147.261719 " clip-rule="nonzero"/></clipPath><clipPath id="26314a72a2"><path d="M 182.027344 147.261719 L 270.6875 137.046875 L 281.246094 228.691406 L 192.582031 238.90625 Z M 182.027344 147.261719 " clip-rule="nonzero"/></clipPath><clipPath id="0fee5b0591"><path d="M 182.027344 147.261719 L 270.6875 137.046875 L 281.246094 228.691406 L 192.582031 238.90625 Z M 182.027344 147.261719 " clip-rule="nonzero"/></clipPath><clipPath id="a79d114bbf"><path d="M 191 200 L 217 200 L 217 227 L 191 227 Z M 191 200 " clip-rule="nonzero"/></clipPath><clipPath id="242a1dacbf"><path d="M 182.027344 147.261719 L 270.6875 137.046875 L 281.246094 228.691406 L 192.582031 238.90625 Z M 182.027344 147.261719 " clip-rule="nonzero"/></clipPath><clipPath id="78dfafbb54"><path d="M 182.027344 147.261719 L 270.6875 137.046875 L 281.246094 228.691406 L 192.582031 238.90625 Z M 182.027344 147.261719 " clip-rule="nonzero"/></clipPath><clipPath id="006954ecd2"><path d="M 182.027344 147.261719 L 270.6875 137.046875 L 281.246094 228.691406 L 192.582031 238.90625 Z M 182.027344 147.261719 " clip-rule="nonzero"/></clipPath><clipPath id="bb8a964f96"><path d="M 197 158 L 212 158 L 212 191 L 197 191 Z M 197 158 " clip-rule="nonzero"/></clipPath><clipPath id="95e4c02eeb"><path d="M 182.027344 147.261719 L 270.6875 137.046875 L 281.246094 228.691406 L 192.582031 238.90625 Z M 182.027344 147.261719 " clip-rule="nonzero"/></clipPath><clipPath id="e0630055ce"><path d="M 182.027344 147.261719 L 270.6875 137.046875 L 281.246094 228.691406 L 192.582031 238.90625 Z M 182.027344 147.261719 " clip-rule="nonzero"/></clipPath><clipPath id="f034efa87f"><path d="M 182.027344 147.261719 L 270.6875 137.046875 L 281.246094 228.691406 L 192.582031 238.90625 Z M 182.027344 147.261719 " clip-rule="nonzero"/></clipPath><clipPath id="05f81e97f5"><path d="M 189 183 L 207 183 L 207 187 L 189 187 Z M 189 183 " clip-rule="nonzero"/></clipPath><clipPath id="302444d153"><path d="M 182.027344 147.261719 L 270.6875 137.046875 L 281.246094 228.691406 L 192.582031 238.90625 Z M 182.027344 147.261719 " clip-rule="nonzero"/></clipPath><clipPath id="d9b51dc578"><path d="M 182.027344 147.261719 L 270.6875 137.046875 L 281.246094 228.691406 L 192.582031 238.90625 Z M 182.027344 147.261719 " clip-rule="nonzero"/></clipPath><clipPath id="450b7c5849"><path d="M 182.027344 147.261719 L 270.6875 137.046875 L 281.246094 228.691406 L 192.582031 238.90625 Z M 182.027344 147.261719 " clip-rule="nonzero"/></clipPath></defs><g clip-path="url(#6f7232a080)"><path fill="#b12626" d="M 224.871094 110.863281 C 267.234375 110.863281 301.332031 145.304688 301.332031 187.667969 C 301.332031 230.03125 267.234375 264.128906 224.871094 264.128906 C 184.917969 264.128906 152.195312 233.476562 148.410156 194.554688 L 71.945312 194.554688 C 69.191406 201.101562 62.992188 205.578125 55.414062 205.578125 C 45.425781 205.578125 37.503906 197.65625 37.503906 187.667969 C 37.503906 177.679688 45.425781 169.757812 55.414062 169.757812 C 62.992188 169.757812 69.191406 174.234375 71.945312 180.433594 L 148.410156 180.433594 C 152.195312 141.515625 184.917969 110.863281 224.871094 110.863281 Z M 125.332031 134.972656 L 105.011719 134.972656 C 102.257812 128.773438 96.054688 123.949219 88.480469 123.949219 C 78.492188 123.949219 70.570312 132.214844 70.570312 142.203125 C 70.570312 151.847656 78.492188 160.113281 88.480469 160.113281 C 96.054688 160.113281 102.257812 155.636719 105.011719 149.09375 L 133.941406 149.09375 C 136.007812 144.269531 138.421875 139.449219 141.519531 134.972656 C 158.398438 108.105469 188.359375 89.851562 222.804688 88.820312 L 224.871094 88.820312 C 279.289062 88.820312 323.375 133.25 323.375 187.667969 C 323.375 242.085938 279.289062 286.171875 224.871094 286.171875 L 222.804688 286.171875 C 188.359375 285.484375 158.398438 267.230469 141.519531 240.019531 C 138.421875 235.542969 136.007812 231.066406 133.941406 226.242188 L 105.011719 226.242188 C 102.257812 219.699219 96.054688 215.222656 88.480469 215.222656 C 78.492188 215.222656 70.570312 223.144531 70.570312 233.132812 C 70.570312 243.121094 78.492188 251.042969 88.480469 251.042969 C 96.054688 251.042969 102.257812 246.5625 105.011719 240.019531 L 125.332031 240.019531 C 135.664062 259.652344 151.164062 275.496094 170.453125 286.171875 L 140.832031 286.171875 C 138.074219 279.628906 131.53125 275.152344 123.953125 275.152344 C 114.3125 275.152344 106.042969 283.074219 106.042969 293.0625 C 106.042969 303.046875 114.3125 310.96875 123.953125 310.96875 C 131.53125 310.96875 138.074219 306.492188 140.832031 300.292969 L 224.871094 300.292969 C 286.863281 300.292969 337.496094 249.664062 337.496094 187.667969 C 337.496094 125.328125 286.863281 75.042969 224.871094 75.042969 L 140.832031 75.042969 C 138.074219 68.5 131.53125 64.019531 123.953125 64.019531 C 114.3125 64.019531 106.042969 71.941406 106.042969 81.929688 C 106.042969 91.917969 114.3125 99.839844 123.953125 99.839844 C 131.53125 99.839844 138.074219 95.363281 140.832031 88.820312 L 170.453125 88.820312 C 151.164062 99.496094 135.664062 115.683594 125.332031 134.972656 Z M 224.871094 124.984375 C 259.3125 124.984375 287.554688 152.882812 287.554688 187.667969 C 287.554688 222.109375 259.3125 250.351562 224.871094 250.351562 C 190.082031 250.351562 162.183594 222.109375 162.183594 187.667969 C 162.183594 152.882812 190.082031 124.984375 224.871094 124.984375 Z M 224.871094 124.984375 " fill-opacity="1" fill-rule="evenodd"/></g><g clip-path="url(#0e0567e0d3)"><path fill="#881515" d="M 276.660156 187.496094 C 276.660156 189.148438 276.582031 190.792969 276.417969 192.4375 C 276.257812 194.082031 276.015625 195.714844 275.691406 197.335938 C 275.371094 198.957031 274.96875 200.554688 274.488281 202.136719 C 274.011719 203.71875 273.453125 205.269531 272.824219 206.796875 C 272.191406 208.324219 271.484375 209.8125 270.707031 211.269531 C 269.925781 212.726562 269.078125 214.144531 268.160156 215.515625 C 267.242188 216.890625 266.261719 218.214844 265.214844 219.492188 C 264.164062 220.769531 263.058594 221.992188 261.890625 223.160156 C 260.722656 224.328125 259.5 225.4375 258.222656 226.484375 C 256.945312 227.53125 255.621094 228.515625 254.246094 229.433594 C 252.871094 230.351562 251.457031 231.199219 250 231.976562 C 248.542969 232.753906 247.050781 233.460938 245.527344 234.09375 C 244 234.726562 242.445312 235.28125 240.867188 235.761719 C 239.285156 236.242188 237.683594 236.640625 236.0625 236.964844 C 234.445312 237.285156 232.8125 237.527344 231.167969 237.691406 C 229.523438 237.851562 227.875 237.933594 226.222656 237.933594 C 224.574219 237.933594 222.925781 237.851562 221.28125 237.691406 C 219.636719 237.527344 218.003906 237.285156 216.382812 236.964844 C 214.765625 236.640625 213.164062 236.242188 211.582031 235.761719 C 210.003906 235.28125 208.449219 234.726562 206.921875 234.09375 C 205.398438 233.460938 203.90625 232.753906 202.449219 231.976562 C 200.992188 231.199219 199.578125 230.351562 198.203125 229.433594 C 196.828125 228.515625 195.503906 227.53125 194.226562 226.484375 C 192.949219 225.4375 191.726562 224.328125 190.558594 223.160156 C 189.390625 221.992188 188.285156 220.769531 187.234375 219.492188 C 186.1875 218.214844 185.203125 216.890625 184.285156 215.515625 C 183.371094 214.144531 182.519531 212.726562 181.742188 211.269531 C 180.964844 209.8125 180.257812 208.324219 179.625 206.796875 C 178.992188 205.269531 178.4375 203.71875 177.957031 202.136719 C 177.480469 200.554688 177.078125 198.957031 176.757812 197.335938 C 176.433594 195.714844 176.191406 194.082031 176.03125 192.4375 C 175.867188 190.792969 175.785156 189.148438 175.785156 187.496094 C 175.785156 185.84375 175.867188 184.195312 176.03125 182.550781 C 176.191406 180.90625 176.433594 179.277344 176.757812 177.65625 C 177.078125 176.035156 177.480469 174.433594 177.957031 172.855469 C 178.4375 171.273438 178.992188 169.71875 179.625 168.195312 C 180.257812 166.667969 180.964844 165.175781 181.742188 163.71875 C 182.519531 162.261719 183.371094 160.847656 184.285156 159.472656 C 185.203125 158.101562 186.1875 156.773438 187.234375 155.496094 C 188.285156 154.222656 189.390625 153 190.558594 151.832031 C 191.726562 150.664062 192.949219 149.554688 194.226562 148.507812 C 195.503906 147.457031 196.828125 146.476562 198.203125 145.558594 C 199.578125 144.640625 200.992188 143.792969 202.449219 143.011719 C 203.90625 142.234375 205.398438 141.527344 206.921875 140.898438 C 208.449219 140.265625 210.003906 139.707031 211.582031 139.230469 C 213.164062 138.75 214.765625 138.347656 216.382812 138.027344 C 218.003906 137.703125 219.636719 137.460938 221.28125 137.300781 C 222.925781 137.136719 224.574219 137.058594 226.222656 137.058594 C 227.875 137.058594 229.523438 137.136719 231.167969 137.300781 C 232.8125 137.460938 234.445312 137.703125 236.0625 138.027344 C 237.683594 138.347656 239.285156 138.75 240.867188 139.230469 C 242.445312 139.707031 244 140.265625 245.527344 140.898438 C 247.050781 141.527344 248.542969 142.234375 250 143.011719 C 251.457031 143.792969 252.871094 144.640625 254.246094 145.558594 C 255.621094 146.476562 256.945312 147.457031 258.222656 148.507812 C 259.5 149.554688 260.722656 150.664062 261.890625 151.832031 C 263.058594 153 264.164062 154.222656 265.214844 155.496094 C 266.261719 156.773438 267.242188 158.101562 268.160156 159.472656 C 269.078125 160.847656 269.925781 162.261719 270.707031 163.71875 C 271.484375 165.175781 272.191406 166.667969 272.824219 168.195312 C 273.453125 169.71875 274.011719 171.273438 274.488281 172.855469 C 274.96875 174.433594 275.371094 176.035156 275.691406 177.65625 C 276.015625 179.277344 276.257812 180.90625 276.417969 182.550781 C 276.582031 184.195312 276.660156 185.84375 276.660156 187.496094 Z M 276.660156 187.496094 " fill-opacity="1" fill-rule="nonzero"/></g><g clip-path="url(#77a0a5b368)"><g clip-path="url(#d28b794213)"><g clip-path="url(#b3118a8edf)"><g clip-path="url(#a3bdcd3487)"><path fill="#000000" d="M 226.511719 205.53125 C 226.949219 205.914062 227.355469 206.332031 227.742188 206.769531 C 229.421875 208.652344 230.804688 210.882812 232.691406 212.589844 C 233.105469 212.964844 233.539062 213.320312 233.996094 213.636719 C 234.464844 213.964844 234.960938 214.25 235.488281 214.476562 C 235.546875 214.503906 235.890625 214.5625 236.214844 214.621094 C 236.148438 214.886719 236.078125 215.183594 236.070312 215.234375 C 235.996094 215.800781 235.949219 216.367188 235.910156 216.9375 C 235.851562 217.777344 235.824219 218.617188 235.777344 219.453125 C 235.757812 219.832031 235.558594 220.09375 235.472656 220.21875 C 235.210938 220.609375 235.359375 220.9375 235.414062 221.015625 C 235.492188 221.140625 235.621094 221.269531 235.8125 221.378906 C 236.054688 221.523438 236.453125 221.660156 236.945312 221.773438 C 238.117188 222.050781 239.890625 222.238281 240.984375 222.433594 C 241.214844 222.472656 241.464844 222.539062 241.589844 222.570312 C 241.9375 223.214844 241.953125 224.0625 241.941406 224.945312 C 241.929688 225.976562 241.859375 227.054688 242 228 C 242.089844 228.613281 242.273438 229.175781 242.582031 229.652344 C 242.648438 229.753906 242.773438 229.886719 242.984375 230.003906 C 243.175781 230.117188 243.496094 230.246094 243.882812 230.382812 C 245.21875 230.84375 247.515625 231.402344 247.972656 231.558594 C 248.242188 231.648438 248.90625 231.867188 249.214844 232.011719 C 249.257812 232.054688 249.304688 232.089844 249.359375 232.117188 C 249.703125 232.308594 250.136719 232.1875 250.328125 231.847656 C 250.441406 231.640625 250.480469 231.398438 250.324219 231.132812 C 250.28125 231.054688 250.15625 230.890625 249.898438 230.765625 C 249.574219 230.605469 248.742188 230.328125 248.417969 230.21875 C 247.902344 230.050781 245.011719 229.386719 243.871094 228.917969 C 243.800781 228.890625 243.714844 228.847656 243.667969 228.824219 C 243.285156 228.175781 243.25 227.316406 243.246094 226.429688 C 243.246094 225.394531 243.316406 224.316406 243.179688 223.382812 C 243.089844 222.765625 242.910156 222.203125 242.601562 221.734375 C 242.535156 221.636719 242.425781 221.519531 242.242188 221.429688 C 242.105469 221.367188 241.886719 221.296875 241.605469 221.238281 C 240.566406 221.019531 238.410156 220.839844 237.109375 220.527344 C 237 220.5 236.886719 220.464844 236.78125 220.429688 C 236.894531 220.1875 236.992188 219.878906 237.007812 219.515625 C 237.042969 218.679688 237.066406 217.847656 237.117188 217.015625 C 237.148438 216.46875 237.191406 215.925781 237.253906 215.382812 C 237.269531 215.289062 237.460938 214.621094 237.496094 214.339844 C 237.527344 214.074219 237.449219 213.894531 237.398438 213.824219 C 237.382812 213.796875 237.230469 213.597656 236.894531 213.539062 C 236.644531 213.496094 236.019531 213.429688 235.949219 213.398438 C 235.488281 213.207031 235.0625 212.960938 234.652344 212.683594 C 234.234375 212.394531 233.835938 212.074219 233.457031 211.738281 C 231.582031 210.074219 230.214844 207.886719 228.546875 206.050781 C 228.105469 205.5625 227.644531 205.097656 227.148438 204.671875 C 227.023438 204.566406 226.796875 204.472656 226.503906 204.460938 C 226.0625 204.441406 225.363281 204.582031 225.128906 204.585938 C 224.070312 204.589844 222.753906 204.734375 221.546875 204.722656 C 221.039062 204.714844 220.546875 204.683594 220.113281 204.59375 C 219.957031 204.5625 219.769531 204.378906 219.558594 204.175781 C 218.960938 203.605469 218.304688 202.769531 217.996094 202.488281 C 216.871094 201.472656 215.09375 200.460938 213.699219 199.335938 C 213.101562 198.855469 212.574219 198.351562 212.21875 197.816406 C 212.054688 197.566406 212.015625 197.113281 211.996094 196.625 C 211.964844 195.800781 212.03125 194.886719 212.011719 194.421875 C 211.925781 192.714844 211.65625 190.410156 211.710938 188.242188 C 211.746094 186.800781 211.925781 185.421875 212.410156 184.339844 C 212.554688 184.007812 213 183.785156 213.492188 183.542969 C 214.253906 183.171875 215.148438 182.816406 215.730469 182.328125 C 216.082031 182.03125 216.324219 181.6875 216.410156 181.28125 C 216.527344 180.699219 216.367188 180.035156 216.097656 179.34375 C 215.789062 178.539062 215.339844 177.691406 215.195312 176.90625 C 215.136719 176.585938 215.136719 176.277344 215.238281 175.988281 C 215.429688 175.453125 215.941406 175.039062 216.527344 174.644531 C 217.417969 174.042969 218.488281 173.496094 219.175781 172.792969 C 219.542969 172.414062 219.808594 171.992188 219.910156 171.503906 C 219.996094 171.09375 219.925781 170.554688 219.757812 169.949219 C 219.289062 168.289062 218.054688 166.054688 218.078125 164.648438 C 218.117188 164.605469 218.273438 164.4375 218.433594 164.308594 C 219.027344 163.835938 220.050781 163.171875 220.671875 162.570312 C 220.976562 162.277344 221.1875 161.984375 221.253906 161.738281 C 221.335938 161.414062 221.234375 161.046875 221.003906 160.664062 C 220.671875 160.109375 220.070312 159.5 219.621094 158.90625 C 219.316406 158.503906 219.070312 158.121094 219.128906 157.765625 C 219.421875 155.945312 220.539062 153.617188 221.925781 151.253906 C 223.894531 147.902344 226.410156 144.476562 227.960938 142.304688 C 228.019531 142.230469 228 142.125 227.925781 142.070312 C 227.847656 142.015625 227.742188 142.03125 227.6875 142.109375 C 226.113281 144.273438 223.558594 147.6875 221.554688 151.035156 C 220.113281 153.445312 218.957031 155.824219 218.640625 157.683594 C 218.589844 158.007812 218.691406 158.359375 218.894531 158.722656 C 219.273438 159.398438 220.023438 160.128906 220.460938 160.789062 C 220.65625 161.085938 220.800781 161.359375 220.734375 161.601562 C 220.671875 161.835938 220.40625 162.097656 220.078125 162.375 C 219.367188 162.984375 218.339844 163.621094 217.863281 164.042969 C 217.621094 164.257812 217.511719 164.464844 217.507812 164.589844 C 217.445312 166.035156 218.683594 168.386719 219.15625 170.117188 C 219.289062 170.605469 219.359375 171.039062 219.289062 171.375 C 219.207031 171.742188 218.996094 172.054688 218.714844 172.339844 C 218.046875 173.007812 217.011719 173.515625 216.15625 174.082031 C 215.429688 174.5625 214.828125 175.09375 214.585938 175.75 C 214.4375 176.148438 214.429688 176.578125 214.503906 177.027344 C 214.644531 177.855469 215.101562 178.753906 215.421875 179.601562 C 215.628906 180.148438 215.78125 180.671875 215.683594 181.128906 C 215.628906 181.375 215.464844 181.574219 215.25 181.753906 C 214.605469 182.285156 213.546875 182.625 212.777344 183.039062 C 212.261719 183.316406 211.863281 183.640625 211.691406 184.015625 C 211.160156 185.179688 210.941406 186.664062 210.890625 188.21875 C 210.816406 190.40625 211.0625 192.738281 211.132812 194.460938 C 211.15625 195 211.050781 196.136719 211.125 197.042969 C 211.164062 197.570312 211.273438 198.027344 211.457031 198.3125 C 211.851562 198.925781 212.441406 199.503906 213.113281 200.054688 C 214.484375 201.179688 216.234375 202.191406 217.335938 203.207031 C 217.640625 203.488281 218.28125 204.324219 218.867188 204.890625 C 219.246094 205.261719 219.628906 205.515625 219.90625 205.574219 C 220.398438 205.679688 220.953125 205.726562 221.535156 205.738281 C 222.742188 205.761719 224.066406 205.628906 225.128906 205.632812 C 225.351562 205.632812 226.347656 205.542969 226.511719 205.53125 Z M 249.015625 231.660156 C 248.976562 231.492188 248.996094 231.3125 249.089844 231.148438 C 249.003906 231.300781 248.960938 231.472656 249.015625 231.660156 Z M 249.015625 231.660156 " fill-opacity="1" fill-rule="evenodd"/></g></g></g></g><g clip-path="url(#83ca6a3098)"><g clip-path="url(#fa00facb53)"><g clip-path="url(#69f8415401)"><g clip-path="url(#dc0bc1504b)"><path fill="#000000" d="M 232.390625 208.875 C 232.410156 208.738281 232.5 208.1875 232.5 208.164062 C 232.5 208.164062 232.773438 205.300781 232.773438 205.300781 C 232.886719 204.054688 233.003906 202.8125 233.148438 201.570312 C 233.289062 200.332031 233.453125 199.097656 233.652344 197.867188 C 233.757812 197.203125 234.039062 196.351562 234.148438 195.566406 C 234.203125 195.167969 234.21875 194.785156 234.167969 194.4375 C 234.214844 194.394531 234.332031 194.289062 234.414062 194.230469 C 234.621094 194.085938 234.832031 193.9375 234.992188 193.765625 C 235.316406 193.414062 235.613281 193.035156 235.894531 192.644531 C 236.300781 192.078125 236.671875 191.480469 237.039062 190.898438 L 241.222656 184.136719 C 241.601562 183.550781 241.960938 182.84375 242.371094 182.21875 C 242.523438 181.984375 242.679688 181.765625 242.851562 181.566406 C 242.992188 181.550781 243.515625 181.488281 243.640625 181.449219 C 244.117188 181.296875 244.800781 181.066406 245.386719 180.757812 C 245.835938 180.523438 246.230469 180.238281 246.472656 179.917969 C 246.636719 179.707031 246.761719 179.445312 246.871094 179.164062 C 247.074219 178.617188 247.191406 177.980469 247.367188 177.507812 C 247.628906 176.800781 247.929688 176.109375 248.257812 175.429688 C 248.585938 174.753906 248.949219 174.089844 249.335938 173.441406 C 249.589844 173.011719 250.289062 172.335938 250.734375 171.703125 C 250.992188 171.332031 251.167969 170.964844 251.1875 170.664062 C 251.195312 170.511719 251.15625 170.347656 251.074219 170.183594 C 250.957031 169.929688 250.746094 169.671875 250.644531 169.488281 L 249.175781 166.839844 C 249.046875 166.617188 248.789062 166.375 248.632812 166.132812 C 248.578125 166.039062 248.523438 165.953125 248.574219 165.863281 C 249.316406 164.625 250.300781 163.425781 251.402344 162.300781 C 253.046875 160.621094 254.941406 159.109375 256.679688 157.886719 C 256.753906 157.832031 256.777344 157.726562 256.722656 157.652344 C 256.667969 157.574219 256.566406 157.554688 256.488281 157.609375 C 254.710938 158.8125 252.765625 160.3125 251.078125 161.976562 C 249.929688 163.113281 248.898438 164.328125 248.117188 165.582031 C 247.980469 165.800781 247.988281 166.023438 248.082031 166.25 C 248.203125 166.550781 248.535156 166.851562 248.683594 167.117188 L 250.105469 169.789062 C 250.1875 169.941406 250.347656 170.152344 250.464844 170.363281 C 250.511719 170.453125 250.558594 170.539062 250.550781 170.621094 C 250.535156 170.832031 250.386719 171.066406 250.203125 171.320312 C 249.738281 171.960938 249.011719 172.644531 248.742188 173.078125 C 248.335938 173.738281 247.953125 174.414062 247.601562 175.105469 C 247.246094 175.796875 246.925781 176.507812 246.644531 177.230469 C 246.460938 177.703125 246.335938 178.335938 246.117188 178.875 C 246.039062 179.078125 245.945312 179.269531 245.824219 179.421875 C 245.640625 179.652344 245.335938 179.847656 245.003906 180.015625 C 244.457031 180.289062 243.828125 180.488281 243.386719 180.617188 C 243.257812 180.65625 242.882812 180.648438 242.65625 180.699219 C 242.460938 180.738281 242.324219 180.828125 242.25 180.90625 C 242.027344 181.148438 241.816406 181.425781 241.621094 181.71875 C 241.195312 182.339844 240.824219 183.039062 240.433594 183.625 L 236.132812 190.3125 C 235.765625 190.871094 235.394531 191.441406 234.992188 191.984375 C 234.730469 192.335938 234.457031 192.671875 234.15625 192.984375 C 233.914062 193.242188 233.515625 193.425781 233.296875 193.664062 C 233.0625 193.921875 232.953125 194.214844 233.003906 194.570312 C 233.042969 194.820312 233.019531 195.101562 232.972656 195.390625 C 232.855469 196.171875 232.5625 197.003906 232.441406 197.664062 C 232.21875 198.90625 232.03125 200.15625 231.867188 201.410156 C 231.699219 202.660156 231.558594 203.914062 231.421875 205.164062 L 231.105469 207.984375 C 231.101562 208.015625 230.992188 208.558594 230.96875 208.777344 C 230.917969 209.304688 231.316406 209.542969 231.394531 209.578125 C 231.753906 209.734375 232.175781 209.570312 232.332031 209.210938 C 232.382812 209.101562 232.398438 208.984375 232.390625 208.875 Z M 232.390625 208.875 " fill-opacity="1" fill-rule="evenodd"/></g></g></g></g><g clip-path="url(#34ba31bd9d)"><g clip-path="url(#b9593e7ef9)"><g clip-path="url(#dd97bf7b57)"><g clip-path="url(#0192c93ad3)"><path fill="#000000" d="M 249.121094 187.421875 C 249.167969 187.46875 249.214844 187.523438 249.265625 187.582031 C 249.46875 187.824219 249.664062 188.105469 249.824219 188.273438 L 252.410156 191.070312 C 252.605469 191.289062 252.929688 191.769531 253.261719 192.089844 C 253.492188 192.3125 253.734375 192.464844 253.949219 192.511719 C 254.097656 192.546875 254.292969 192.53125 254.511719 192.445312 C 254.878906 192.296875 255.371094 191.910156 255.570312 191.800781 L 258.105469 190.363281 C 258.273438 190.257812 258.527344 190.03125 258.78125 189.859375 C 258.882812 189.789062 258.972656 189.710938 259.0625 189.710938 C 259.230469 189.707031 259.414062 189.734375 259.597656 189.777344 C 260.089844 189.886719 260.609375 190.085938 261.035156 190.183594 L 264.9375 191.027344 C 266.917969 191.4375 268.898438 191.796875 270.890625 192.101562 C 272.878906 192.410156 274.875 192.664062 276.890625 192.863281 C 276.980469 192.871094 277.0625 192.804688 277.074219 192.710938 C 277.085938 192.621094 277.019531 192.535156 276.925781 192.527344 C 274.925781 192.277344 272.945312 191.976562 270.972656 191.621094 C 269 191.265625 267.035156 190.859375 265.074219 190.402344 L 261.207031 189.464844 C 260.785156 189.359375 260.269531 189.144531 259.777344 189.019531 C 259.527344 188.957031 259.277344 188.917969 259.050781 188.917969 C 258.878906 188.917969 258.675781 188.984375 258.46875 189.101562 C 258.179688 189.269531 257.875 189.539062 257.679688 189.65625 L 255.144531 191.007812 C 254.964844 191.105469 254.238281 191.523438 254.125 191.585938 C 254.023438 191.542969 253.929688 191.421875 253.824219 191.300781 C 253.558594 190.992188 253.308594 190.613281 253.152344 190.425781 C 252.738281 189.9375 252.316406 189.453125 251.894531 188.96875 C 251.46875 188.488281 251.042969 188.007812 250.609375 187.535156 C 250.4375 187.347656 250.230469 187.011719 250.007812 186.757812 C 249.851562 186.582031 249.691406 186.445312 249.535156 186.359375 C 249.390625 186.28125 249.1875 186.246094 248.957031 186.292969 C 248.667969 186.347656 248.261719 186.585938 248.109375 186.648438 L 245.777344 187.542969 C 244.957031 187.832031 244.132812 188.058594 243.304688 188.25 C 241.304688 188.71875 239.296875 188.980469 237.265625 189.421875 C 236.882812 189.511719 236.644531 189.894531 236.730469 190.277344 C 236.820312 190.660156 237.203125 190.898438 237.582031 190.808594 C 239.609375 190.316406 241.617188 190 243.609375 189.484375 C 244.472656 189.257812 245.335938 189 246.191406 188.671875 L 248.550781 187.699219 C 248.640625 187.660156 248.972656 187.496094 249.121094 187.421875 Z M 249.121094 187.421875 " fill-opacity="1" fill-rule="evenodd"/></g></g></g></g><g clip-path="url(#f6583eb67f)"><g clip-path="url(#f19c0a26f4)"><g clip-path="url(#26314a72a2)"><g clip-path="url(#0fee5b0591)"><path fill="#000000" d="M 224.046875 218.398438 C 224.070312 218.425781 224.09375 218.457031 224.105469 218.480469 C 224.226562 218.667969 224.328125 218.859375 224.378906 218.941406 C 224.664062 219.371094 225.136719 220.550781 225.667969 221.347656 C 226.03125 221.898438 226.464844 222.257812 226.851562 222.332031 C 227.105469 222.382812 227.410156 222.3125 227.71875 222.15625 C 228.128906 221.941406 228.5625 221.542969 228.8125 221.375 C 229.425781 220.960938 230.324219 220.246094 231.226562 219.703125 C 231.773438 219.371094 232.316406 219.101562 232.785156 219.058594 C 233.105469 219.027344 233.46875 219.09375 233.824219 219.191406 C 234.226562 219.300781 234.617188 219.457031 234.941406 219.597656 C 235.109375 219.671875 235.601562 220.0625 235.863281 220.171875 C 236.042969 220.246094 236.199219 220.25 236.3125 220.242188 C 236.703125 220.199219 236.984375 219.847656 236.941406 219.457031 C 236.90625 219.132812 236.65625 218.882812 236.351562 218.832031 C 236.214844 218.75 235.617188 218.382812 235.476562 218.324219 C 235.011719 218.140625 234.441406 217.941406 233.871094 217.835938 C 233.441406 217.757812 233.015625 217.722656 232.636719 217.773438 C 232.148438 217.839844 231.589844 218.066406 231.027344 218.390625 C 229.980469 219 228.878906 219.941406 228.171875 220.460938 C 227.996094 220.589844 227.734375 220.835938 227.457031 221.046875 C 227.355469 221.121094 227.253906 221.191406 227.152344 221.242188 C 227.109375 221.265625 227.070312 221.300781 227.03125 221.296875 C 226.949219 221.285156 226.875 221.210938 226.792969 221.128906 C 226.625 220.957031 226.457031 220.726562 226.296875 220.472656 C 225.820312 219.722656 225.394531 218.789062 225.132812 218.421875 C 225.035156 218.285156 224.777344 217.820312 224.535156 217.597656 C 224.371094 217.445312 224.199219 217.371094 224.054688 217.367188 C 223.957031 217.363281 223.796875 217.390625 223.636719 217.535156 C 223.417969 217.738281 223.023438 218.355469 222.9375 218.453125 C 222.738281 218.675781 222.53125 218.890625 222.320312 219.101562 C 221.816406 219.609375 221.28125 220.09375 220.78125 220.609375 C 220.65625 220.738281 220.191406 221.292969 220.191406 221.292969 C 220.191406 221.292969 220.207031 221.289062 220.210938 221.289062 C 220.050781 221.320312 219.820312 221.144531 219.566406 220.964844 C 219.089844 220.632812 218.605469 220.183594 218.394531 220.039062 C 217.589844 219.46875 216.765625 218.925781 215.933594 218.390625 C 214.691406 217.59375 213.433594 216.824219 212.183594 216.039062 C 212.105469 215.988281 212 216.011719 211.949219 216.089844 C 211.898438 216.164062 211.917969 216.269531 211.996094 216.320312 C 213.21875 217.148438 214.445312 217.964844 215.660156 218.800781 C 216.464844 219.359375 217.261719 219.925781 218.046875 220.519531 C 218.28125 220.699219 218.875 221.289062 219.398438 221.644531 C 219.746094 221.878906 220.085938 222 220.316406 221.964844 C 220.425781 221.949219 220.550781 221.890625 220.675781 221.789062 C 220.90625 221.609375 221.160156 221.246094 221.292969 221.121094 C 221.808594 220.625 222.351562 220.164062 222.875 219.675781 C 223.105469 219.460938 223.332031 219.242188 223.550781 219.015625 C 223.601562 218.957031 223.871094 218.621094 224.046875 218.398438 Z M 224.046875 218.398438 " fill-opacity="1" fill-rule="evenodd"/></g></g></g></g><g clip-path="url(#a79d114bbf)"><g clip-path="url(#242a1dacbf)"><g clip-path="url(#78dfafbb54)"><g clip-path="url(#006954ecd2)"><path fill="#000000" d="M 208.242188 206.929688 C 207.675781 207.121094 207.125 207.34375 206.578125 207.585938 C 205.976562 207.855469 205.386719 208.148438 204.808594 208.457031 C 203.667969 209.066406 202.5625 209.738281 201.480469 210.441406 C 199.871094 211.492188 198.3125 212.617188 196.734375 213.722656 L 194.824219 215.011719 C 194.628906 215.136719 194.339844 215.242188 194.097656 215.375 C 193.957031 215.453125 193.828125 215.539062 193.730469 215.632812 C 193.609375 215.753906 193.53125 215.945312 193.714844 216.15625 C 193.808594 216.261719 194.125 216.4375 194.300781 216.476562 C 194.679688 216.566406 195.0625 216.648438 195.445312 216.71875 C 195.707031 216.761719 195.96875 216.800781 196.230469 216.828125 C 196.261719 216.832031 196.46875 216.84375 196.65625 216.855469 L 196.40625 217.199219 L 195.175781 219.089844 C 194.324219 220.421875 193.453125 221.757812 192.644531 223.128906 C 192.105469 224.046875 191.59375 224.980469 191.140625 225.9375 C 191.097656 226.019531 191.132812 226.121094 191.21875 226.164062 C 191.300781 226.203125 191.402344 226.167969 191.441406 226.085938 C 191.917969 225.148438 192.445312 224.238281 193.003906 223.34375 C 193.839844 222 194.738281 220.6875 195.625 219.386719 L 196.894531 217.527344 C 196.980469 217.40625 197.230469 217.152344 197.347656 216.941406 C 197.410156 216.832031 197.441406 216.726562 197.445312 216.636719 C 197.449219 216.535156 197.390625 216.359375 197.160156 216.285156 C 196.949219 216.21875 196.363281 216.203125 196.304688 216.195312 C 196.054688 216.164062 195.808594 216.121094 195.566406 216.074219 C 195.273438 216.015625 194.984375 215.945312 194.695312 215.871094 C 194.878906 215.792969 195.0625 215.714844 195.199219 215.632812 L 197.179688 214.371094 C 198.769531 213.308594 200.347656 212.230469 201.976562 211.226562 C 203.050781 210.5625 204.144531 209.933594 205.28125 209.367188 C 205.84375 209.082031 206.417969 208.8125 207 208.570312 C 207.578125 208.328125 208.167969 208.113281 208.765625 207.933594 C 208.933594 207.882812 209.503906 207.824219 209.84375 207.714844 C 210.097656 207.628906 210.269531 207.492188 210.355469 207.375 C 210.488281 207.195312 210.582031 206.863281 210.242188 206.5625 C 210.132812 206.464844 209.765625 206.296875 209.734375 206.28125 L 209.316406 206.097656 C 209.371094 206.066406 209.410156 206.046875 209.425781 206.039062 L 213.363281 203.539062 L 214.898438 202.632812 L 215.398438 202.375 L 215.535156 202.3125 C 215.675781 202.289062 215.8125 202.226562 215.925781 202.125 C 216.121094 201.929688 216.148438 201.75 216.15625 201.675781 C 216.1875 201.386719 216.082031 201.179688 215.894531 201.027344 C 215.800781 200.957031 215.609375 200.824219 215.300781 200.886719 C 215.214844 200.902344 214.902344 201.042969 214.777344 201.105469 L 214.210938 201.414062 L 212.632812 202.402344 L 208.777344 204.984375 C 208.6875 205.042969 207.96875 205.394531 207.730469 205.601562 C 207.480469 205.816406 207.4375 206.058594 207.445312 206.199219 C 207.457031 206.324219 207.5 206.457031 207.601562 206.578125 C 207.660156 206.648438 207.753906 206.726562 207.875 206.785156 C 207.972656 206.835938 208.101562 206.871094 208.136719 206.886719 Z M 214.785156 201.3125 C 214.824219 201.230469 214.875 201.15625 214.945312 201.089844 C 214.859375 201.167969 214.8125 201.246094 214.785156 201.3125 Z M 214.785156 201.3125 " fill-opacity="1" fill-rule="evenodd"/></g></g></g></g><g clip-path="url(#bb8a964f96)"><g clip-path="url(#95e4c02eeb)"><g clip-path="url(#e0630055ce)"><g clip-path="url(#f034efa87f)"><path fill="#000000" d="M 203.65625 175.894531 C 203.71875 176.039062 203.746094 176.214844 203.765625 176.394531 C 203.816406 176.824219 203.800781 177.285156 203.839844 177.625 C 203.925781 178.414062 204.023438 179.203125 204.125 179.988281 C 204.226562 180.777344 204.335938 181.566406 204.453125 182.351562 C 204.503906 182.6875 204.496094 183.152344 204.558594 183.558594 C 204.589844 183.800781 204.648438 184.027344 204.734375 184.214844 C 204.886719 184.542969 205.136719 184.640625 205.453125 184.597656 C 205.578125 184.578125 205.910156 184.402344 205.976562 184.367188 L 207.480469 184.011719 C 207.507812 184.003906 207.535156 183.996094 207.5625 183.988281 L 207.644531 183.960938 C 208.003906 184.371094 208.308594 184.890625 208.578125 185.445312 C 209.097656 186.507812 209.488281 187.699219 209.824219 188.605469 L 210.296875 190.011719 C 210.3125 190.097656 210.382812 190.398438 210.429688 190.492188 C 210.585938 190.792969 210.839844 190.871094 211.019531 190.890625 C 211.410156 190.925781 211.757812 190.636719 211.792969 190.246094 C 211.804688 190.097656 211.773438 189.953125 211.703125 189.832031 C 211.6875 189.761719 211.664062 189.648438 211.65625 189.632812 C 211.65625 189.632812 211.105469 188.109375 211.105469 188.109375 C 210.730469 187.175781 210.292969 185.953125 209.726562 184.867188 C 209.3125 184.066406 208.828125 183.339844 208.257812 182.824219 C 208.1875 182.761719 207.984375 182.605469 207.667969 182.671875 C 207.539062 182.699219 207.234375 182.820312 207.195312 182.832031 L 205.667969 183.230469 C 205.621094 182.863281 205.605469 182.46875 205.554688 182.171875 C 205.421875 181.398438 205.292969 180.617188 205.171875 179.839844 C 205.050781 179.0625 204.9375 178.28125 204.828125 177.5 C 204.773438 177.101562 204.785156 176.53125 204.6875 176.042969 C 204.632812 175.765625 204.542969 175.507812 204.410156 175.304688 C 204.335938 175.1875 204.210938 175.082031 204.039062 175.019531 C 203.824219 174.945312 203.476562 174.945312 203.328125 174.90625 C 203.152344 174.859375 202.972656 174.800781 202.800781 174.734375 C 202.359375 174.570312 201.925781 174.378906 201.476562 174.238281 C 201.453125 174.230469 201.351562 174.210938 201.230469 174.191406 C 201.320312 174.039062 201.40625 173.902344 201.417969 173.878906 L 202.371094 172.085938 C 202.46875 171.917969 202.644531 171.699219 202.75 171.488281 C 202.824219 171.339844 202.871094 171.195312 202.878906 171.054688 C 202.890625 170.882812 202.824219 170.683594 202.695312 170.492188 C 202.527344 170.246094 202.25 170 202.125 169.84375 C 201.703125 169.300781 201.304688 168.742188 200.878906 168.199219 C 200.695312 167.960938 200.503906 167.730469 200.304688 167.503906 C 200.195312 167.378906 199.9375 167.179688 199.734375 166.972656 C 199.652344 166.894531 199.558594 166.828125 199.554688 166.757812 C 199.550781 166.675781 199.613281 166.589844 199.671875 166.496094 C 199.8125 166.277344 200.003906 166.0625 200.097656 165.925781 C 200.433594 165.4375 200.765625 164.953125 201.085938 164.457031 C 201.304688 164.128906 201.515625 163.792969 201.714844 163.449219 C 201.808594 163.292969 202.101562 162.917969 202.246094 162.59375 C 202.347656 162.363281 202.371094 162.144531 202.300781 161.992188 C 202.226562 161.835938 202.082031 161.683594 201.898438 161.546875 C 201.582031 161.304688 201.132812 161.097656 200.90625 160.953125 L 199.46875 160.074219 L 197.453125 158.828125 C 197.375 158.777344 197.269531 158.800781 197.222656 158.878906 C 197.167969 158.957031 197.191406 159.0625 197.269531 159.109375 L 199.257812 160.410156 L 200.667969 161.324219 C 200.859375 161.449219 201.207031 161.625 201.496094 161.828125 C 201.660156 161.941406 201.804688 162.058594 201.859375 162.1875 C 201.894531 162.269531 201.8125 162.378906 201.742188 162.5 C 201.589844 162.773438 201.355469 163.054688 201.273438 163.183594 C 201.070312 163.515625 200.855469 163.835938 200.636719 164.15625 C 200.304688 164.636719 199.960938 165.109375 199.617188 165.585938 C 199.5 165.75 199.242188 166.023438 199.089844 166.28125 C 198.984375 166.457031 198.929688 166.636719 198.9375 166.789062 C 198.941406 166.941406 199.035156 167.128906 199.183594 167.304688 C 199.378906 167.542969 199.691406 167.78125 199.808594 167.925781 C 199.996094 168.148438 200.171875 168.375 200.34375 168.609375 C 200.753906 169.160156 201.140625 169.730469 201.546875 170.28125 C 201.632812 170.398438 201.808594 170.566406 201.957031 170.746094 C 202.035156 170.839844 202.132812 170.921875 202.125 171.007812 C 202.121094 171.074219 202.078125 171.136719 202.035156 171.203125 C 201.925781 171.378906 201.78125 171.550781 201.695312 171.695312 L 200.695312 173.472656 C 200.664062 173.527344 200.324219 174.003906 200.21875 174.210938 C 200.097656 174.449219 200.171875 174.640625 200.203125 174.699219 C 200.230469 174.75 200.324219 174.871094 200.527344 174.929688 C 200.699219 174.984375 201.136719 175.046875 201.203125 175.070312 C 201.632812 175.21875 202.050781 175.414062 202.472656 175.585938 C 202.671875 175.664062 202.875 175.734375 203.078125 175.796875 C 203.179688 175.828125 203.523438 175.875 203.65625 175.894531 Z M 203.65625 175.894531 " fill-opacity="1" fill-rule="evenodd"/></g></g></g></g><g clip-path="url(#05f81e97f5)"><g clip-path="url(#302444d153)"><g clip-path="url(#d9b51dc578)"><g clip-path="url(#450b7c5849)"><path fill="#000000" d="M 197.90625 184.425781 C 198.105469 184.5 198.300781 184.640625 198.492188 184.796875 C 198.933594 185.152344 199.328125 185.632812 199.597656 185.949219 C 199.722656 186.09375 199.925781 186.410156 200.144531 186.605469 C 200.351562 186.789062 200.589844 186.875 200.808594 186.875 C 200.984375 186.875 201.175781 186.824219 201.371094 186.742188 C 201.640625 186.628906 201.921875 186.429688 202.128906 186.324219 C 202.523438 186.117188 202.925781 185.914062 203.332031 185.71875 C 203.734375 185.523438 204.144531 185.335938 204.554688 185.152344 C 204.625 185.117188 205.210938 184.839844 205.378906 184.761719 C 205.628906 184.757812 205.867188 184.621094 205.992188 184.390625 C 206.179688 184.042969 206.054688 183.613281 205.707031 183.425781 C 205.582031 183.359375 205.359375 183.285156 205.070312 183.367188 C 204.757812 183.457031 204.074219 183.875 203.964844 183.933594 C 203.554688 184.144531 203.148438 184.363281 202.742188 184.589844 C 202.339844 184.8125 201.941406 185.042969 201.542969 185.28125 C 201.402344 185.363281 201.230469 185.496094 201.046875 185.609375 C 200.976562 185.652344 200.914062 185.707031 200.847656 185.730469 C 200.75 185.625 200.480469 185.332031 200.390625 185.238281 C 200.066406 184.898438 199.59375 184.398438 199.085938 184.027344 C 198.675781 183.730469 198.242188 183.519531 197.835938 183.484375 C 197.667969 183.472656 197.488281 183.519531 197.335938 183.683594 C 197.195312 183.835938 197.0625 184.171875 197 184.273438 C 196.867188 184.492188 196.722656 184.703125 196.574219 184.910156 C 196.335938 185.234375 196.089844 185.546875 195.847656 185.863281 C 195.8125 185.910156 195.683594 186.101562 195.617188 186.199219 C 195.542969 186.164062 195.460938 186.105469 195.375 186.042969 C 194.96875 185.746094 194.523438 185.285156 194.269531 185.128906 C 193.625 184.730469 192.941406 184.398438 192.238281 184.132812 C 191.535156 183.863281 190.8125 183.660156 190.078125 183.507812 C 189.988281 183.488281 189.898438 183.542969 189.875 183.632812 C 189.855469 183.726562 189.910156 183.816406 190 183.835938 C 190.707031 184.023438 191.394531 184.261719 192.058594 184.558594 C 192.71875 184.855469 193.351562 185.207031 193.945312 185.621094 C 194.222656 185.816406 194.71875 186.414062 195.140625 186.710938 C 195.328125 186.84375 195.511719 186.917969 195.664062 186.9375 C 195.777344 186.949219 195.917969 186.90625 196.050781 186.792969 C 196.199219 186.671875 196.363281 186.40625 196.425781 186.332031 C 196.691406 186.023438 196.960938 185.722656 197.214844 185.410156 C 197.394531 185.191406 197.5625 184.96875 197.722656 184.738281 C 197.753906 184.695312 197.84375 184.539062 197.90625 184.425781 Z M 197.90625 184.425781 " fill-opacity="1" fill-rule="evenodd"/></g></g></g></g></svg>