<svg xmlns="http://www.w3.org/2000/svg" xmlns:xlink="http://www.w3.org/1999/xlink" width="500" zoomAndPan="magnify" viewBox="0 0 375 374.999991" height="500" preserveAspectRatio="xMidYMid meet" version="1.0"><defs><clipPath id="18a67f5849"><path d="M 38 44 L 320 44 L 320 335.25 L 38 335.25 Z M 38 44 " clip-rule="nonzero"/></clipPath><clipPath id="7e009641d4"><path d="M 50 37.5 L 337.5 37.5 L 337.5 319 L 50 319 Z M 50 37.5 " clip-rule="nonzero"/></clipPath></defs><g clip-path="url(#18a67f5849)"><path fill="#ffe600" d="M 105.542969 44.703125 C 105.542969 44.703125 95.984375 57.421875 95.242188 60.046875 C 94.503906 62.671875 92.683594 75.390625 92.683594 75.390625 C 92.683594 75.390625 85.886719 89.390625 83.933594 92.285156 C 83.933594 92.285156 79.894531 100.226562 79.152344 100.898438 C 78.414062 101.574219 62.929688 112.609375 60.507812 114.695312 C 58.082031 116.785156 55.457031 119.945312 55.457031 119.945312 L 45.429688 135.089844 C 45.429688 135.089844 37.890625 163.492188 38.425781 171.636719 C 38.964844 179.777344 39.371094 194.25 39.371094 194.25 L 41.457031 203.402344 C 41.457031 203.402344 53.4375 236.71875 64.410156 252.601562 C 75.382812 268.484375 77.941406 271.042969 77.941406 271.042969 L 94.703125 286.992188 L 109.246094 298.773438 L 131.054688 312.570312 L 197.632812 335.25 L 250.070312 333.164062 L 262.1875 330.808594 C 262.1875 330.808594 293.085938 319.03125 300.085938 311.625 C 307.089844 304.222656 310.992188 300.722656 310.992188 300.722656 L 316.109375 288.609375 L 319.742188 278.242188 L 316.917969 266.128906 L 309.175781 259.667969 C 309.175781 259.667969 304.800781 254.417969 296.519531 253.476562 C 288.238281 252.535156 255.859375 250.785156 253.4375 250.582031 C 251.011719 250.378906 206.921875 248.96875 188.339844 240.285156 C 169.761719 231.601562 158.050781 220.496094 158.050781 220.496094 L 132.535156 196.203125 L 124.726562 184.222656 L 114.898438 158.78125 L 107.496094 125.9375 C 107.496094 125.9375 106.550781 116.648438 106.351562 114.964844 C 106.148438 113.285156 110.859375 92.148438 110.859375 92.148438 L 113.6875 83.671875 L 114.964844 71.890625 L 118.871094 63.277344 C 118.871094 63.277344 117.792969 61.863281 117.457031 60.046875 C 117.121094 58.230469 116.785156 56.277344 116.785156 56.277344 L 111.0625 47.394531 Z M 105.542969 44.703125 " fill-opacity="1" fill-rule="nonzero"/></g><g clip-path="url(#7e009641d4)"><path fill="#61400c" d="M 117.929688 49.078125 C 117.660156 47.257812 115.910156 45.914062 117.324219 44.769531 C 118.734375 43.625 119.679688 41.066406 119.679688 41.066406 L 117.996094 37.5 C 117.996094 37.5 115.167969 39.921875 113.351562 39.921875 C 112.070312 39.921875 108.4375 40.664062 108.4375 40.664062 L 104.734375 45.777344 C 104.734375 45.777344 107.226562 53.519531 108.976562 55.269531 C 110.65625 57.085938 112.542969 58.769531 113.6875 60.921875 C 114.898438 63.074219 117.660156 65.835938 117.660156 65.835938 L 118.871094 63.140625 L 119.410156 58.769531 C 119.410156 58.769531 118.734375 56.679688 119.207031 55.738281 C 119.34375 55.46875 119.746094 54.929688 119.746094 54.929688 L 119.273438 51.902344 M 316.917969 266.0625 L 314.828125 269.15625 L 315.300781 271.714844 C 315.300781 271.714844 317.050781 278.511719 318.398438 278.3125 L 319.742188 278.109375 C 319.742188 278.109375 320.148438 276.226562 321.359375 274.675781 C 322.570312 273.128906 322.367188 270.90625 322.367188 270.90625 C 322.367188 270.90625 326.273438 270.640625 328.898438 272.386719 C 331.523438 274.136719 334.753906 275.6875 334.753906 275.6875 L 337.109375 277.234375 L 334.148438 270.773438 L 326.542969 265.660156 C 326.542969 265.660156 323.648438 267.476562 322.4375 267.273438 C 321.222656 267.070312 316.917969 266.0625 316.917969 266.0625 Z M 236.136719 312.839844 C 239.164062 312.164062 242.128906 311.425781 245.222656 311.15625 C 247.578125 310.953125 250.003906 310.953125 252.359375 310.820312 C 256.667969 310.480469 260.910156 309.40625 265.082031 308.125 C 279.351562 303.617188 292.75 296.414062 304.328125 286.992188 C 304.933594 288.609375 303.519531 290.222656 302.242188 291.300781 C 292.34375 299.78125 280.566406 306.109375 268.042969 309.675781 C 262.660156 311.222656 257.070312 312.230469 251.550781 313.308594 C 236.203125 316.136719 220.789062 318.894531 205.171875 318.492188 C 192.179688 318.15625 174.003906 315.867188 163.972656 306.714844 C 166.597656 304.695312 176.898438 310.144531 180.464844 311.15625 C 186.320312 312.769531 192.378906 313.980469 198.4375 314.65625 C 211.027344 316.070312 223.816406 315.460938 236.136719 312.839844 Z M 54.449219 198.152344 L 55.660156 202.125 C 56.0625 203.402344 56.46875 204.679688 57.007812 205.824219 C 58.21875 208.382812 60.304688 210.535156 61.316406 213.160156 C 61.921875 214.777344 62.121094 216.527344 62.59375 218.210938 C 64.210938 223.796875 68.789062 228.304688 69.863281 234.09375 C 63.199219 228.707031 62.863281 218.210938 56.601562 212.285156 C 56.0625 211.75 55.457031 211.277344 55.054688 210.738281 C 54.3125 209.796875 54.042969 208.585938 53.777344 207.441406 C 52.226562 200.574219 50.34375 193.238281 50.074219 186.171875 C 52.832031 187.25 53.574219 195.394531 54.449219 198.152344 Z M 103.65625 254.417969 C 103.792969 258.054688 103.992188 261.890625 105.878906 264.984375 C 107.628906 267.945312 110.726562 269.964844 113.621094 271.78125 C 115.101562 272.726562 116.785156 273.734375 118.535156 273.601562 C 119.074219 273.53125 119.679688 273.398438 120.21875 273.53125 C 121.832031 273.9375 121.898438 276.359375 123.113281 277.503906 C 124.1875 278.582031 125.9375 278.378906 127.488281 278.378906 C 131.796875 278.3125 134.960938 280.9375 137.585938 284.300781 C 138.054688 282.28125 144.183594 282.347656 144.183594 282.347656 L 149.566406 280.800781 C 149.566406 280.800781 147.210938 277.636719 145.863281 276.023438 C 145.191406 275.214844 144.855469 274.273438 144.316406 273.398438 C 143.238281 271.78125 141.488281 270.707031 139.875 269.628906 C 133.210938 265.1875 127.554688 259.398438 122.238281 253.410156 C 116.449219 246.949219 111.464844 246.613281 103.386719 245.804688 C 103.253906 248.628906 103.589844 251.59375 103.65625 254.417969 Z M 86.894531 116.648438 C 86.894531 116.648438 82.25 148.078125 81.914062 151.308594 C 81.578125 154.539062 84.40625 169.886719 84.40625 169.886719 L 98.003906 205.960938 C 98.003906 205.960938 124.792969 241.160156 135.160156 250.917969 C 145.527344 260.679688 179.117188 275.484375 183.765625 278.445312 C 188.410156 281.40625 219.84375 284.972656 219.84375 284.972656 L 253.101562 283.15625 C 253.101562 283.15625 252.359375 284.972656 267.371094 281.339844 C 282.382812 277.773438 294.902344 273.128906 294.902344 273.128906 L 298.472656 269.765625 C 298.472656 269.765625 292.007812 270.300781 288.84375 271.714844 C 285.679688 273.128906 273.832031 276.359375 267.371094 276.695312 C 260.910156 277.03125 233.445312 281.675781 227.722656 281.339844 C 222 281.003906 205.238281 278.378906 194.46875 278.378906 C 183.695312 278.378906 164.039062 265.253906 164.039062 265.253906 L 144.789062 253.476562 L 137.988281 247.015625 L 119.746094 227.363281 C 119.746094 227.363281 109.714844 215.585938 106.550781 211.277344 C 103.386719 206.96875 96.183594 194.113281 95.847656 193.039062 C 95.511719 191.960938 87.636719 167.730469 87.636719 167.730469 L 84.808594 156.289062 L 85.550781 140.542969 L 88.308594 121.628906 Z M 86.894531 116.648438 " fill-opacity="1" fill-rule="nonzero"/></g></svg>