<svg xmlns="http://www.w3.org/2000/svg" xmlns:xlink="http://www.w3.org/1999/xlink" width="500" zoomAndPan="magnify" viewBox="0 0 375 374.999991" height="500" preserveAspectRatio="xMidYMid meet" version="1.2"><defs><clipPath id="8804b72e06"><path d="M 37.5 64.019531 L 337.5 64.019531 L 337.5 310.769531 L 37.5 310.769531 Z M 37.5 64.019531 "/></clipPath><clipPath id="dacd523f86"><path d="M 175.785156 137.058594 L 277 137.058594 L 277 238 L 175.785156 238 Z M 175.785156 137.058594 "/></clipPath></defs><g id="61a2576942"><g clip-rule="nonzero" clip-path="url(#8804b72e06)"><path style=" stroke:none;fill-rule:evenodd;fill:#a6a6a6;fill-opacity:1;" d="M 224.71875 110.824219 C 267.046875 110.824219 301.117188 145.238281 301.117188 187.566406 C 301.117188 229.898438 267.046875 263.96875 224.71875 263.96875 C 184.796875 263.96875 152.105469 233.339844 148.320312 194.449219 L 71.917969 194.449219 C 69.167969 200.988281 62.972656 205.464844 55.402344 205.464844 C 45.421875 205.464844 37.503906 197.546875 37.503906 187.566406 C 37.503906 177.589844 45.421875 169.671875 55.402344 169.671875 C 62.972656 169.671875 69.167969 174.148438 71.917969 180.339844 L 148.320312 180.339844 C 152.105469 141.453125 184.796875 110.824219 224.71875 110.824219 Z M 125.261719 134.914062 L 104.957031 134.914062 C 102.203125 128.71875 96.007812 123.902344 88.4375 123.902344 C 78.457031 123.902344 70.542969 132.160156 70.542969 142.140625 C 70.542969 151.777344 78.457031 160.035156 88.4375 160.035156 C 96.007812 160.035156 102.203125 155.5625 104.957031 149.023438 L 133.863281 149.023438 C 135.929688 144.207031 138.339844 139.386719 141.4375 134.914062 C 158.300781 108.070312 188.238281 89.832031 222.652344 88.800781 L 224.71875 88.800781 C 279.09375 88.800781 323.144531 133.195312 323.144531 187.566406 C 323.144531 241.941406 279.09375 285.992188 224.71875 285.992188 L 222.652344 285.992188 C 188.238281 285.304688 158.300781 267.066406 141.4375 239.878906 C 138.339844 235.402344 135.929688 230.929688 133.863281 226.113281 L 104.957031 226.113281 C 102.203125 219.574219 96.007812 215.101562 88.4375 215.101562 C 78.457031 215.101562 70.542969 223.015625 70.542969 232.996094 C 70.542969 242.976562 78.457031 250.890625 88.4375 250.890625 C 96.007812 250.890625 102.203125 246.417969 104.957031 239.878906 L 125.261719 239.878906 C 135.585938 259.492188 151.070312 275.324219 170.34375 285.992188 L 140.746094 285.992188 C 137.996094 279.453125 131.457031 274.980469 123.882812 274.980469 C 114.25 274.980469 105.988281 282.894531 105.988281 292.875 C 105.988281 302.855469 114.25 310.769531 123.882812 310.769531 C 131.457031 310.769531 137.996094 306.296875 140.746094 300.101562 L 224.71875 300.101562 C 286.664062 300.101562 337.253906 249.515625 337.253906 187.566406 C 337.253906 125.277344 286.664062 75.035156 224.71875 75.035156 L 140.746094 75.035156 C 137.996094 68.496094 131.457031 64.019531 123.882812 64.019531 C 114.25 64.019531 105.988281 71.9375 105.988281 81.917969 C 105.988281 91.898438 114.25 99.8125 123.882812 99.8125 C 131.457031 99.8125 137.996094 95.339844 140.746094 88.800781 L 170.34375 88.800781 C 151.070312 99.46875 135.585938 115.640625 125.261719 134.914062 Z M 224.71875 124.933594 C 259.132812 124.933594 287.351562 152.808594 287.351562 187.566406 C 287.351562 221.984375 259.132812 250.203125 224.71875 250.203125 C 189.960938 250.203125 162.085938 221.984375 162.085938 187.566406 C 162.085938 152.808594 189.960938 124.933594 224.71875 124.933594 Z M 224.71875 124.933594 "/></g><g clip-rule="nonzero" clip-path="url(#dacd523f86)"><path style=" stroke:none;fill-rule:nonzero;fill:#737373;fill-opacity:1;" d="M 276.660156 187.496094 C 276.660156 189.148438 276.582031 190.792969 276.417969 192.4375 C 276.257812 194.082031 276.015625 195.714844 275.691406 197.335938 C 275.371094 198.957031 274.96875 200.554688 274.488281 202.136719 C 274.011719 203.71875 273.453125 205.269531 272.824219 206.796875 C 272.191406 208.324219 271.484375 209.8125 270.707031 211.269531 C 269.925781 212.726562 269.078125 214.144531 268.160156 215.515625 C 267.242188 216.890625 266.261719 218.214844 265.214844 219.492188 C 264.164062 220.769531 263.058594 221.992188 261.890625 223.160156 C 260.722656 224.328125 259.5 225.4375 258.222656 226.484375 C 256.945312 227.53125 255.621094 228.515625 254.246094 229.433594 C 252.871094 230.351562 251.457031 231.199219 250 231.976562 C 248.542969 232.753906 247.050781 233.460938 245.527344 234.09375 C 244 234.726562 242.445312 235.28125 240.867188 235.761719 C 239.285156 236.242188 237.683594 236.640625 236.0625 236.964844 C 234.445312 237.285156 232.8125 237.527344 231.167969 237.691406 C 229.523438 237.851562 227.875 237.933594 226.222656 237.933594 C 224.574219 237.933594 222.925781 237.851562 221.28125 237.691406 C 219.636719 237.527344 218.003906 237.285156 216.382812 236.964844 C 214.765625 236.640625 213.164062 236.242188 211.582031 235.761719 C 210.003906 235.28125 208.449219 234.726562 206.921875 234.09375 C 205.398438 233.460938 203.90625 232.753906 202.449219 231.976562 C 200.992188 231.199219 199.578125 230.351562 198.203125 229.433594 C 196.828125 228.515625 195.503906 227.53125 194.226562 226.484375 C 192.949219 225.4375 191.726562 224.328125 190.558594 223.160156 C 189.390625 221.992188 188.285156 220.769531 187.234375 219.492188 C 186.1875 218.214844 185.203125 216.890625 184.285156 215.515625 C 183.371094 214.144531 182.519531 212.726562 181.742188 211.269531 C 180.964844 209.8125 180.257812 208.324219 179.625 206.796875 C 178.992188 205.269531 178.4375 203.71875 177.957031 202.136719 C 177.480469 200.554688 177.078125 198.957031 176.757812 197.335938 C 176.433594 195.714844 176.191406 194.082031 176.03125 192.4375 C 175.867188 190.792969 175.785156 189.148438 175.785156 187.496094 C 175.785156 185.84375 175.867188 184.195312 176.03125 182.550781 C 176.191406 180.90625 176.433594 179.277344 176.757812 177.65625 C 177.078125 176.035156 177.480469 174.433594 177.957031 172.855469 C 178.4375 171.273438 178.992188 169.71875 179.625 168.195312 C 180.257812 166.667969 180.964844 165.175781 181.742188 163.71875 C 182.519531 162.261719 183.371094 160.847656 184.285156 159.472656 C 185.203125 158.101562 186.1875 156.773438 187.234375 155.496094 C 188.285156 154.222656 189.390625 153 190.558594 151.832031 C 191.726562 150.664062 192.949219 149.554688 194.226562 148.507812 C 195.503906 147.457031 196.828125 146.476562 198.203125 145.558594 C 199.578125 144.640625 200.992188 143.792969 202.449219 143.011719 C 203.90625 142.234375 205.398438 141.527344 206.921875 140.898438 C 208.449219 140.265625 210.003906 139.707031 211.582031 139.230469 C 213.164062 138.75 214.765625 138.347656 216.382812 138.027344 C 218.003906 137.703125 219.636719 137.460938 221.28125 137.300781 C 222.925781 137.136719 224.574219 137.058594 226.222656 137.058594 C 227.875 137.058594 229.523438 137.136719 231.167969 137.300781 C 232.8125 137.460938 234.445312 137.703125 236.0625 138.027344 C 237.683594 138.347656 239.285156 138.75 240.867188 139.230469 C 242.445312 139.707031 244 140.265625 245.527344 140.898438 C 247.050781 141.527344 248.542969 142.234375 250 143.011719 C 251.457031 143.792969 252.871094 144.640625 254.246094 145.558594 C 255.621094 146.476562 256.945312 147.457031 258.222656 148.507812 C 259.5 149.554688 260.722656 150.664062 261.890625 151.832031 C 263.058594 153 264.164062 154.222656 265.214844 155.496094 C 266.261719 156.773438 267.242188 158.101562 268.160156 159.472656 C 269.078125 160.847656 269.925781 162.261719 270.707031 163.71875 C 271.484375 165.175781 272.191406 166.667969 272.824219 168.195312 C 273.453125 169.71875 274.011719 171.273438 274.488281 172.855469 C 274.96875 174.433594 275.371094 176.035156 275.691406 177.65625 C 276.015625 179.277344 276.257812 180.90625 276.417969 182.550781 C 276.582031 184.195312 276.660156 185.84375 276.660156 187.496094 Z M 276.660156 187.496094 "/></g></g></svg>