<?xml version="1.0" encoding="UTF-8"?>
<svg version="1.1" xmlns="http://www.w3.org/2000/svg" width="500" height="500">
<path d="M0 0 C4.1667403 2.61391783 9.11476953 6.43716926 10.48461914 11.31079102 C10.61731201 11.92881592 10.75000488 12.54684082 10.88671875 13.18359375 C11.53587974 13.18082837 12.18504072 13.17806299 12.85387325 13.17521381 C28.72404548 13.10866546 44.59416848 13.0591739 60.46444607 13.02815723 C68.139516 13.01275522 75.81449222 12.99179497 83.48950195 12.95727539 C90.18698972 12.92716699 96.88440954 12.90797046 103.58196312 12.90132827 C107.12107236 12.89745188 110.65998739 12.88848519 114.19903374 12.86640358 C128.72715414 12.77927023 142.70039232 12.76168637 156.88671875 16.18359375 C157.85809784 16.40959259 158.82947693 16.63559143 159.83029175 16.86843872 C162.12689879 17.42379037 164.3769973 18.05662802 166.63671875 18.74609375 C167.45615967 18.99584961 168.27560059 19.24560547 169.11987305 19.50292969 C207.12676507 31.68069962 238.27583733 58.9510118 256.859375 94.01904297 C264.32586123 108.54979362 269.33377685 124.05781687 271.88671875 140.18359375 C272.07105469 141.32699219 272.25539063 142.47039062 272.4453125 143.6484375 C274.49530423 160.8230416 274.33856355 180.46579848 269.88671875 197.18359375 C269.60465576 198.31667969 269.60465576 198.31667969 269.31689453 199.47265625 C262.74664668 225.48184741 249.87857653 247.5127503 231.88671875 267.18359375 C231.13777344 268.00472656 230.38882812 268.82585937 229.6171875 269.671875 C219.26288056 280.48722714 207.00904334 289.07594227 193.88671875 296.18359375 C193.24959961 296.53019043 192.61248047 296.87678711 191.95605469 297.23388672 C175.99989049 305.73080357 157.88354288 311.36477663 139.88671875 313.18359375 C138.99162094 313.27551498 138.09652313 313.36743622 137.17430115 313.46214294 C125.89961894 314.42894567 114.62974874 314.27417573 103.32292366 314.22999763 C96.92165099 314.21060939 90.52042239 314.22603735 84.11914062 314.23632812 C76.00558751 314.24911237 67.89252199 314.25088122 59.77905273 314.20776367 C53.18798731 314.17285801 46.59778673 314.17976292 40.00665092 314.21133232 C37.50323667 314.21625495 34.999752 314.20698242 32.49644661 314.18312263 C29.00173901 314.15173062 25.51051828 314.16987324 22.01586914 314.19946289 C20.98769577 314.17848038 19.9595224 314.15749786 18.90019226 314.13587952 C13.39833234 314.23149961 13.39833234 314.23149961 8.77425957 316.94457817 C6.91095692 319.04083621 6.91095692 319.04083621 5.38681698 321.23015499 C2.29640913 325.25450644 -2.21325336 327.17558801 -7.11328125 328.18359375 C-14.05804828 329.00777816 -20.07796225 327.74493075 -26.11328125 324.18359375 C-31.55104361 319.48038841 -35.4668168 313.89043606 -36.4609375 306.65234375 C-36.89856808 298.66278036 -34.7305198 292.43811254 -29.5390625 286.33203125 C-24.65463417 281.70947204 -19.10045892 279.32010197 -12.375 279.08984375 C-5.38628632 279.47649458 0.5789032 280.94800125 5.67578125 285.93359375 C7.709182 288.24646664 9.50692762 290.42401149 10.88671875 293.18359375 C22.43671875 293.18359375 33.98671875 293.18359375 45.88671875 293.18359375 C43.49421875 291.59546875 41.10171875 290.00734375 38.63671875 288.37109375 C18.43375036 274.68547856 0.83182434 256.07380494 -10.11328125 234.18359375 C-19.02328125 233.85359375 -27.93328125 233.52359375 -37.11328125 233.18359375 C-37.77328125 234.83359375 -38.43328125 236.48359375 -39.11328125 238.18359375 C-43.99572226 243.90302465 -49.82930772 247.53468472 -57.33984375 248.45703125 C-65.07566679 248.78460682 -71.16938333 246.68747 -77.00390625 241.50390625 C-82.76377916 235.21278293 -83.59388574 228.70530738 -83.4140625 220.3671875 C-82.65718614 212.35609356 -78.45256295 207.85672578 -72.4140625 202.81640625 C-67.3624214 199.23137063 -62.16372002 198.6620042 -56.11328125 199.18359375 C-49.1355641 200.57156642 -43.74386923 203.74237526 -39.11328125 209.18359375 C-38.45328125 210.83359375 -37.79328125 212.48359375 -37.11328125 214.18359375 C-24.24328125 214.18359375 -11.37328125 214.18359375 1.88671875 214.18359375 C3.28921875 216.82359375 4.69171875 219.46359375 6.13671875 222.18359375 C23.00441431 253.03576278 49.71256747 277.02508513 83.57421875 287.49609375 C119.02342852 297.84415276 155.37896011 293.73375207 187.76171875 276.05859375 C217.2268879 259.39538772 238.39274186 231.78394251 248.00390625 199.421875 C257.328995 165.59491703 252.9634967 128.78793194 235.6730957 98.15966797 C216.95721811 66.6324998 188.17587982 45.64094818 152.88671875 36.18359375 C119.78528552 28.29581346 83.96244729 34.04749211 54.87109375 51.61328125 C48.86992756 55.4078825 43.31341154 59.61223399 37.88671875 64.18359375 C36.94441406 64.9621875 36.00210938 65.74078125 35.03125 66.54296875 C20.33744994 79.22647458 11.0916485 95.30788921 1.88671875 112.18359375 C-10.98328125 112.18359375 -23.85328125 112.18359375 -37.11328125 112.18359375 C-37.77328125 113.83359375 -38.43328125 115.48359375 -39.11328125 117.18359375 C-43.15601641 121.91936922 -48.72193537 126.40888516 -55.11328125 127.18359375 C-62.47649985 127.68279501 -68.52981711 126.38253765 -74.86328125 122.49609375 C-81.51997802 115.65448874 -83.55422308 109.04266991 -83.44921875 99.61328125 C-82.84520618 93.44673434 -80.63647859 88.63048471 -76.17578125 84.3046875 C-69.21138038 78.83077394 -62.91329885 77.20715344 -54.11328125 78.18359375 C-46.60126394 80.32162945 -41.39076746 84.654799 -37.11328125 91.18359375 C-37.11328125 91.84359375 -37.11328125 92.50359375 -37.11328125 93.18359375 C-28.20328125 93.18359375 -19.29328125 93.18359375 -10.11328125 93.18359375 C-9.45328125 91.53359375 -8.79328125 89.88359375 -8.11328125 88.18359375 C-6.79928453 85.9334091 -5.4654836 83.74286519 -4.05078125 81.55859375 C-3.65665039 80.94757813 -3.26251953 80.3365625 -2.85644531 79.70703125 C0.98705975 73.85490617 5.34213317 68.50495526 9.88671875 63.18359375 C10.74179402 62.10097744 11.5961352 61.0177802 12.44921875 59.93359375 C15.65374039 56.318236 19.19435283 53.28909356 22.88671875 50.18359375 C23.8096875 49.384375 24.73265625 48.58515625 25.68359375 47.76171875 C26.67875 46.9109375 27.67390625 46.06015625 28.69921875 45.18359375 C29.61316406 44.39984375 30.52710938 43.61609375 31.46875 42.80859375 C35.97200718 39.17229708 40.97374565 36.22618456 45.88671875 33.18359375 C40.97555775 33.03511679 36.06570589 32.92632295 31.15283203 32.85400391 C29.48235314 32.82385554 27.81203225 32.78292823 26.14208984 32.73095703 C23.7388617 32.65804529 21.33772711 32.62412187 18.93359375 32.59765625 C18.18865662 32.56668854 17.44371948 32.53572083 16.6762085 32.5038147 C14.27989163 32.43743449 14.27989163 32.43743449 10.88671875 33.18359375 C8.45296042 36.00309743 8.45296042 36.00309743 6.88671875 39.18359375 C4.6328125 41.046875 4.6328125 41.046875 2.32421875 42.49609375 C1.55980469 42.98722656 0.79539062 43.47835937 0.0078125 43.984375 C-6.21103725 47.50037292 -14.80864625 47.30536677 -21.6015625 45.53515625 C-27.85739991 42.69269809 -31.57809834 37.7934047 -34.98828125 31.99609375 C-36.96559513 25.29519671 -37.43722823 18.20968726 -34.42578125 11.74609375 C-27.22518374 -0.45702413 -13.25323407 -5.80697258 0 0 Z " fill="#10D0D6" transform="translate(177.11328125,86.81640625)"/>
<path d="M0 0 C19.39568677 17.70936623 32.24342821 42.62517468 33.54296875 69.05615234 C34.63866603 99.45079481 25.93571815 125.1430086 5.421875 147.59326172 C4.75414062 148.34349609 4.08640625 149.09373047 3.3984375 149.86669922 C-13.30086027 167.69337574 -38.93974366 178.09402393 -63.05859375 178.92919922 C-76.12384688 179.1045071 -88.13265487 178.72459151 -100.578125 174.59326172 C-101.2160498 174.38427246 -101.85397461 174.1752832 -102.51123047 173.95996094 C-128.97684175 165.05807354 -149.87788625 144.96897015 -162.265625 120.22216797 C-167.11215919 109.54767642 -170.72789824 98.39098795 -170.578125 86.59326172 C-183.80840034 86.58496694 -197.03819095 86.60870269 -210.26832199 86.67354012 C-216.41140642 86.70263481 -222.55410803 86.72061863 -228.69726562 86.71337891 C-234.62383227 86.70680041 -240.54964144 86.72918725 -246.47605133 86.77181625 C-248.73908035 86.78297375 -251.00218594 86.78362398 -253.26522064 86.77368546 C-256.431239 86.76156134 -259.59492808 86.78650688 -262.76074219 86.8203125 C-263.70013641 86.80809158 -264.63953064 86.79587067 -265.60739136 86.78327942 C-268.07684468 86.83091674 -270.20095329 86.9216477 -272.578125 87.59326172 C-275.13425063 90.38951324 -275.13425063 90.38951324 -276.578125 93.59326172 C-278.83203125 95.45654297 -278.83203125 95.45654297 -281.140625 96.90576172 C-281.90503906 97.39689453 -282.66945313 97.88802734 -283.45703125 98.39404297 C-289.44873197 101.78161594 -297.40148391 101.66647391 -303.96484375 99.97998047 C-310.0390827 97.27103697 -314.78029967 92.16494137 -317.75 86.26513672 C-319.75656904 79.79111207 -319.8542577 71.42048595 -317.078125 65.15576172 C-313.90039127 59.91588164 -309.21964809 55.97405788 -303.828125 53.15576172 C-295.46189474 51.70776033 -288.60413816 51.92059541 -280.9296875 55.71826172 C-278.54914989 57.61636479 -277.62858063 59.10120503 -276.05319214 61.65368652 C-274.28214055 64.03265057 -273.2508238 65.36549719 -270.4202919 66.3238678 C-267.79147595 66.57756909 -265.26544045 66.58374323 -262.62548828 66.50146484 C-261.6395015 66.50263306 -260.65351471 66.50380127 -259.63764954 66.50500488 C-256.38979517 66.49944638 -253.14564734 66.437298 -249.8984375 66.37451172 C-247.64258836 66.3595853 -245.38671323 66.34820017 -243.13082886 66.34020996 C-237.2019452 66.30970819 -231.27463697 66.23115941 -225.34637451 66.14257812 C-219.29363314 66.06064592 -213.24063643 66.02418256 -207.1875 65.98388672 C-195.31701727 65.89816546 -183.44770229 65.76168004 -171.578125 65.59326172 C-171.38694092 64.52019775 -171.19575684 63.44713379 -170.9987793 62.34155273 C-170.73769511 60.90588306 -170.4763704 59.47025711 -170.21484375 58.03466797 C-170.02770813 56.97874451 -170.02770813 56.97874451 -169.83679199 55.90148926 C-166.86379875 39.70170974 -159.41504737 24.0143952 -148.578125 11.59326172 C-147.8665625 10.76181641 -147.155 9.93037109 -146.421875 9.07373047 C-130.22641067 -9.4234865 -108.93366168 -21.53340229 -84.578125 -25.40673828 C-83.36769531 -25.60203125 -83.36769531 -25.60203125 -82.1328125 -25.80126953 C-52.080762 -29.84052363 -22.39420338 -19.96215963 0 0 Z M-133.390625 23.59326172 C-149.15292627 42.56923606 -153.37408646 64.46213858 -151.578125 88.59326172 C-149.34750923 105.25087723 -141.78687247 120.16857517 -130.578125 132.59326172 C-129.97613281 133.27646484 -129.37414062 133.95966797 -128.75390625 134.66357422 C-114.46738604 149.93847004 -94.48551621 158.70698718 -73.703125 159.79638672 C-50.96647952 160.2272961 -29.5378277 153.62809549 -12.80541992 137.77563477 C-11.38419805 136.39387171 -9.98075215 134.99389651 -8.578125 133.59326172 C-7.464375 132.49691406 -7.464375 132.49691406 -6.328125 131.37841797 C8.15588131 116.18718478 15.0380545 95.10161316 14.671875 74.36669922 C13.24195521 52.78384739 5.61911756 34.19576408 -9.578125 18.59326172 C-10.7846875 17.29388672 -10.7846875 17.29388672 -12.015625 15.96826172 C-12.86125 15.18451172 -13.706875 14.40076172 -14.578125 13.59326172 C-15.21363281 13.00158203 -15.84914063 12.40990234 -16.50390625 11.80029297 C-26.90495214 2.76274553 -40.06590686 -2.96282439 -53.578125 -5.40673828 C-54.50367188 -5.58849609 -55.42921875 -5.77025391 -56.3828125 -5.95751953 C-86.38850283 -10.17592343 -113.28277058 1.73494675 -133.390625 23.59326172 Z " fill="#10D0D6" transform="translate(368.578125,173.40673828125)"/>
<path d="M0 0 C0.63679688 0.32742187 1.27359375 0.65484375 1.9296875 0.9921875 C7.64794262 4.47396951 10.92281412 10.19169473 14 16 C14 16.66 14 17.32 14 18 C14.66 18 15.32 18 16 18 C16.103125 17.26652344 16.20625 16.53304687 16.3125 15.77734375 C18.14754078 8.36419605 24.52016055 2.97715889 30.82421875 -0.84765625 C38.15586863 -4.73066651 46.72549377 -5.31862656 54.75 -3.3125 C63.7527187 -0.01882243 69.72136936 5.45841136 74 14 C78.32768649 23.61128766 77.92243452 32.13997057 74.3046875 41.9453125 C67.2682621 58.41981748 54.8446033 71.40042767 42.375 83.9375 C41.51696777 84.80109131 40.65893555 85.66468262 39.77490234 86.55444336 C33.82042031 92.44258809 27.55959279 97.79955079 21 103 C20.15099121 103.76562256 19.30198242 104.53124512 18.42724609 105.32006836 C16 107 16 107 13.87475586 106.89379883 C10.68919553 105.3750677 8.18160712 103.00928547 5.5625 100.6875 C4.95140381 100.15423096 4.34030762 99.62096191 3.71069336 99.0715332 C-2.63786738 93.50194699 -8.85736702 87.79525649 -15 82 C-16.01513672 81.04867187 -16.01513672 81.04867187 -17.05078125 80.078125 C-30.62797027 66.96911491 -46.59505841 47.8240179 -47.375 28.25 C-47.1280498 17.8261022 -43.57619431 10.57156494 -36.37890625 3.1015625 C-25.98144776 -6.08371282 -11.92306955 -6.27311325 0 0 Z " fill="#90A1D4" transform="translate(287,203)"/>
</svg>
