<svg xmlns="http://www.w3.org/2000/svg" xmlns:xlink="http://www.w3.org/1999/xlink" width="500" zoomAndPan="magnify" viewBox="0 0 375 374.999991" height="500" preserveAspectRatio="xMidYMid meet" version="1.0"><defs><clipPath id="ad2772f886"><path d="M 42 62 L 306 62 L 306 312 L 42 312 Z M 42 62 " clip-rule="nonzero"/></clipPath><clipPath id="937717025f"><path d="M -15.808594 248.046875 L 126.953125 -15.808594 L 390.808594 126.953125 L 248.046875 390.808594 Z M -15.808594 248.046875 " clip-rule="nonzero"/></clipPath><clipPath id="d7471a72d2"><path d="M -15.808594 248.046875 L 126.953125 -15.808594 L 390.808594 126.953125 L 248.046875 390.808594 Z M -15.808594 248.046875 " clip-rule="nonzero"/></clipPath><clipPath id="ce08128b74"><path d="M -15.808594 248.046875 L 126.953125 -15.808594 L 390.808594 126.953125 L 248.046875 390.808594 Z M -15.808594 248.046875 " clip-rule="nonzero"/></clipPath><clipPath id="7bd44aa6b7"><path d="M 54 73 L 289 73 L 289 295 L 54 295 Z M 54 73 " clip-rule="nonzero"/></clipPath><clipPath id="a7f2db082e"><path d="M -15.808594 248.046875 L 126.953125 -15.808594 L 390.808594 126.953125 L 248.046875 390.808594 Z M -15.808594 248.046875 " clip-rule="nonzero"/></clipPath><clipPath id="a87fa2aad5"><path d="M -15.808594 248.046875 L 126.953125 -15.808594 L 390.808594 126.953125 L 248.046875 390.808594 Z M -15.808594 248.046875 " clip-rule="nonzero"/></clipPath><clipPath id="e483d50520"><path d="M -15.808594 248.046875 L 126.953125 -15.808594 L 390.808594 126.953125 L 248.046875 390.808594 Z M -15.808594 248.046875 " clip-rule="nonzero"/></clipPath><clipPath id="810e68c6e6"><path d="M 67 84 L 273 84 L 273 279 L 67 279 Z M 67 84 " clip-rule="nonzero"/></clipPath><clipPath id="082e52f1d7"><path d="M -15.808594 248.046875 L 126.953125 -15.808594 L 390.808594 126.953125 L 248.046875 390.808594 Z M -15.808594 248.046875 " clip-rule="nonzero"/></clipPath><clipPath id="6795be2542"><path d="M -15.808594 248.046875 L 126.953125 -15.808594 L 390.808594 126.953125 L 248.046875 390.808594 Z M -15.808594 248.046875 " clip-rule="nonzero"/></clipPath><clipPath id="0a4cb474e4"><path d="M -15.808594 248.046875 L 126.953125 -15.808594 L 390.808594 126.953125 L 248.046875 390.808594 Z M -15.808594 248.046875 " clip-rule="nonzero"/></clipPath><clipPath id="d517002beb"><path d="M 119 132 L 262 132 L 262 242 L 119 242 Z M 119 132 " clip-rule="nonzero"/></clipPath><clipPath id="53481964a3"><path d="M -15.808594 248.046875 L 126.953125 -15.808594 L 390.808594 126.953125 L 248.046875 390.808594 Z M -15.808594 248.046875 " clip-rule="nonzero"/></clipPath><clipPath id="659046972c"><path d="M -15.808594 248.046875 L 126.953125 -15.808594 L 390.808594 126.953125 L 248.046875 390.808594 Z M -15.808594 248.046875 " clip-rule="nonzero"/></clipPath><clipPath id="42d1eca4c7"><path d="M -15.808594 248.046875 L 126.953125 -15.808594 L 390.808594 126.953125 L 248.046875 390.808594 Z M -15.808594 248.046875 " clip-rule="nonzero"/></clipPath></defs><g clip-path="url(#ad2772f886)"><g clip-path="url(#937717025f)"><g clip-path="url(#d7471a72d2)"><g clip-path="url(#ce08128b74)"><path fill="#5c913b" d="M 42.164062 255.992188 C 54.003906 271.339844 69.058594 284.492188 87.105469 294.253906 C 157.941406 332.582031 247.324219 304.582031 286.746094 231.722656 C 317.464844 174.949219 308.632812 107.789062 269.789062 62.726562 Z M 42.164062 255.992188 " fill-opacity="1" fill-rule="nonzero"/></g></g></g></g><g clip-path="url(#7bd44aa6b7)"><g clip-path="url(#a7f2db082e)"><g clip-path="url(#a87fa2aad5)"><g clip-path="url(#e483d50520)"><path fill="#ffe8b6" d="M 54.839844 245.226562 C 65.398438 259.019531 78.859375 270.84375 95.035156 279.59375 C 158 313.664062 237.460938 288.777344 272.5 224.011719 C 299.875 173.410156 291.914062 113.523438 257.140625 73.457031 Z M 54.839844 245.226562 " fill-opacity="1" fill-rule="nonzero"/></g></g></g></g><g clip-path="url(#810e68c6e6)"><g clip-path="url(#082e52f1d7)"><g clip-path="url(#6795be2542)"><g clip-path="url(#0a4cb474e4)"><path fill="#dd2e44" d="M 67.515625 234.472656 C 76.796875 246.703125 88.660156 257.195312 102.964844 264.9375 C 158.066406 294.75 227.582031 272.972656 258.242188 216.300781 C 282.28125 171.871094 275.191406 119.257812 244.484375 84.207031 Z M 67.515625 234.472656 " fill-opacity="1" fill-rule="nonzero"/></g></g></g></g><g clip-path="url(#d517002beb)"><g clip-path="url(#53481964a3)"><g clip-path="url(#659046972c)"><g clip-path="url(#42d1eca4c7)"><path fill="#000000" d="M 128.15625 231.988281 C 130.308594 236.0625 130.40625 240.226562 128.371094 241.304688 C 126.339844 242.382812 122.949219 239.960938 120.796875 235.886719 C 118.640625 231.8125 118.546875 227.648438 120.578125 226.570312 C 122.613281 225.492188 126 227.914062 128.15625 231.988281 Z M 159.277344 191.976562 C 161.433594 196.050781 161.527344 200.214844 159.496094 201.292969 C 157.460938 202.371094 154.074219 199.953125 151.917969 195.878906 C 149.765625 191.804688 149.667969 187.636719 151.699219 186.558594 C 153.734375 185.480469 157.125 187.902344 159.277344 191.976562 Z M 213.71875 173.277344 C 217.953125 175.097656 220.640625 178.277344 219.738281 180.382812 C 218.828125 182.496094 214.671875 182.738281 210.433594 180.921875 C 206.195312 179.109375 203.511719 175.925781 204.421875 173.820312 C 205.324219 171.703125 209.472656 171.457031 213.71875 173.277344 Z M 163.367188 231.3125 C 167.605469 233.128906 170.292969 236.308594 169.390625 238.414062 C 168.480469 240.53125 164.324219 240.773438 160.085938 238.953125 C 155.851562 237.136719 153.164062 233.957031 154.074219 231.855469 C 154.976562 229.730469 159.125 229.488281 163.367188 231.3125 Z M 218.019531 223.921875 C 219.933594 228.109375 219.789062 232.265625 217.699219 233.21875 C 215.605469 234.183594 212.363281 231.554688 210.457031 227.359375 C 208.542969 223.171875 208.695312 219.007812 210.777344 218.058594 C 212.871094 217.097656 216.109375 219.710938 218.019531 223.921875 Z M 253.214844 166.820312 C 257.824219 166.730469 261.578125 168.511719 261.625 170.804688 C 261.675781 173.113281 257.976562 175.042969 253.367188 175.136719 C 248.769531 175.234375 245.007812 173.449219 244.960938 171.148438 C 244.90625 168.835938 248.59375 166.90625 253.214844 166.820312 Z M 188.539062 198.3125 C 193.132812 197.929688 196.996094 199.460938 197.183594 201.75 C 197.382812 204.046875 193.824219 206.214844 189.234375 206.601562 C 184.648438 206.992188 180.78125 205.449219 180.59375 203.167969 C 180.382812 200.863281 183.933594 198.695312 188.539062 198.3125 Z M 235.6875 138.730469 C 237.601562 142.917969 237.453125 147.078125 235.363281 148.039062 C 233.269531 149 230.027344 146.375 228.121094 142.175781 C 226.199219 137.984375 226.351562 133.832031 228.441406 132.878906 C 230.539062 131.90625 233.777344 134.523438 235.6875 138.730469 Z M 235.6875 138.730469 " fill-opacity="1" fill-rule="nonzero"/></g></g></g></g></svg>