<svg xmlns="http://www.w3.org/2000/svg" xmlns:xlink="http://www.w3.org/1999/xlink" width="500" zoomAndPan="magnify" viewBox="0 0 375 374.999991" height="500" preserveAspectRatio="xMidYMid meet" version="1.2"><defs><clipPath id="db7a3683c4"><path d="M 27.527344 101 L 154 101 L 154 283 L 27.527344 283 Z M 27.527344 101 "/></clipPath><clipPath id="30ff510b44"><path d="M 164 90.761719 L 338 90.761719 L 338 284.261719 L 164 284.261719 Z M 164 90.761719 "/></clipPath></defs><g id="e7c6086941"><g clip-rule="nonzero" clip-path="url(#db7a3683c4)"><path style=" stroke:none;fill-rule:evenodd;fill:#ffffff;fill-opacity:1;" d="M 53.242188 113.71875 L 141.527344 113.71875 L 141.527344 219.488281 C 141.527344 247.371094 118.660156 270.238281 90.777344 270.238281 C 62.894531 270.238281 40.027344 247.371094 40.027344 219.488281 L 27.5625 219.488281 C 27.5625 254.28125 56.019531 282.703125 90.777344 282.703125 C 125.570312 282.703125 153.996094 254.246094 153.996094 219.488281 L 153.996094 101.25 L 40.773438 101.25 L 40.773438 138.992188 L 53.242188 138.992188 Z M 53.242188 113.71875 "/></g><path style=" stroke:none;fill-rule:evenodd;fill:#ebc52e;fill-opacity:1;" d="M 120.050781 126.1875 L 63.878906 126.1875 L 63.878906 138.652344 L 116.59375 138.652344 L 116.59375 219.488281 C 116.59375 233.613281 104.90625 245.304688 90.777344 245.304688 C 76.652344 245.304688 64.960938 233.613281 64.960938 219.488281 L 52.496094 219.488281 C 52.496094 240.492188 69.773438 257.769531 90.777344 257.769531 C 111.78125 257.769531 129.0625 240.492188 129.0625 219.488281 L 129.0625 126.1875 Z M 120.050781 126.1875 "/><g clip-rule="nonzero" clip-path="url(#30ff510b44)"><path style=" stroke:none;fill-rule:nonzero;fill:#ebc52e;fill-opacity:1;" d="M 326.324219 200.363281 L 286.574219 269.523438 C 287.035156 270.671875 287.265625 271.820312 287.265625 272.96875 C 287.265625 278.023438 283.128906 281.929688 278.304688 281.929688 C 275.546875 281.929688 273.019531 280.78125 271.410156 278.714844 L 193.519531 278.714844 C 190.992188 282.160156 186.855469 284.226562 182.261719 284.226562 C 174.449219 284.226562 168.246094 278.023438 168.246094 270.210938 C 168.246094 266.304688 169.851562 262.628906 172.609375 260.101562 L 172.609375 195.308594 C 168.703125 193.699219 166.175781 190.023438 166.175781 185.425781 C 166.175781 181.0625 168.933594 177.15625 172.609375 175.546875 L 172.609375 117.875 C 168.015625 115.578125 164.796875 110.753906 164.796875 105.007812 C 164.796875 97.195312 171.230469 90.761719 179.042969 90.761719 C 184.097656 90.761719 188.464844 93.289062 190.992188 97.195312 L 269.574219 97.195312 C 271.640625 94.898438 274.398438 93.519531 277.84375 93.519531 C 283.816406 93.519531 288.644531 98.34375 288.644531 104.320312 C 288.644531 106.15625 288.183594 107.765625 287.496094 109.375 L 324.488281 172.332031 C 331.609375 173.019531 337.125 179.222656 337.125 186.578125 C 337.125 193.238281 332.527344 198.753906 326.324219 200.363281 Z M 228.675781 181.980469 C 229.132812 181.980469 229.824219 181.980469 230.28125 182.210938 L 248.894531 150.042969 C 248.203125 148.894531 247.515625 147.515625 247.515625 145.90625 L 239.011719 141.3125 L 217.414062 159.003906 C 217.414062 159.234375 217.414062 159.464844 217.414062 159.464844 C 217.414062 160.84375 217.183594 161.992188 216.496094 163.140625 L 227.753906 181.980469 C 227.984375 181.980469 228.445312 181.980469 228.675781 181.980469 Z M 236.257812 185.65625 C 237.636719 187.265625 238.324219 189.5625 238.324219 191.859375 C 238.324219 193.929688 237.636719 195.765625 236.714844 197.375 L 250.960938 221.269531 C 251.652344 221.042969 252.570312 221.042969 253.257812 221.042969 C 255.785156 221.042969 258.085938 221.960938 259.691406 223.339844 L 309.78125 193.011719 C 308.863281 191.171875 308.402344 189.105469 308.402344 186.804688 C 308.402344 184.507812 308.863281 182.210938 310.011719 180.371094 L 259.003906 152.339844 C 257.855469 153.03125 256.476562 153.488281 255.097656 153.488281 L 254.867188 153.488281 L 236.027344 185.886719 Z M 230.972656 201.28125 C 230.28125 201.511719 229.363281 201.511719 228.675781 201.511719 C 228.214844 201.511719 227.753906 201.511719 227.066406 201.28125 L 192.601562 260.5625 C 193.058594 261.25 193.519531 261.710938 193.980469 262.398438 L 242.691406 232.988281 C 242.691406 232.300781 242.460938 231.839844 242.460938 231.152344 C 242.460938 228.625 243.378906 226.328125 244.757812 224.488281 L 230.742188 200.820312 Z M 220.863281 197.835938 C 219.484375 196.226562 218.5625 193.929688 218.5625 191.632812 C 218.5625 189.105469 219.484375 186.804688 221.089844 184.96875 L 210.292969 167.046875 C 210.0625 167.046875 209.601562 167.046875 209.375 167.046875 C 208.683594 167.046875 207.996094 167.046875 207.304688 166.816406 L 186.855469 183.589844 C 186.855469 184.277344 187.085938 184.738281 187.085938 185.425781 C 187.085938 190.253906 183.867188 194.386719 179.503906 195.539062 L 179.503906 256.425781 C 180.421875 256.195312 181.339844 256.195312 182.03125 256.195312 C 183.640625 256.195312 185.019531 256.425781 186.625 256.886719 Z M 263.597656 228.855469 C 263.828125 229.542969 263.828125 230.460938 263.828125 231.152344 C 263.828125 233.910156 262.910156 236.207031 261.070312 238.273438 L 276.234375 263.777344 C 276.695312 263.777344 277.382812 263.546875 277.84375 263.546875 C 278.992188 263.546875 279.914062 263.777344 280.832031 264.007812 L 318.054688 199.671875 C 316.675781 199.214844 315.527344 198.523438 314.378906 197.835938 L 263.367188 228.625 Z M 255.097656 241.722656 C 254.40625 241.722656 253.949219 241.949219 253.257812 241.949219 C 250.5 241.949219 248.203125 241.03125 246.367188 239.421875 L 196.277344 269.523438 C 196.277344 269.753906 196.277344 269.980469 196.277344 269.980469 C 196.277344 270.441406 196.277344 270.902344 196.277344 271.589844 L 269.113281 271.589844 C 269.34375 270.210938 269.800781 268.832031 270.492188 267.914062 L 255.097656 241.949219 Z M 282.667969 113.96875 C 281.289062 114.660156 279.453125 115.117188 277.613281 115.117188 C 277.382812 115.117188 277.15625 115.117188 276.925781 115.117188 L 261.761719 141.3125 C 262.449219 142.460938 262.910156 143.839844 262.910156 145.449219 C 262.910156 145.675781 262.910156 145.90625 262.910156 146.136719 L 314.835938 174.628906 C 315.527344 174.167969 316.214844 173.9375 316.90625 173.480469 Z M 267.503906 108.457031 C 267.046875 107.078125 266.585938 105.699219 266.585938 104.320312 L 193.058594 104.320312 C 193.058594 104.550781 193.058594 104.777344 193.058594 105.007812 C 193.058594 105.925781 193.058594 106.847656 192.828125 107.765625 L 238.09375 132.582031 Z M 189.84375 114.199219 C 189.382812 114.660156 188.925781 115.347656 188.234375 115.808594 L 209.601562 151.652344 C 210.980469 151.652344 212.359375 152.109375 213.507812 152.800781 L 232.121094 137.636719 L 189.84375 114.429688 Z M 182.03125 119.023438 C 181.339844 119.253906 180.421875 119.253906 179.503906 119.253906 L 179.503906 175.089844 C 180.882812 175.546875 182.261719 176.238281 183.410156 177.15625 L 202.25 161.761719 C 202.019531 160.84375 201.789062 160.152344 201.789062 159.234375 C 201.789062 157.625 202.25 156.015625 203.167969 154.636719 L 181.800781 118.792969 Z M 255.328125 137.636719 C 255.558594 137.636719 255.785156 137.636719 256.015625 137.636719 L 267.503906 117.875 L 244.988281 136.257812 L 250.5 139.242188 C 251.878906 138.324219 253.488281 137.636719 255.328125 137.636719 Z M 255.328125 137.636719 "/></g></g></svg>