<svg xmlns="http://www.w3.org/2000/svg" xmlns:xlink="http://www.w3.org/1999/xlink" width="500" zoomAndPan="magnify" viewBox="0 0 375 374.999991" height="500" preserveAspectRatio="xMidYMid meet" version="1.0"><defs><clipPath id="dfcb4f0e8e"><path d="M 37.5 64.019531 L 337.5 64.019531 L 337.5 310.769531 L 37.5 310.769531 Z M 37.5 64.019531 " clip-rule="nonzero"/></clipPath><clipPath id="e34050feef"><path d="M 175.785156 137.058594 L 277 137.058594 L 277 238 L 175.785156 238 Z M 175.785156 137.058594 " clip-rule="nonzero"/></clipPath><clipPath id="229b40e49e"><path d="M 174 136.058594 L 270 136.058594 L 270 154 L 174 154 Z M 174 136.058594 " clip-rule="nonzero"/></clipPath><clipPath id="97a88dc12e"><path d="M 276.324219 189.632812 C 276.335938 190.445312 276.273438 191.464844 276.203125 192.664062 C 275.550781 200.261719 273.191406 207.851562 268.953125 214.308594 C 268.335938 215.21875 267.742188 216.167969 267.082031 217.070312 C 266.457031 218 265.769531 218.882812 265.109375 219.773438 C 259.605469 226.878906 251.988281 232.320312 243.570312 235.34375 C 236.664062 237.882812 229.257812 238.984375 221.914062 238.5625 C 214.574219 238.148438 207.289062 236.152344 200.773438 232.640625 C 197.390625 230.796875 194.257812 228.515625 191.386719 225.960938 C 186.363281 221.484375 182.28125 215.996094 179.285156 210 C 176.34375 204.121094 174.566406 197.652344 174.085938 191.085938 C 173.597656 184.519531 174.367188 177.851562 176.40625 171.578125 C 178.21875 165.90625 181.125 160.621094 184.777344 155.972656 C 186.609375 153.648438 188.628906 151.476562 190.828125 149.5 C 193.03125 147.53125 195.394531 145.746094 197.886719 144.164062 C 200.25 142.671875 202.722656 141.355469 205.292969 140.261719 C 207.867188 139.179688 210.527344 138.300781 213.238281 137.636719 C 215.945312 136.960938 218.71875 136.542969 221.5 136.34375 C 224.28125 136.144531 227.085938 136.128906 229.863281 136.402344 L 230.582031 136.453125 L 231.292969 136.535156 C 231.769531 136.59375 232.246094 136.648438 232.71875 136.71875 C 239.808594 137.84375 246.652344 140.417969 252.714844 144.261719 C 258.769531 148.101562 264.058594 153.214844 267.949219 159.261719 C 269.855469 162.203125 271.53125 165.316406 272.851562 168.578125 C 273.996094 171.398438 274.84375 174.335938 275.398438 177.3125 C 275.960938 180.289062 276.175781 183.316406 276.140625 186.3125 C 276.140625 186.429688 276.121094 186.535156 276.097656 186.636719 C 276.101562 186.875 276.105469 187.113281 276.105469 187.355469 C 276.105469 187.359375 276.105469 187.363281 276.105469 187.367188 C 276.148438 187.316406 276.191406 187.472656 276.230469 187.824219 C 276.269531 188.207031 276.300781 188.816406 276.324219 189.632812 Z M 276.324219 189.632812 " clip-rule="nonzero"/></clipPath><clipPath id="e0a3a5d4e7"><path d="M 174 152 L 276.351562 152 L 276.351562 172 L 174 172 Z M 174 152 " clip-rule="nonzero"/></clipPath><clipPath id="55bc70c396"><path d="M 276.324219 189.632812 C 276.335938 190.445312 276.273438 191.464844 276.203125 192.664062 C 275.550781 200.261719 273.191406 207.851562 268.953125 214.308594 C 268.335938 215.21875 267.742188 216.167969 267.082031 217.070312 C 266.457031 218 265.769531 218.882812 265.109375 219.773438 C 259.605469 226.878906 251.988281 232.320312 243.570312 235.34375 C 236.664062 237.882812 229.257812 238.984375 221.914062 238.5625 C 214.574219 238.148438 207.289062 236.152344 200.773438 232.640625 C 197.390625 230.796875 194.257812 228.515625 191.386719 225.960938 C 186.363281 221.484375 182.28125 215.996094 179.285156 210 C 176.34375 204.121094 174.566406 197.652344 174.085938 191.085938 C 173.597656 184.519531 174.367188 177.851562 176.40625 171.578125 C 178.21875 165.90625 181.125 160.621094 184.777344 155.972656 C 186.609375 153.648438 188.628906 151.476562 190.828125 149.5 C 193.03125 147.53125 195.394531 145.746094 197.886719 144.164062 C 200.25 142.671875 202.722656 141.355469 205.292969 140.261719 C 207.867188 139.179688 210.527344 138.300781 213.238281 137.636719 C 215.945312 136.960938 218.71875 136.542969 221.5 136.34375 C 224.28125 136.144531 227.085938 136.128906 229.863281 136.402344 L 230.582031 136.453125 L 231.292969 136.535156 C 231.769531 136.59375 232.246094 136.648438 232.71875 136.71875 C 239.808594 137.84375 246.652344 140.417969 252.714844 144.261719 C 258.769531 148.101562 264.058594 153.214844 267.949219 159.261719 C 269.855469 162.203125 271.53125 165.316406 272.851562 168.578125 C 273.996094 171.398438 274.84375 174.335938 275.398438 177.3125 C 275.960938 180.289062 276.175781 183.316406 276.140625 186.3125 C 276.140625 186.429688 276.121094 186.535156 276.097656 186.636719 C 276.101562 186.875 276.105469 187.113281 276.105469 187.355469 C 276.105469 187.359375 276.105469 187.363281 276.105469 187.367188 C 276.148438 187.316406 276.191406 187.472656 276.230469 187.824219 C 276.269531 188.207031 276.300781 188.816406 276.324219 189.632812 Z M 276.324219 189.632812 " clip-rule="nonzero"/></clipPath><clipPath id="c3db1635a5"><path d="M 174 169 L 276.351562 169 L 276.351562 189 L 174 189 Z M 174 169 " clip-rule="nonzero"/></clipPath><clipPath id="ce97ac9700"><path d="M 276.324219 189.632812 C 276.335938 190.445312 276.273438 191.464844 276.203125 192.664062 C 275.550781 200.261719 273.191406 207.851562 268.953125 214.308594 C 268.335938 215.21875 267.742188 216.167969 267.082031 217.070312 C 266.457031 218 265.769531 218.882812 265.109375 219.773438 C 259.605469 226.878906 251.988281 232.320312 243.570312 235.34375 C 236.664062 237.882812 229.257812 238.984375 221.914062 238.5625 C 214.574219 238.148438 207.289062 236.152344 200.773438 232.640625 C 197.390625 230.796875 194.257812 228.515625 191.386719 225.960938 C 186.363281 221.484375 182.28125 215.996094 179.285156 210 C 176.34375 204.121094 174.566406 197.652344 174.085938 191.085938 C 173.597656 184.519531 174.367188 177.851562 176.40625 171.578125 C 178.21875 165.90625 181.125 160.621094 184.777344 155.972656 C 186.609375 153.648438 188.628906 151.476562 190.828125 149.5 C 193.03125 147.53125 195.394531 145.746094 197.886719 144.164062 C 200.25 142.671875 202.722656 141.355469 205.292969 140.261719 C 207.867188 139.179688 210.527344 138.300781 213.238281 137.636719 C 215.945312 136.960938 218.71875 136.542969 221.5 136.34375 C 224.28125 136.144531 227.085938 136.128906 229.863281 136.402344 L 230.582031 136.453125 L 231.292969 136.535156 C 231.769531 136.59375 232.246094 136.648438 232.71875 136.71875 C 239.808594 137.84375 246.652344 140.417969 252.714844 144.261719 C 258.769531 148.101562 264.058594 153.214844 267.949219 159.261719 C 269.855469 162.203125 271.53125 165.316406 272.851562 168.578125 C 273.996094 171.398438 274.84375 174.335938 275.398438 177.3125 C 275.960938 180.289062 276.175781 183.316406 276.140625 186.3125 C 276.140625 186.429688 276.121094 186.535156 276.097656 186.636719 C 276.101562 186.875 276.105469 187.113281 276.105469 187.355469 C 276.105469 187.359375 276.105469 187.363281 276.105469 187.367188 C 276.148438 187.316406 276.191406 187.472656 276.230469 187.824219 C 276.269531 188.207031 276.300781 188.816406 276.324219 189.632812 Z M 276.324219 189.632812 " clip-rule="nonzero"/></clipPath><clipPath id="61acb452a6"><path d="M 174 187 L 276.351562 187 L 276.351562 207 L 174 207 Z M 174 187 " clip-rule="nonzero"/></clipPath><clipPath id="03091cbeea"><path d="M 276.324219 189.632812 C 276.335938 190.445312 276.273438 191.464844 276.203125 192.664062 C 275.550781 200.261719 273.191406 207.851562 268.953125 214.308594 C 268.335938 215.21875 267.742188 216.167969 267.082031 217.070312 C 266.457031 218 265.769531 218.882812 265.109375 219.773438 C 259.605469 226.878906 251.988281 232.320312 243.570312 235.34375 C 236.664062 237.882812 229.257812 238.984375 221.914062 238.5625 C 214.574219 238.148438 207.289062 236.152344 200.773438 232.640625 C 197.390625 230.796875 194.257812 228.515625 191.386719 225.960938 C 186.363281 221.484375 182.28125 215.996094 179.285156 210 C 176.34375 204.121094 174.566406 197.652344 174.085938 191.085938 C 173.597656 184.519531 174.367188 177.851562 176.40625 171.578125 C 178.21875 165.90625 181.125 160.621094 184.777344 155.972656 C 186.609375 153.648438 188.628906 151.476562 190.828125 149.5 C 193.03125 147.53125 195.394531 145.746094 197.886719 144.164062 C 200.25 142.671875 202.722656 141.355469 205.292969 140.261719 C 207.867188 139.179688 210.527344 138.300781 213.238281 137.636719 C 215.945312 136.960938 218.71875 136.542969 221.5 136.34375 C 224.28125 136.144531 227.085938 136.128906 229.863281 136.402344 L 230.582031 136.453125 L 231.292969 136.535156 C 231.769531 136.59375 232.246094 136.648438 232.71875 136.71875 C 239.808594 137.84375 246.652344 140.417969 252.714844 144.261719 C 258.769531 148.101562 264.058594 153.214844 267.949219 159.261719 C 269.855469 162.203125 271.53125 165.316406 272.851562 168.578125 C 273.996094 171.398438 274.84375 174.335938 275.398438 177.3125 C 275.960938 180.289062 276.175781 183.316406 276.140625 186.3125 C 276.140625 186.429688 276.121094 186.535156 276.097656 186.636719 C 276.101562 186.875 276.105469 187.113281 276.105469 187.355469 C 276.105469 187.359375 276.105469 187.363281 276.105469 187.367188 C 276.148438 187.316406 276.191406 187.472656 276.230469 187.824219 C 276.269531 188.207031 276.300781 188.816406 276.324219 189.632812 Z M 276.324219 189.632812 " clip-rule="nonzero"/></clipPath><clipPath id="d4a098f6ff"><path d="M 174 205 L 276.351562 205 L 276.351562 225 L 174 225 Z M 174 205 " clip-rule="nonzero"/></clipPath><clipPath id="93e595cbc6"><path d="M 276.324219 189.632812 C 276.335938 190.445312 276.273438 191.464844 276.203125 192.664062 C 275.550781 200.261719 273.191406 207.851562 268.953125 214.308594 C 268.335938 215.21875 267.742188 216.167969 267.082031 217.070312 C 266.457031 218 265.769531 218.882812 265.109375 219.773438 C 259.605469 226.878906 251.988281 232.320312 243.570312 235.34375 C 236.664062 237.882812 229.257812 238.984375 221.914062 238.5625 C 214.574219 238.148438 207.289062 236.152344 200.773438 232.640625 C 197.390625 230.796875 194.257812 228.515625 191.386719 225.960938 C 186.363281 221.484375 182.28125 215.996094 179.285156 210 C 176.34375 204.121094 174.566406 197.652344 174.085938 191.085938 C 173.597656 184.519531 174.367188 177.851562 176.40625 171.578125 C 178.21875 165.90625 181.125 160.621094 184.777344 155.972656 C 186.609375 153.648438 188.628906 151.476562 190.828125 149.5 C 193.03125 147.53125 195.394531 145.746094 197.886719 144.164062 C 200.25 142.671875 202.722656 141.355469 205.292969 140.261719 C 207.867188 139.179688 210.527344 138.300781 213.238281 137.636719 C 215.945312 136.960938 218.71875 136.542969 221.5 136.34375 C 224.28125 136.144531 227.085938 136.128906 229.863281 136.402344 L 230.582031 136.453125 L 231.292969 136.535156 C 231.769531 136.59375 232.246094 136.648438 232.71875 136.71875 C 239.808594 137.84375 246.652344 140.417969 252.714844 144.261719 C 258.769531 148.101562 264.058594 153.214844 267.949219 159.261719 C 269.855469 162.203125 271.53125 165.316406 272.851562 168.578125 C 273.996094 171.398438 274.84375 174.335938 275.398438 177.3125 C 275.960938 180.289062 276.175781 183.316406 276.140625 186.3125 C 276.140625 186.429688 276.121094 186.535156 276.097656 186.636719 C 276.101562 186.875 276.105469 187.113281 276.105469 187.355469 C 276.105469 187.359375 276.105469 187.363281 276.105469 187.367188 C 276.148438 187.316406 276.191406 187.472656 276.230469 187.824219 C 276.269531 188.207031 276.300781 188.816406 276.324219 189.632812 Z M 276.324219 189.632812 " clip-rule="nonzero"/></clipPath><clipPath id="9a94c2b880"><path d="M 174 222 L 270 222 L 270 238.742188 L 174 238.742188 Z M 174 222 " clip-rule="nonzero"/></clipPath><clipPath id="81a6f87a0b"><path d="M 276.324219 189.632812 C 276.335938 190.445312 276.273438 191.464844 276.203125 192.664062 C 275.550781 200.261719 273.191406 207.851562 268.953125 214.308594 C 268.335938 215.21875 267.742188 216.167969 267.082031 217.070312 C 266.457031 218 265.769531 218.882812 265.109375 219.773438 C 259.605469 226.878906 251.988281 232.320312 243.570312 235.34375 C 236.664062 237.882812 229.257812 238.984375 221.914062 238.5625 C 214.574219 238.148438 207.289062 236.152344 200.773438 232.640625 C 197.390625 230.796875 194.257812 228.515625 191.386719 225.960938 C 186.363281 221.484375 182.28125 215.996094 179.285156 210 C 176.34375 204.121094 174.566406 197.652344 174.085938 191.085938 C 173.597656 184.519531 174.367188 177.851562 176.40625 171.578125 C 178.21875 165.90625 181.125 160.621094 184.777344 155.972656 C 186.609375 153.648438 188.628906 151.476562 190.828125 149.5 C 193.03125 147.53125 195.394531 145.746094 197.886719 144.164062 C 200.25 142.671875 202.722656 141.355469 205.292969 140.261719 C 207.867188 139.179688 210.527344 138.300781 213.238281 137.636719 C 215.945312 136.960938 218.71875 136.542969 221.5 136.34375 C 224.28125 136.144531 227.085938 136.128906 229.863281 136.402344 L 230.582031 136.453125 L 231.292969 136.535156 C 231.769531 136.59375 232.246094 136.648438 232.71875 136.71875 C 239.808594 137.84375 246.652344 140.417969 252.714844 144.261719 C 258.769531 148.101562 264.058594 153.214844 267.949219 159.261719 C 269.855469 162.203125 271.53125 165.316406 272.851562 168.578125 C 273.996094 171.398438 274.84375 174.335938 275.398438 177.3125 C 275.960938 180.289062 276.175781 183.316406 276.140625 186.3125 C 276.140625 186.429688 276.121094 186.535156 276.097656 186.636719 C 276.101562 186.875 276.105469 187.113281 276.105469 187.355469 C 276.105469 187.359375 276.105469 187.363281 276.105469 187.367188 C 276.148438 187.316406 276.191406 187.472656 276.230469 187.824219 C 276.269531 188.207031 276.300781 188.816406 276.324219 189.632812 Z M 276.324219 189.632812 " clip-rule="nonzero"/></clipPath><clipPath id="fb4141732c"><path d="M 173.675781 136.058594 L 267 136.058594 L 267 238.742188 L 173.675781 238.742188 Z M 173.675781 136.058594 " clip-rule="nonzero"/></clipPath><clipPath id="cfd6ba1fe1"><path d="M 276.324219 189.632812 C 276.335938 190.445312 276.273438 191.464844 276.203125 192.664062 C 275.550781 200.261719 273.191406 207.851562 268.953125 214.308594 C 268.335938 215.21875 267.742188 216.167969 267.082031 217.070312 C 266.457031 218 265.769531 218.882812 265.109375 219.773438 C 259.605469 226.878906 251.988281 232.320312 243.570312 235.34375 C 236.664062 237.882812 229.257812 238.984375 221.914062 238.5625 C 214.574219 238.148438 207.289062 236.152344 200.773438 232.640625 C 197.390625 230.796875 194.257812 228.515625 191.386719 225.960938 C 186.363281 221.484375 182.28125 215.996094 179.285156 210 C 176.34375 204.121094 174.566406 197.652344 174.085938 191.085938 C 173.597656 184.519531 174.367188 177.851562 176.40625 171.578125 C 178.21875 165.90625 181.125 160.621094 184.777344 155.972656 C 186.609375 153.648438 188.628906 151.476562 190.828125 149.5 C 193.03125 147.53125 195.394531 145.746094 197.886719 144.164062 C 200.25 142.671875 202.722656 141.355469 205.292969 140.261719 C 207.867188 139.179688 210.527344 138.300781 213.238281 137.636719 C 215.945312 136.960938 218.71875 136.542969 221.5 136.34375 C 224.28125 136.144531 227.085938 136.128906 229.863281 136.402344 L 230.582031 136.453125 L 231.292969 136.535156 C 231.769531 136.59375 232.246094 136.648438 232.71875 136.71875 C 239.808594 137.84375 246.652344 140.417969 252.714844 144.261719 C 258.769531 148.101562 264.058594 153.214844 267.949219 159.261719 C 269.855469 162.203125 271.53125 165.316406 272.851562 168.578125 C 273.996094 171.398438 274.84375 174.335938 275.398438 177.3125 C 275.960938 180.289062 276.175781 183.316406 276.140625 186.3125 C 276.140625 186.429688 276.121094 186.535156 276.097656 186.636719 C 276.101562 186.875 276.105469 187.113281 276.105469 187.355469 C 276.105469 187.359375 276.105469 187.363281 276.105469 187.367188 C 276.148438 187.316406 276.191406 187.472656 276.230469 187.824219 C 276.269531 188.207031 276.300781 188.816406 276.324219 189.632812 Z M 276.324219 189.632812 " clip-rule="nonzero"/></clipPath><clipPath id="1842988038"><path d="M 173.675781 138 L 249 138 L 249 238 L 173.675781 238 Z M 173.675781 138 " clip-rule="nonzero"/></clipPath><clipPath id="54e0996c08"><path d="M 276.324219 189.632812 C 276.335938 190.445312 276.273438 191.464844 276.203125 192.664062 C 275.550781 200.261719 273.191406 207.851562 268.953125 214.308594 C 268.335938 215.21875 267.742188 216.167969 267.082031 217.070312 C 266.457031 218 265.769531 218.882812 265.109375 219.773438 C 259.605469 226.878906 251.988281 232.320312 243.570312 235.34375 C 236.664062 237.882812 229.257812 238.984375 221.914062 238.5625 C 214.574219 238.148438 207.289062 236.152344 200.773438 232.640625 C 197.390625 230.796875 194.257812 228.515625 191.386719 225.960938 C 186.363281 221.484375 182.28125 215.996094 179.285156 210 C 176.34375 204.121094 174.566406 197.652344 174.085938 191.085938 C 173.597656 184.519531 174.367188 177.851562 176.40625 171.578125 C 178.21875 165.90625 181.125 160.621094 184.777344 155.972656 C 186.609375 153.648438 188.628906 151.476562 190.828125 149.5 C 193.03125 147.53125 195.394531 145.746094 197.886719 144.164062 C 200.25 142.671875 202.722656 141.355469 205.292969 140.261719 C 207.867188 139.179688 210.527344 138.300781 213.238281 137.636719 C 215.945312 136.960938 218.71875 136.542969 221.5 136.34375 C 224.28125 136.144531 227.085938 136.128906 229.863281 136.402344 L 230.582031 136.453125 L 231.292969 136.535156 C 231.769531 136.59375 232.246094 136.648438 232.71875 136.71875 C 239.808594 137.84375 246.652344 140.417969 252.714844 144.261719 C 258.769531 148.101562 264.058594 153.214844 267.949219 159.261719 C 269.855469 162.203125 271.53125 165.316406 272.851562 168.578125 C 273.996094 171.398438 274.84375 174.335938 275.398438 177.3125 C 275.960938 180.289062 276.175781 183.316406 276.140625 186.3125 C 276.140625 186.429688 276.121094 186.535156 276.097656 186.636719 C 276.101562 186.875 276.105469 187.113281 276.105469 187.355469 C 276.105469 187.359375 276.105469 187.363281 276.105469 187.367188 C 276.148438 187.316406 276.191406 187.472656 276.230469 187.824219 C 276.269531 188.207031 276.300781 188.816406 276.324219 189.632812 Z M 276.324219 189.632812 " clip-rule="nonzero"/></clipPath><clipPath id="b1e9db345d"><path d="M 173.675781 150 L 231 150 L 231 226 L 173.675781 226 Z M 173.675781 150 " clip-rule="nonzero"/></clipPath><clipPath id="d00101ffdb"><path d="M 276.324219 189.632812 C 276.335938 190.445312 276.273438 191.464844 276.203125 192.664062 C 275.550781 200.261719 273.191406 207.851562 268.953125 214.308594 C 268.335938 215.21875 267.742188 216.167969 267.082031 217.070312 C 266.457031 218 265.769531 218.882812 265.109375 219.773438 C 259.605469 226.878906 251.988281 232.320312 243.570312 235.34375 C 236.664062 237.882812 229.257812 238.984375 221.914062 238.5625 C 214.574219 238.148438 207.289062 236.152344 200.773438 232.640625 C 197.390625 230.796875 194.257812 228.515625 191.386719 225.960938 C 186.363281 221.484375 182.28125 215.996094 179.285156 210 C 176.34375 204.121094 174.566406 197.652344 174.085938 191.085938 C 173.597656 184.519531 174.367188 177.851562 176.40625 171.578125 C 178.21875 165.90625 181.125 160.621094 184.777344 155.972656 C 186.609375 153.648438 188.628906 151.476562 190.828125 149.5 C 193.03125 147.53125 195.394531 145.746094 197.886719 144.164062 C 200.25 142.671875 202.722656 141.355469 205.292969 140.261719 C 207.867188 139.179688 210.527344 138.300781 213.238281 137.636719 C 215.945312 136.960938 218.71875 136.542969 221.5 136.34375 C 224.28125 136.144531 227.085938 136.128906 229.863281 136.402344 L 230.582031 136.453125 L 231.292969 136.535156 C 231.769531 136.59375 232.246094 136.648438 232.71875 136.71875 C 239.808594 137.84375 246.652344 140.417969 252.714844 144.261719 C 258.769531 148.101562 264.058594 153.214844 267.949219 159.261719 C 269.855469 162.203125 271.53125 165.316406 272.851562 168.578125 C 273.996094 171.398438 274.84375 174.335938 275.398438 177.3125 C 275.960938 180.289062 276.175781 183.316406 276.140625 186.3125 C 276.140625 186.429688 276.121094 186.535156 276.097656 186.636719 C 276.101562 186.875 276.105469 187.113281 276.105469 187.355469 C 276.105469 187.359375 276.105469 187.363281 276.105469 187.367188 C 276.148438 187.316406 276.191406 187.472656 276.230469 187.824219 C 276.269531 188.207031 276.300781 188.816406 276.324219 189.632812 Z M 276.324219 189.632812 " clip-rule="nonzero"/></clipPath><clipPath id="02de0fbb22"><path d="M 173.675781 162 L 213 162 L 213 215 L 173.675781 215 Z M 173.675781 162 " clip-rule="nonzero"/></clipPath><clipPath id="3dc8411a62"><path d="M 276.324219 189.632812 C 276.335938 190.445312 276.273438 191.464844 276.203125 192.664062 C 275.550781 200.261719 273.191406 207.851562 268.953125 214.308594 C 268.335938 215.21875 267.742188 216.167969 267.082031 217.070312 C 266.457031 218 265.769531 218.882812 265.109375 219.773438 C 259.605469 226.878906 251.988281 232.320312 243.570312 235.34375 C 236.664062 237.882812 229.257812 238.984375 221.914062 238.5625 C 214.574219 238.148438 207.289062 236.152344 200.773438 232.640625 C 197.390625 230.796875 194.257812 228.515625 191.386719 225.960938 C 186.363281 221.484375 182.28125 215.996094 179.285156 210 C 176.34375 204.121094 174.566406 197.652344 174.085938 191.085938 C 173.597656 184.519531 174.367188 177.851562 176.40625 171.578125 C 178.21875 165.90625 181.125 160.621094 184.777344 155.972656 C 186.609375 153.648438 188.628906 151.476562 190.828125 149.5 C 193.03125 147.53125 195.394531 145.746094 197.886719 144.164062 C 200.25 142.671875 202.722656 141.355469 205.292969 140.261719 C 207.867188 139.179688 210.527344 138.300781 213.238281 137.636719 C 215.945312 136.960938 218.71875 136.542969 221.5 136.34375 C 224.28125 136.144531 227.085938 136.128906 229.863281 136.402344 L 230.582031 136.453125 L 231.292969 136.535156 C 231.769531 136.59375 232.246094 136.648438 232.71875 136.71875 C 239.808594 137.84375 246.652344 140.417969 252.714844 144.261719 C 258.769531 148.101562 264.058594 153.214844 267.949219 159.261719 C 269.855469 162.203125 271.53125 165.316406 272.851562 168.578125 C 273.996094 171.398438 274.84375 174.335938 275.398438 177.3125 C 275.960938 180.289062 276.175781 183.316406 276.140625 186.3125 C 276.140625 186.429688 276.121094 186.535156 276.097656 186.636719 C 276.101562 186.875 276.105469 187.113281 276.105469 187.355469 C 276.105469 187.359375 276.105469 187.363281 276.105469 187.367188 C 276.148438 187.316406 276.191406 187.472656 276.230469 187.824219 C 276.269531 188.207031 276.300781 188.816406 276.324219 189.632812 Z M 276.324219 189.632812 " clip-rule="nonzero"/></clipPath><clipPath id="9dcd4f4217"><path d="M 173.675781 174 L 195 174 L 195 203 L 173.675781 203 Z M 173.675781 174 " clip-rule="nonzero"/></clipPath><clipPath id="9ac73ea609"><path d="M 276.324219 189.632812 C 276.335938 190.445312 276.273438 191.464844 276.203125 192.664062 C 275.550781 200.261719 273.191406 207.851562 268.953125 214.308594 C 268.335938 215.21875 267.742188 216.167969 267.082031 217.070312 C 266.457031 218 265.769531 218.882812 265.109375 219.773438 C 259.605469 226.878906 251.988281 232.320312 243.570312 235.34375 C 236.664062 237.882812 229.257812 238.984375 221.914062 238.5625 C 214.574219 238.148438 207.289062 236.152344 200.773438 232.640625 C 197.390625 230.796875 194.257812 228.515625 191.386719 225.960938 C 186.363281 221.484375 182.28125 215.996094 179.285156 210 C 176.34375 204.121094 174.566406 197.652344 174.085938 191.085938 C 173.597656 184.519531 174.367188 177.851562 176.40625 171.578125 C 178.21875 165.90625 181.125 160.621094 184.777344 155.972656 C 186.609375 153.648438 188.628906 151.476562 190.828125 149.5 C 193.03125 147.53125 195.394531 145.746094 197.886719 144.164062 C 200.25 142.671875 202.722656 141.355469 205.292969 140.261719 C 207.867188 139.179688 210.527344 138.300781 213.238281 137.636719 C 215.945312 136.960938 218.71875 136.542969 221.5 136.34375 C 224.28125 136.144531 227.085938 136.128906 229.863281 136.402344 L 230.582031 136.453125 L 231.292969 136.535156 C 231.769531 136.59375 232.246094 136.648438 232.71875 136.71875 C 239.808594 137.84375 246.652344 140.417969 252.714844 144.261719 C 258.769531 148.101562 264.058594 153.214844 267.949219 159.261719 C 269.855469 162.203125 271.53125 165.316406 272.851562 168.578125 C 273.996094 171.398438 274.84375 174.335938 275.398438 177.3125 C 275.960938 180.289062 276.175781 183.316406 276.140625 186.3125 C 276.140625 186.429688 276.121094 186.535156 276.097656 186.636719 C 276.101562 186.875 276.105469 187.113281 276.105469 187.355469 C 276.105469 187.359375 276.105469 187.363281 276.105469 187.367188 C 276.148438 187.316406 276.191406 187.472656 276.230469 187.824219 C 276.269531 188.207031 276.300781 188.816406 276.324219 189.632812 Z M 276.324219 189.632812 " clip-rule="nonzero"/></clipPath></defs><g clip-path="url(#dfcb4f0e8e)"><path fill="#10d0d6" d="M 224.871094 110.863281 C 267.234375 110.863281 301.332031 145.304688 301.332031 187.667969 C 301.332031 230.03125 267.234375 264.128906 224.871094 264.128906 C 184.917969 264.128906 152.195312 233.476562 148.410156 194.554688 L 71.945312 194.554688 C 69.191406 201.101562 62.992188 205.578125 55.414062 205.578125 C 45.425781 205.578125 37.503906 197.65625 37.503906 187.667969 C 37.503906 177.679688 45.425781 169.757812 55.414062 169.757812 C 62.992188 169.757812 69.191406 174.234375 71.945312 180.433594 L 148.410156 180.433594 C 152.195312 141.515625 184.917969 110.863281 224.871094 110.863281 Z M 125.332031 134.972656 L 105.011719 134.972656 C 102.257812 128.773438 96.054688 123.949219 88.480469 123.949219 C 78.492188 123.949219 70.570312 132.214844 70.570312 142.203125 C 70.570312 151.847656 78.492188 160.113281 88.480469 160.113281 C 96.054688 160.113281 102.257812 155.636719 105.011719 149.09375 L 133.941406 149.09375 C 136.007812 144.269531 138.421875 139.449219 141.519531 134.972656 C 158.398438 108.105469 188.359375 89.851562 222.804688 88.820312 L 224.871094 88.820312 C 279.289062 88.820312 323.375 133.25 323.375 187.667969 C 323.375 242.085938 279.289062 286.171875 224.871094 286.171875 L 222.804688 286.171875 C 188.359375 285.484375 158.398438 267.230469 141.519531 240.019531 C 138.421875 235.542969 136.007812 231.066406 133.941406 226.242188 L 105.011719 226.242188 C 102.257812 219.699219 96.054688 215.222656 88.480469 215.222656 C 78.492188 215.222656 70.570312 223.144531 70.570312 233.132812 C 70.570312 243.121094 78.492188 251.042969 88.480469 251.042969 C 96.054688 251.042969 102.257812 246.5625 105.011719 240.019531 L 125.332031 240.019531 C 135.664062 259.652344 151.164062 275.496094 170.453125 286.171875 L 140.832031 286.171875 C 138.074219 279.628906 131.53125 275.152344 123.953125 275.152344 C 114.3125 275.152344 106.042969 283.074219 106.042969 293.0625 C 106.042969 303.046875 114.3125 310.96875 123.953125 310.96875 C 131.53125 310.96875 138.074219 306.492188 140.832031 300.292969 L 224.871094 300.292969 C 286.863281 300.292969 337.496094 249.664062 337.496094 187.667969 C 337.496094 125.328125 286.863281 75.042969 224.871094 75.042969 L 140.832031 75.042969 C 138.074219 68.5 131.53125 64.019531 123.953125 64.019531 C 114.3125 64.019531 106.042969 71.941406 106.042969 81.929688 C 106.042969 91.917969 114.3125 99.839844 123.953125 99.839844 C 131.53125 99.839844 138.074219 95.363281 140.832031 88.820312 L 170.453125 88.820312 C 151.164062 99.496094 135.664062 115.683594 125.332031 134.972656 Z M 224.871094 124.984375 C 259.3125 124.984375 287.554688 152.882812 287.554688 187.667969 C 287.554688 222.109375 259.3125 250.351562 224.871094 250.351562 C 190.082031 250.351562 162.183594 222.109375 162.183594 187.667969 C 162.183594 152.882812 190.082031 124.984375 224.871094 124.984375 Z M 224.871094 124.984375 " fill-opacity="1" fill-rule="evenodd"/></g><g clip-path="url(#e34050feef)"><path fill="#03767b" d="M 276.660156 187.496094 C 276.660156 189.148438 276.582031 190.792969 276.417969 192.4375 C 276.257812 194.082031 276.015625 195.714844 275.691406 197.335938 C 275.371094 198.957031 274.96875 200.554688 274.488281 202.136719 C 274.011719 203.71875 273.453125 205.269531 272.824219 206.796875 C 272.191406 208.324219 271.484375 209.8125 270.707031 211.269531 C 269.925781 212.726562 269.078125 214.144531 268.160156 215.515625 C 267.242188 216.890625 266.261719 218.214844 265.214844 219.492188 C 264.164062 220.769531 263.058594 221.992188 261.890625 223.160156 C 260.722656 224.328125 259.5 225.4375 258.222656 226.484375 C 256.945312 227.53125 255.621094 228.515625 254.246094 229.433594 C 252.871094 230.351562 251.457031 231.199219 250 231.976562 C 248.542969 232.753906 247.050781 233.460938 245.527344 234.09375 C 244 234.726562 242.445312 235.28125 240.867188 235.761719 C 239.285156 236.242188 237.683594 236.640625 236.0625 236.964844 C 234.445312 237.285156 232.8125 237.527344 231.167969 237.691406 C 229.523438 237.851562 227.875 237.933594 226.222656 237.933594 C 224.574219 237.933594 222.925781 237.851562 221.28125 237.691406 C 219.636719 237.527344 218.003906 237.285156 216.382812 236.964844 C 214.765625 236.640625 213.164062 236.242188 211.582031 235.761719 C 210.003906 235.28125 208.449219 234.726562 206.921875 234.09375 C 205.398438 233.460938 203.90625 232.753906 202.449219 231.976562 C 200.992188 231.199219 199.578125 230.351562 198.203125 229.433594 C 196.828125 228.515625 195.503906 227.53125 194.226562 226.484375 C 192.949219 225.4375 191.726562 224.328125 190.558594 223.160156 C 189.390625 221.992188 188.285156 220.769531 187.234375 219.492188 C 186.1875 218.214844 185.203125 216.890625 184.285156 215.515625 C 183.371094 214.144531 182.519531 212.726562 181.742188 211.269531 C 180.964844 209.8125 180.257812 208.324219 179.625 206.796875 C 178.992188 205.269531 178.4375 203.71875 177.957031 202.136719 C 177.480469 200.554688 177.078125 198.957031 176.757812 197.335938 C 176.433594 195.714844 176.191406 194.082031 176.03125 192.4375 C 175.867188 190.792969 175.785156 189.148438 175.785156 187.496094 C 175.785156 185.84375 175.867188 184.195312 176.03125 182.550781 C 176.191406 180.90625 176.433594 179.277344 176.757812 177.65625 C 177.078125 176.035156 177.480469 174.433594 177.957031 172.855469 C 178.4375 171.273438 178.992188 169.71875 179.625 168.195312 C 180.257812 166.667969 180.964844 165.175781 181.742188 163.71875 C 182.519531 162.261719 183.371094 160.847656 184.285156 159.472656 C 185.203125 158.101562 186.1875 156.773438 187.234375 155.496094 C 188.285156 154.222656 189.390625 153 190.558594 151.832031 C 191.726562 150.664062 192.949219 149.554688 194.226562 148.507812 C 195.503906 147.457031 196.828125 146.476562 198.203125 145.558594 C 199.578125 144.640625 200.992188 143.792969 202.449219 143.011719 C 203.90625 142.234375 205.398438 141.527344 206.921875 140.898438 C 208.449219 140.265625 210.003906 139.707031 211.582031 139.230469 C 213.164062 138.75 214.765625 138.347656 216.382812 138.027344 C 218.003906 137.703125 219.636719 137.460938 221.28125 137.300781 C 222.925781 137.136719 224.574219 137.058594 226.222656 137.058594 C 227.875 137.058594 229.523438 137.136719 231.167969 137.300781 C 232.8125 137.460938 234.445312 137.703125 236.0625 138.027344 C 237.683594 138.347656 239.285156 138.75 240.867188 139.230469 C 242.445312 139.707031 244 140.265625 245.527344 140.898438 C 247.050781 141.527344 248.542969 142.234375 250 143.011719 C 251.457031 143.792969 252.871094 144.640625 254.246094 145.558594 C 255.621094 146.476562 256.945312 147.457031 258.222656 148.507812 C 259.5 149.554688 260.722656 150.664062 261.890625 151.832031 C 263.058594 153 264.164062 154.222656 265.214844 155.496094 C 266.261719 156.773438 267.242188 158.101562 268.160156 159.472656 C 269.078125 160.847656 269.925781 162.261719 270.707031 163.71875 C 271.484375 165.175781 272.191406 166.667969 272.824219 168.195312 C 273.453125 169.71875 274.011719 171.273438 274.488281 172.855469 C 274.96875 174.433594 275.371094 176.035156 275.691406 177.65625 C 276.015625 179.277344 276.257812 180.90625 276.417969 182.550781 C 276.582031 184.195312 276.660156 185.84375 276.660156 187.496094 Z M 276.660156 187.496094 " fill-opacity="1" fill-rule="nonzero"/></g><g clip-path="url(#229b40e49e)"><g clip-path="url(#97a88dc12e)"><path fill="#ee3624" d="M 269.796875 147.703125 C 269.800781 143.523438 269.808594 139.339844 269.8125 135.15625 C 269.550781 135.15625 269.289062 135.152344 269.027344 135.148438 C 267.925781 135.148438 266.828125 135.152344 265.722656 135.15625 C 263.425781 135.1875 261.121094 135.234375 258.820312 135.214844 C 249.40625 135.132812 239.988281 135.382812 230.578125 135.171875 C 229.953125 135.175781 229.324219 135.179688 228.695312 135.183594 C 221.378906 135.171875 214.058594 135.164062 206.742188 135.15625 C 199.007812 135.070312 191.289062 134.988281 183.550781 134.90625 C 180.535156 134.902344 177.519531 134.902344 174.507812 134.898438 C 174.503906 141.046875 174.503906 147.191406 174.503906 153.339844 C 177.140625 153.320312 179.78125 153.300781 182.421875 153.277344 C 186.792969 153.238281 191.179688 153.320312 195.558594 153.351562 C 198.0625 153.371094 200.570312 153.394531 203.074219 153.414062 C 212.699219 153.367188 222.3125 153.054688 231.917969 153.261719 C 237.757812 153.390625 243.605469 153.5 249.460938 153.296875 C 250.902344 153.246094 252.386719 153.21875 253.820312 153.273438 C 258.84375 153.457031 263.855469 153.300781 268.84375 153.175781 C 269.1875 153.167969 269.503906 153.15625 269.800781 153.144531 C 269.800781 151.328125 269.796875 149.515625 269.796875 147.703125 Z M 269.796875 147.703125 " fill-opacity="1" fill-rule="nonzero"/></g></g><g clip-path="url(#e0a3a5d4e7)"><g clip-path="url(#55bc70c396)"><path fill="#e98024" d="M 277.59375 152.546875 C 277.3125 152.542969 277.03125 152.539062 276.753906 152.535156 C 275.5625 152.539062 274.375 152.542969 273.179688 152.546875 C 270.691406 152.578125 268.199219 152.625 265.714844 152.605469 C 255.53125 152.519531 245.34375 152.773438 235.164062 152.558594 C 234.488281 152.5625 233.804688 152.566406 233.128906 152.570312 C 225.210938 152.5625 217.292969 152.550781 209.378906 152.542969 C 201.011719 152.457031 192.664062 152.375 184.292969 152.289062 C 181.027344 152.289062 177.765625 152.285156 174.503906 152.285156 C 174.503906 154.484375 174.503906 156.679688 174.503906 158.878906 C 174.503906 160.257812 174.507812 161.640625 174.507812 163.011719 C 174.5 165.675781 174.492188 168.335938 174.484375 171 C 177.347656 170.980469 180.207031 170.960938 183.070312 170.9375 C 187.800781 170.894531 192.542969 170.980469 197.28125 171.011719 C 199.992188 171.035156 202.703125 171.054688 205.410156 171.078125 C 215.824219 171.027344 226.222656 170.710938 236.613281 170.921875 C 242.929688 171.050781 249.253906 171.164062 255.589844 170.957031 C 257.148438 170.90625 258.753906 170.878906 260.304688 170.929688 C 265.738281 171.121094 271.15625 170.960938 276.554688 170.835938 C 276.941406 170.824219 277.296875 170.8125 277.628906 170.800781 C 277.617188 164.71875 277.601562 158.632812 277.59375 152.546875 Z M 277.59375 152.546875 " fill-opacity="1" fill-rule="nonzero"/></g></g><g clip-path="url(#c3db1635a5)"><g clip-path="url(#ce97ac9700)"><path fill="#edaf30" d="M 277.628906 170.207031 C 277.335938 170.203125 277.046875 170.199219 276.753906 170.195312 C 275.5625 170.199219 274.375 170.203125 273.179688 170.207031 C 270.691406 170.238281 268.199219 170.285156 265.714844 170.265625 C 255.53125 170.183594 245.34375 170.4375 235.164062 170.222656 C 234.488281 170.226562 233.804688 170.226562 233.128906 170.230469 C 225.210938 170.222656 217.292969 170.214844 209.378906 170.203125 C 201.011719 170.121094 192.664062 170.035156 184.292969 169.953125 C 181.023438 169.949219 177.753906 169.949219 174.488281 169.945312 C 174.476562 176.183594 174.472656 182.421875 174.476562 188.664062 C 177.339844 188.640625 180.203125 188.621094 183.070312 188.601562 C 187.800781 188.558594 192.542969 188.640625 197.28125 188.671875 C 199.992188 188.695312 202.703125 188.71875 205.410156 188.738281 C 215.824219 188.691406 226.222656 188.375 236.613281 188.585938 C 242.929688 188.710938 249.253906 188.828125 255.589844 188.617188 C 257.148438 188.566406 258.753906 188.539062 260.304688 188.59375 C 265.738281 188.78125 271.15625 188.621094 276.554688 188.496094 C 276.953125 188.488281 277.320312 188.476562 277.664062 188.460938 C 277.65625 182.378906 277.644531 176.292969 277.628906 170.207031 Z M 277.628906 170.207031 " fill-opacity="1" fill-rule="nonzero"/></g></g><g clip-path="url(#61acb452a6)"><g clip-path="url(#03091cbeea)"><path fill="#009d5a" d="M 277.664062 188.144531 C 277.359375 188.140625 277.058594 188.136719 276.753906 188.132812 C 275.5625 188.136719 274.375 188.140625 273.179688 188.144531 C 270.691406 188.175781 268.199219 188.21875 265.714844 188.199219 C 255.53125 188.117188 245.34375 188.367188 235.164062 188.15625 C 234.488281 188.160156 233.804688 188.164062 233.128906 188.167969 C 225.210938 188.15625 217.292969 188.148438 209.378906 188.140625 C 201.011719 188.058594 192.664062 187.972656 184.292969 187.890625 C 181.019531 187.890625 177.746094 187.886719 174.476562 187.886719 C 174.480469 194.03125 174.488281 200.179688 174.492188 206.324219 C 177.351562 206.304688 180.210938 206.285156 183.070312 206.265625 C 187.800781 206.222656 192.542969 206.304688 197.28125 206.335938 C 199.992188 206.359375 202.703125 206.378906 205.410156 206.402344 C 215.824219 206.351562 226.222656 206.042969 236.613281 206.25 C 242.929688 206.375 249.253906 206.488281 255.589844 206.28125 C 257.148438 206.230469 258.753906 206.203125 260.304688 206.257812 C 265.738281 206.445312 271.15625 206.285156 276.554688 206.160156 C 276.949219 206.152344 277.316406 206.140625 277.65625 206.128906 C 277.667969 200.132812 277.671875 194.140625 277.664062 188.144531 Z M 277.664062 188.144531 " fill-opacity="1" fill-rule="nonzero"/></g></g><g clip-path="url(#d4a098f6ff)"><g clip-path="url(#93e595cbc6)"><path fill="#1c6094" d="M 277.640625 210.9375 C 277.648438 209.136719 277.652344 207.335938 277.65625 205.53125 C 277.355469 205.527344 277.054688 205.523438 276.753906 205.519531 C 275.5625 205.523438 274.375 205.527344 273.179688 205.53125 C 270.691406 205.5625 268.199219 205.609375 265.714844 205.589844 C 255.53125 205.507812 245.34375 205.761719 235.164062 205.542969 C 234.488281 205.546875 233.804688 205.550781 233.128906 205.554688 C 225.210938 205.546875 217.292969 205.539062 209.378906 205.527344 C 201.011719 205.445312 192.664062 205.359375 184.292969 205.277344 C 181.023438 205.273438 177.757812 205.273438 174.492188 205.269531 C 174.496094 211.507812 174.5 217.75 174.492188 223.988281 C 177.351562 223.964844 180.210938 223.945312 183.070312 223.925781 C 187.800781 223.882812 192.542969 223.964844 197.28125 223.996094 C 199.992188 224.019531 202.703125 224.042969 205.410156 224.0625 C 215.824219 224.015625 226.222656 223.699219 236.613281 223.910156 C 242.929688 224.035156 249.253906 224.152344 255.589844 223.941406 C 257.148438 223.890625 258.753906 223.863281 260.304688 223.917969 C 265.738281 224.105469 271.15625 223.945312 276.554688 223.820312 C 276.929688 223.8125 277.277344 223.800781 277.601562 223.789062 C 277.613281 219.503906 277.625 215.21875 277.640625 210.9375 Z M 277.640625 210.9375 " fill-opacity="1" fill-rule="nonzero"/></g></g><g clip-path="url(#9a94c2b880)"><g clip-path="url(#81a6f87a0b)"><path fill="#6c3587" d="M 269.84375 239.53125 C 269.863281 236.582031 269.855469 233.53125 269.835938 230.570312 C 269.820312 227.882812 269.8125 225.199219 269.804688 222.519531 C 269.546875 222.515625 269.285156 222.511719 269.027344 222.507812 C 267.925781 222.511719 266.828125 222.515625 265.722656 222.519531 C 263.425781 222.546875 261.121094 222.59375 258.820312 222.574219 C 249.40625 222.496094 239.988281 222.734375 230.578125 222.53125 C 229.953125 222.535156 229.324219 222.539062 228.695312 222.539062 C 221.378906 222.53125 214.058594 222.523438 206.742188 222.515625 C 199.007812 222.4375 191.289062 222.359375 183.550781 222.277344 C 180.535156 222.277344 177.523438 222.273438 174.511719 222.273438 C 174.523438 228.140625 174.507812 233.980469 174.476562 239.800781 C 177.125 239.78125 179.769531 239.761719 182.421875 239.742188 C 186.792969 239.703125 191.179688 239.78125 195.558594 239.8125 C 198.0625 239.832031 200.570312 239.851562 203.074219 239.875 C 212.699219 239.828125 222.3125 239.53125 231.917969 239.730469 C 237.757812 239.847656 243.605469 239.957031 249.460938 239.761719 C 250.902344 239.714844 252.386719 239.6875 253.820312 239.738281 C 258.84375 239.914062 263.855469 239.765625 268.84375 239.644531 C 269.203125 239.636719 269.535156 239.625 269.84375 239.613281 Z M 269.84375 239.53125 " fill-opacity="1" fill-rule="nonzero"/></g></g><g clip-path="url(#fb4141732c)"><g clip-path="url(#cfd6ba1fe1)"><path fill="#1c1919" d="M 185.332031 134.917969 C 183.882812 134.90625 182.429688 134.894531 180.980469 134.882812 C 178.449219 134.859375 175.917969 134.847656 173.390625 134.835938 L 173.390625 239.871094 C 178.253906 239.871094 183.121094 239.871094 187.988281 239.875 L 266.5 188.265625 Z M 185.332031 134.917969 " fill-opacity="1" fill-rule="nonzero"/></g></g><g clip-path="url(#1842988038)"><g clip-path="url(#54e0996c08)"><path fill="#633d2b" d="M 248.578125 188.265625 L 173.355469 237.710938 L 173.355469 138.824219 Z M 248.578125 188.265625 " fill-opacity="1" fill-rule="nonzero"/></g></g><g clip-path="url(#b1e9db345d)"><g clip-path="url(#d00101ffdb)"><path fill="#7acbdd" d="M 230.578125 188.265625 L 173.335938 225.894531 L 173.335938 150.640625 Z M 230.578125 188.265625 " fill-opacity="1" fill-rule="nonzero"/></g></g><g clip-path="url(#02de0fbb22)"><g clip-path="url(#3dc8411a62)"><path fill="#e5a1c8" d="M 212.621094 188.265625 L 173.355469 214.074219 L 173.355469 162.457031 Z M 212.621094 188.265625 " fill-opacity="1" fill-rule="nonzero"/></g></g><g clip-path="url(#9dcd4f4217)"><g clip-path="url(#9ac73ea609)"><path fill="#e6e7e8" d="M 194.601562 188.265625 L 173.316406 202.257812 L 173.316406 174.277344 Z M 194.601562 188.265625 " fill-opacity="1" fill-rule="nonzero"/></g></g></svg>