<svg xmlns="http://www.w3.org/2000/svg" xmlns:xlink="http://www.w3.org/1999/xlink" width="500" zoomAndPan="magnify" viewBox="0 0 375 374.999991" height="500" preserveAspectRatio="xMidYMid meet" version="1.2"><g id="654924d16e"><path style=" stroke:none;fill-rule:nonzero;fill:#17ad34;fill-opacity:1;" d="M 194.882812 98.230469 C 195.421875 94.003906 195.539062 89.761719 196.582031 85.605469 C 197.515625 81.878906 199.203125 78.5 201.46875 75.40625 C 203.050781 73.246094 205.53125 69.933594 208.585938 70.207031 C 210.691406 70.394531 211.664062 72.027344 212.195312 73.902344 C 215.171875 70.273438 219.4375 67.691406 223.632812 65.621094 C 226.261719 64.328125 229.0625 63.09375 231.9375 62.472656 C 234.402344 61.945312 238.503906 61.640625 239.558594 64.632812 C 239.957031 65.761719 239.769531 67 239.421875 68.144531 C 239.925781 68.148438 240.4375 68.15625 240.941406 68.167969 C 245.890625 68.300781 251.035156 68.75 255.695312 70.542969 C 257.859375 71.378906 260.113281 72.570312 261.324219 74.636719 C 262.742188 77.054688 262.464844 80.171875 261.71875 82.753906 C 260.886719 85.625 259.421875 88.304688 257.976562 90.90625 C 257.222656 92.261719 256.488281 93.621094 255.707031 94.945312 C 256.90625 95.175781 258.070312 95.609375 258.847656 96.496094 C 260.691406 98.589844 258.925781 101.722656 257.523438 103.515625 C 255.144531 106.574219 251.757812 108.816406 248.273438 110.4375 C 246.328125 111.34375 244.246094 112.203125 242.132812 112.644531 C 240.144531 113.058594 238.113281 112.960938 236.097656 113.0625 C 236.390625 113.421875 236.679688 113.773438 236.90625 114.140625 C 237.636719 115.324219 237.90625 116.726562 237.277344 118.011719 C 235.808594 121.023438 231.804688 121.320312 228.902344 121.003906 C 221.28125 120.175781 213.957031 117.855469 206.980469 114.742188 C 204.949219 113.835938 202.820312 112.871094 200.894531 111.640625 C 200.714844 111.542969 200.539062 111.4375 200.363281 111.328125 C 199.714844 110.929688 199.089844 110.488281 198.5 110 C 196.542969 109.144531 194.953125 107.746094 194.582031 105.441406 C 194.542969 105.191406 194.515625 104.941406 194.492188 104.6875 C 194.195312 102.578125 194.621094 100.289062 194.882812 98.230469 Z M 194.882812 98.230469 "/><path style=" stroke:none;fill-rule:nonzero;fill:#008627;fill-opacity:1;" d="M 194.472656 104.648438 C 197.871094 103.230469 201.515625 102.722656 205.0625 101.800781 C 208.753906 100.839844 212.4375 99.863281 216.09375 98.78125 C 219.816406 97.679688 223.546875 96.558594 227.1875 95.210938 C 230.667969 93.921875 233.917969 92.101562 237.199219 90.394531 C 239.019531 89.445312 240.6875 88.464844 242.296875 87.179688 C 243.753906 86.019531 245.199219 84.878906 246.769531 83.875 C 247.214844 83.589844 247.675781 84.261719 247.300781 84.609375 C 244.832031 86.894531 242.644531 89.472656 239.785156 91.304688 C 236.675781 93.292969 233.332031 95.101562 229.984375 96.652344 C 222.996094 99.882812 215.507812 101.988281 208.097656 104.003906 C 206.097656 104.546875 204.101562 105.097656 202.078125 105.542969 C 199.992188 106.007812 197.851562 106.417969 195.855469 107.199219 C 195.121094 107.488281 194.300781 107.363281 193.886719 106.617188 C 193.535156 105.988281 193.75 104.949219 194.46875 104.648438 Z M 194.472656 104.648438 "/><path style=" stroke:none;fill-rule:nonzero;fill:#b924d0;fill-opacity:1;" d="M 298.59375 154.679688 C 289.476562 97.710938 202.796875 85.414062 184.464844 143.328125 C 184.28125 143.910156 184.105469 144.496094 183.941406 145.085938 C 176.488281 171.457031 190.523438 201.597656 215.09375 213.457031 C 255.378906 232.902344 305.929688 200.511719 298.59375 154.679688 Z M 298.59375 154.679688 "/><path style=" stroke:none;fill-rule:nonzero;fill:#b924d0;fill-opacity:1;" d="M 227.507812 259.273438 C 218.390625 202.304688 131.710938 190.007812 113.378906 247.921875 C 113.195312 248.503906 113.019531 249.089844 112.855469 249.675781 C 105.40625 276.050781 119.4375 306.1875 144.007812 318.050781 C 184.292969 337.496094 234.84375 305.105469 227.507812 259.273438 Z M 227.507812 259.273438 "/><path style=" stroke:none;fill-rule:nonzero;fill:#b94ed0;fill-opacity:1;" d="M 282.9375 217.9375 C 273.820312 160.96875 187.136719 148.671875 168.804688 206.585938 C 168.625 207.167969 168.449219 207.753906 168.28125 208.339844 C 160.832031 234.714844 174.867188 264.851562 199.4375 276.714844 C 239.71875 296.160156 290.273438 263.769531 282.9375 217.9375 Z M 282.9375 217.9375 "/><path style=" stroke:none;fill-rule:nonzero;fill:#b924d0;fill-opacity:1;" d="M 191.183594 203.21875 C 182.066406 146.25 95.386719 133.953125 77.050781 191.867188 C 76.871094 192.449219 76.695312 193.035156 76.527344 193.625 C 69.078125 219.996094 83.113281 250.136719 107.683594 261.996094 C 147.96875 281.441406 198.519531 249.050781 191.183594 203.21875 Z M 191.183594 203.21875 "/><path style=" stroke:none;fill-rule:nonzero;fill:#b924d0;fill-opacity:1;" d="M 192.121094 135.578125 C 183.003906 78.609375 96.324219 66.3125 77.992188 124.226562 C 77.808594 124.808594 77.636719 125.394531 77.46875 125.984375 C 70.019531 152.355469 84.050781 182.496094 108.621094 194.355469 C 148.90625 213.800781 199.457031 181.410156 192.121094 135.578125 Z M 192.121094 135.578125 "/><path style=" stroke:none;fill-rule:nonzero;fill:#b94ed0;fill-opacity:1;" d="M 234.398438 149.980469 C 225.28125 93.011719 138.601562 80.71875 120.269531 138.628906 C 120.085938 139.214844 119.910156 139.800781 119.746094 140.386719 C 112.292969 166.757812 126.328125 196.898438 150.898438 208.757812 C 191.183594 228.203125 241.734375 195.816406 234.398438 149.980469 Z M 234.398438 149.980469 "/><path style=" stroke:none;fill-rule:nonzero;fill:#ffffff;fill-opacity:0.33;" d="M 116.394531 236.050781 C 116.210938 234.289062 115.566406 232.261719 114.292969 230.972656 C 112.65625 229.320312 110.34375 229.671875 109 231.453125 C 107.210938 233.832031 107.589844 238.03125 109.179688 240.851562 C 109.597656 241.839844 110.234375 242.671875 111.09375 243.175781 C 113.136719 244.363281 115.511719 243.050781 116.15625 240.929688 C 116.613281 239.421875 116.554688 237.605469 116.394531 236.050781 Z M 116.394531 236.050781 "/><path style=" stroke:none;fill-rule:nonzero;fill:#ffffff;fill-opacity:0.33;" d="M 104.378906 225.011719 C 104.71875 223.21875 104.613281 221.402344 103.4375 220.078125 C 102.34375 218.847656 100.492188 218.421875 99.183594 219.585938 C 98.132812 220.511719 97.828125 221.933594 97.695312 223.269531 C 97.628906 223.933594 97.613281 224.628906 97.6875 225.304688 C 97.683594 225.367188 97.679688 225.429688 97.675781 225.492188 C 97.648438 226.015625 97.691406 226.523438 97.796875 226.996094 C 97.8125 227.09375 97.824219 227.1875 97.84375 227.273438 C 97.878906 227.460938 97.953125 227.636719 98.058594 227.800781 C 98.597656 229.050781 99.683594 229.941406 101.265625 230.105469 C 101.886719 230.167969 102.703125 229.695312 102.96875 229.128906 C 103.164062 228.707031 103.367188 228.246094 103.558594 227.753906 C 104.089844 226.980469 104.359375 226 104.378906 225.011719 Z M 104.378906 225.011719 "/><path style=" stroke:none;fill-rule:nonzero;fill:#ffffff;fill-opacity:0.33;" d="M 277.125 144.273438 C 276.019531 142.824219 274.15625 142.039062 272.441406 142.984375 C 270.953125 143.804688 270.285156 145.644531 270.054688 147.234375 C 269.667969 149.90625 269.902344 153.949219 272.480469 155.515625 C 272.957031 156.175781 273.59375 156.710938 274.464844 157.042969 C 275.34375 157.375 276.660156 156.832031 277.070312 155.980469 C 278.789062 152.40625 279.734375 147.683594 277.128906 144.273438 Z M 277.125 144.273438 "/><path style=" stroke:none;fill-rule:nonzero;fill:#ffffff;fill-opacity:0.33;" d="M 286.53125 155.714844 C 285.726562 155.179688 284.363281 155.339844 283.71875 156.078125 C 282.875 157.042969 282.371094 158.246094 282.175781 159.507812 C 281.164062 162.175781 281.898438 166.179688 285.300781 165.632812 C 289.410156 164.96875 289.503906 157.695312 286.53125 155.714844 Z M 286.53125 155.714844 "/><path style=" stroke:none;fill-rule:nonzero;fill:#ffffff;fill-opacity:0.33;" d="M 103.648438 125.023438 C 102.847656 124.488281 101.480469 124.652344 100.839844 125.386719 C 99.992188 126.355469 99.488281 127.558594 99.292969 128.820312 C 98.28125 131.488281 99.019531 135.492188 102.417969 134.941406 C 106.53125 134.28125 106.625 127.003906 103.648438 125.023438 Z M 103.648438 125.023438 "/><path style=" stroke:none;fill-rule:nonzero;fill:#ffffff;fill-opacity:0.33;" d="M 144.585938 162.363281 C 141.753906 162.214844 138.914062 162.914062 137.109375 164.539062 C 130.269531 170.699219 137.449219 178.734375 144.984375 177.757812 C 148.808594 177.261719 152.828125 175.65625 153.632812 171.382812 C 154.703125 165.691406 149.496094 162.617188 144.585938 162.363281 Z M 144.585938 162.363281 "/><path style=" stroke:none;fill-rule:nonzero;fill:#ffffff;fill-opacity:0.33;" d="M 208.269531 164.089844 C 205.433594 163.941406 202.59375 164.640625 200.792969 166.261719 C 193.949219 172.425781 201.132812 180.460938 208.664062 179.484375 C 212.492188 178.988281 216.511719 177.378906 217.316406 173.109375 C 218.382812 167.417969 213.179688 164.34375 208.269531 164.089844 Z M 208.269531 164.089844 "/><path style=" stroke:none;fill-rule:nonzero;fill:#17ad34;fill-opacity:1;" d="M 267.847656 125.613281 C 267.398438 124.175781 265.507812 123.027344 264.214844 124.363281 C 263.226562 125.386719 262.523438 126.285156 262.019531 127.636719 C 261.53125 128.941406 261.089844 130.257812 260.542969 131.542969 C 259.640625 133.679688 258.476562 135.675781 256.714844 137.210938 C 253.164062 140.308594 248.398438 142.027344 243.84375 142.96875 C 239.304688 143.910156 234.84375 143.734375 230.558594 141.839844 C 228.914062 141.117188 227.390625 140.140625 226.035156 138.96875 C 230.027344 137.019531 233.15625 133.523438 233.722656 128.890625 C 234.507812 122.464844 230.6875 115.660156 223.863281 114.871094 C 217.550781 114.144531 215.46875 121.011719 215.363281 126.023438 C 215.296875 129.414062 216.019531 132.621094 217.34375 135.511719 C 214.21875 135.265625 211.28125 133.839844 208.726562 131.769531 C 203.859375 127.832031 200.511719 122.117188 197.949219 116.503906 C 196.777344 113.933594 195.832031 111.292969 194.585938 108.757812 C 193.472656 106.492188 191.855469 103.578125 192.460938 100.964844 C 192.777344 99.59375 190.855469 98.832031 190.351562 100.21875 C 189.421875 102.789062 190.09375 105.601562 190.859375 108.125 C 191.71875 110.953125 192.707031 113.765625 193.699219 116.542969 C 196.027344 123.058594 199.566406 129.539062 204.582031 134.378906 C 208.933594 138.582031 214.457031 141.308594 220.539062 140.585938 C 224.722656 145.625 231.03125 148.945312 237.894531 149.335938 C 244.644531 149.714844 252.050781 147.683594 257.769531 144.109375 C 260.761719 142.238281 263.257812 139.933594 265.015625 136.839844 C 266.832031 133.636719 269.003906 129.308594 267.847656 125.613281 Z M 220.128906 126.203125 C 220.183594 124.386719 220.316406 122.191406 221.347656 120.621094 C 222.347656 119.097656 224.167969 119.785156 225.484375 120.648438 C 227.378906 121.886719 228.050781 123.90625 228.300781 126.0625 C 228.796875 130.320312 226.335938 133.425781 222.488281 134.816406 C 222.074219 134.148438 221.703125 133.449219 221.382812 132.730469 C 220.472656 130.675781 220.058594 128.449219 220.128906 126.203125 Z M 220.128906 126.203125 "/><path style=" stroke:none;fill-rule:nonzero;fill:#17ad34;fill-opacity:1;" d="M 191.550781 95.347656 C 191 89.578125 191.019531 83.808594 189.78125 78.109375 C 188.667969 73 186.515625 68.332031 183.570312 64.027344 C 181.511719 61.023438 178.277344 56.410156 174.109375 56.652344 C 171.238281 56.820312 169.847656 58.996094 169.046875 61.527344 C 165.152344 56.460938 159.464844 52.765625 153.84375 49.769531 C 150.324219 47.898438 146.566406 46.101562 142.683594 45.136719 C 139.355469 44.308594 133.789062 43.722656 132.226562 47.746094 C 131.636719 49.261719 131.839844 50.957031 132.265625 52.527344 C 131.574219 52.511719 130.882812 52.5 130.195312 52.496094 C 123.457031 52.464844 116.441406 52.855469 110.027344 55.097656 C 107.046875 56.136719 103.933594 57.660156 102.199219 60.421875 C 100.164062 63.648438 100.410156 67.902344 101.316406 71.445312 C 102.324219 75.386719 104.199219 79.089844 106.054688 82.691406 C 107.019531 84.566406 107.964844 86.445312 108.96875 88.285156 C 107.328125 88.542969 105.726562 89.082031 104.632812 90.253906 C 102.03125 93.027344 104.300781 97.359375 106.128906 99.863281 C 109.234375 104.125 113.746094 107.316406 118.414062 109.671875 C 121.023438 110.984375 123.816406 112.246094 126.671875 112.933594 C 129.359375 113.585938 132.125 113.535156 134.863281 113.761719 C 134.449219 114.234375 134.039062 114.707031 133.714844 115.191406 C 132.675781 116.773438 132.246094 118.667969 133.046875 120.441406 C 134.914062 124.601562 140.347656 125.175781 144.3125 124.867188 C 154.707031 124.070312 164.769531 121.226562 174.390625 117.289062 C 177.191406 116.144531 180.128906 114.921875 182.804688 113.332031 C 183.050781 113.207031 183.296875 113.070312 183.539062 112.929688 C 184.433594 112.417969 185.304688 111.839844 186.125 111.203125 C 188.828125 110.125 191.046875 108.289062 191.648438 105.171875 C 191.714844 104.835938 191.765625 104.492188 191.804688 104.152344 C 192.296875 101.296875 191.820312 98.164062 191.550781 95.347656 Z M 191.550781 95.347656 "/><path style=" stroke:none;fill-rule:nonzero;fill:#008627;fill-opacity:1;" d="M 191.835938 104.101562 C 187.273438 102.027344 182.335938 101.175781 177.550781 99.769531 C 172.574219 98.308594 167.605469 96.820312 162.675781 95.191406 C 157.664062 93.535156 152.636719 91.851562 147.742188 89.863281 C 143.066406 87.960938 138.726562 85.347656 134.332031 82.882812 C 131.898438 81.515625 129.671875 80.109375 127.539062 78.296875 C 125.609375 76.65625 123.6875 75.042969 121.59375 73.605469 C 121.003906 73.203125 120.347656 74.09375 120.839844 74.582031 C 124.101562 77.796875 126.964844 81.398438 130.78125 84.011719 C 134.917969 86.851562 139.394531 89.453125 143.878906 91.703125 C 153.246094 96.398438 163.339844 99.582031 173.332031 102.640625 C 176.027344 103.464844 178.71875 104.296875 181.449219 104.992188 C 184.269531 105.710938 187.160156 106.359375 189.84375 107.511719 C 190.832031 107.933594 191.949219 107.796875 192.542969 106.800781 C 193.050781 105.957031 192.804688 104.539062 191.835938 104.101562 Z M 191.835938 104.101562 "/><path style=" stroke:none;fill-rule:nonzero;fill:#b924d0;fill-opacity:1;" d="M 222.996094 185.324219 C 222.40625 186.34375 222.078125 187.527344 221.542969 188.582031 C 220.976562 189.699219 220.335938 190.777344 219.652344 191.824219 C 218.070312 194.230469 216.21875 196.429688 214.207031 198.484375 C 210.53125 202.242188 206.066406 205.453125 201.183594 207.460938 C 200.40625 207.78125 200.429688 209.011719 201.394531 209.019531 C 207.167969 209.050781 212.28125 204.980469 216.246094 201.175781 C 218.476562 199.039062 220.476562 196.628906 222.226562 194.082031 C 223.664062 191.988281 225.652344 189.167969 226.011719 186.597656 C 226.25 184.871094 224.011719 183.570312 222.996094 185.328125 Z M 222.996094 185.324219 "/><path style=" stroke:none;fill-rule:nonzero;fill:#b924d0;fill-opacity:1;" d="M 266.726562 218.847656 C 266.085938 217.398438 263.867188 217.914062 263.492188 219.269531 C 263.015625 220.988281 262.859375 222.804688 262.378906 224.542969 C 261.878906 226.355469 260.671875 228.195312 261.789062 230.003906 C 262.296875 230.835938 263.394531 231.371094 264.363281 231.054688 C 266.828125 230.253906 267.035156 227.519531 267.324219 225.289062 C 267.597656 223.207031 267.585938 220.789062 266.726562 218.847656 Z M 266.726562 218.847656 "/><path style=" stroke:none;fill-rule:nonzero;fill:#b924d0;fill-opacity:1;" d="M 274.660156 219.738281 C 274.519531 218.339844 272.515625 217.886719 272.09375 219.390625 C 271.425781 221.761719 270.730469 224.269531 270.390625 226.707031 C 270.253906 227.695312 270.46875 228.847656 271.464844 229.351562 C 271.859375 229.546875 272.199219 229.675781 272.648438 229.667969 C 273.648438 229.652344 274.660156 228.957031 274.902344 227.953125 C 275.550781 225.273438 274.925781 222.429688 274.660156 219.738281 Z M 274.660156 219.738281 "/><path style=" stroke:none;fill-rule:nonzero;fill:#ffffff;fill-opacity:0.33;" d="M 150.855469 296.1875 C 150.359375 294.691406 149.722656 293.082031 148.429688 292.097656 C 146.820312 290.878906 144.65625 291.066406 143.273438 292.550781 C 142.285156 293.613281 142.046875 295.011719 142.113281 296.402344 C 141.773438 298.8125 142.542969 301.703125 143.210938 303.589844 C 143.804688 305.253906 144.476562 307.265625 146.074219 308.230469 C 148.449219 309.660156 151.082031 307.992188 151.875 305.578125 C 152.800781 302.769531 151.765625 298.949219 150.855469 296.1875 Z M 150.855469 296.1875 "/><path style=" stroke:none;fill-rule:nonzero;fill:#008627;fill-opacity:1;" d="M 214.605469 41.304688 C 208.726562 37.507812 203.671875 46.367188 201.363281 50.445312 C 197.6875 56.945312 194.492188 63.824219 192.640625 71.070312 C 190.707031 78.636719 189.707031 86.457031 189.738281 94.265625 C 189.753906 98.175781 190.027344 102.082031 190.601562 105.945312 C 190.722656 106.75 190.882812 110.644531 191.726562 110.984375 C 194.136719 111.949219 195.085938 101.566406 195.535156 99.648438 C 197.03125 93.304688 198.640625 86.667969 201.015625 80.605469 C 202.074219 77.902344 203.34375 75.292969 204.582031 72.675781 C 205.847656 70.007812 206.957031 67.269531 208.246094 64.613281 C 209.503906 62.03125 211.035156 59.640625 212.667969 57.277344 C 213.382812 56.242188 214.109375 55.210938 214.957031 54.28125 C 215.707031 53.457031 216.632812 52.765625 217.234375 51.820312 C 219.085938 48.890625 217.527344 43.195312 214.605469 41.304688 Z M 214.605469 41.304688 "/><path style=" stroke:none;fill-rule:nonzero;fill:#ffffff;fill-opacity:0.33;" d="M 138.453125 292.394531 C 137.421875 291.820312 135.785156 292.28125 135.546875 293.578125 C 135.4375 294.171875 135.300781 294.835938 135.527344 295.421875 C 135.671875 295.796875 135.90625 296.152344 136.207031 296.417969 C 136.363281 296.65625 136.554688 296.882812 136.792969 297.085938 C 137.683594 297.847656 138.921875 297.738281 139.578125 296.726562 C 140.507812 295.292969 139.921875 293.210938 138.453125 292.394531 Z M 138.453125 292.394531 "/><path style=" stroke:none;fill-rule:nonzero;fill:#ffffff;fill-opacity:0.33;" d="M 175.269531 76.109375 C 174.839844 73.515625 173.867188 69.878906 171.398438 68.46875 C 170.503906 67.957031 169.277344 68.082031 168.550781 68.835938 C 166.304688 71.160156 166.714844 74.65625 167.308594 77.570312 C 167.484375 78.441406 167.722656 79.484375 168.105469 80.457031 C 168.78125 82.710938 170.160156 84.824219 172.847656 84.003906 C 176.035156 83.027344 175.6875 78.660156 175.269531 76.109375 Z M 175.269531 76.109375 "/><path style=" stroke:none;fill-rule:nonzero;fill:#ffffff;fill-opacity:0.33;" d="M 161.078125 66.472656 C 160.820312 66.152344 160.363281 65.980469 159.984375 66.039062 C 159.410156 66.125 158.976562 66.59375 158.96875 67.1875 C 158.96875 67.363281 158.976562 67.539062 158.984375 67.71875 C 158.820312 68.125 158.773438 68.585938 158.855469 69.023438 C 158.898438 69.265625 159.039062 69.503906 159.222656 69.707031 C 159.257812 69.863281 159.304688 70.015625 159.371094 70.160156 C 159.375 70.175781 159.382812 70.191406 159.390625 70.207031 C 159.414062 70.253906 159.433594 70.304688 159.460938 70.351562 C 159.464844 70.347656 159.464844 70.347656 159.464844 70.347656 C 159.960938 71.144531 161.242188 71.476562 161.902344 70.664062 C 162.296875 70.179688 162.445312 69.742188 162.5 69.121094 C 162.53125 68.800781 162.535156 68.476562 162.542969 68.152344 C 162.558594 67.21875 161.871094 66.597656 161.074219 66.472656 Z M 161.078125 66.472656 "/><path style=" stroke:none;fill-rule:nonzero;fill:#000000;fill-opacity:1;" d="M 180.949219 155.421875 C 179.644531 157.601562 177.164062 159.070312 174.609375 159.035156 C 172.046875 159 169.589844 157.367188 168.28125 155.210938 C 167.359375 153.699219 165.285156 155.019531 165.960938 156.566406 C 167.453125 159.960938 170.925781 162.121094 174.609375 162.226562 C 178.320312 162.328125 181.847656 160.21875 183.628906 156.988281 C 184.59375 155.238281 181.976562 153.707031 180.949219 155.421875 Z M 180.949219 155.421875 "/><path style=" stroke:none;fill-rule:nonzero;fill:#000000;fill-opacity:1;" d="M 153.503906 148.527344 C 151.628906 147.605469 149.726562 146.84375 147.621094 146.789062 C 146.027344 146.746094 145.371094 149.066406 146.796875 149.824219 C 147.996094 150.460938 149.253906 150.925781 150.464844 151.542969 C 150.6875 151.65625 152.351562 152.683594 153.023438 153.09375 C 152.449219 153.359375 151.890625 153.800781 151.324219 154.082031 C 150.128906 154.671875 148.886719 155.132812 147.613281 155.511719 C 145.21875 156.226562 146.238281 159.984375 148.644531 159.265625 C 150.550781 158.695312 152.382812 157.925781 154.140625 157 C 155.921875 156.066406 157.648438 154.640625 157.234375 152.398438 C 156.886719 150.515625 155.113281 149.3125 153.503906 148.527344 Z M 153.503906 148.527344 "/><path style=" stroke:none;fill-rule:nonzero;fill:#000000;fill-opacity:1;" d="M 202.890625 157.765625 C 201.859375 157.332031 200.855469 156.820312 199.882812 156.269531 C 199.445312 156.023438 199.015625 155.765625 198.59375 155.5 C 198.617188 155.480469 198.644531 155.460938 198.667969 155.441406 C 199.191406 155.085938 199.703125 154.714844 200.21875 154.347656 C 201.253906 153.605469 202.492188 152.921875 203.28125 151.917969 C 203.761719 151.3125 203.964844 150.558594 203.550781 149.847656 C 203.175781 149.210938 202.339844 148.839844 201.621094 149.0625 C 199.984375 149.570312 198.515625 150.792969 197.109375 151.75 C 195.664062 152.734375 194.078125 153.804688 194.238281 155.769531 C 194.378906 157.488281 195.910156 158.398438 197.257812 159.167969 C 198.746094 160.023438 200.304688 160.734375 201.898438 161.367188 C 202.835938 161.738281 203.949219 160.960938 204.195312 160.0625 C 204.488281 158.984375 203.824219 158.160156 202.890625 157.765625 Z M 202.890625 157.765625 "/></g></svg>